<?xml version="1.0" encoding="UTF-8" standalone="no"?><svg xmlns="http://www.w3.org/2000/svg" xmlns:xlink="http://www.w3.org/1999/xlink" contentScriptType="text/ecmascript" zoomAndPan="magnify" contentStyleType="text/css" stroke-linecap="round" version="1" width="217" stroke-miterlimit="1.5" clip-rule="evenodd" fill="#000000" preserveAspectRatio="xMidYMid meet" viewBox="-0.4 0.0 216.9 336.0" height="336" stroke-linejoin="round" fill-rule="evenodd"><g><g id="change1_1"><path fill="#e4552d" d="M47.085,155.81l14.375,157.995c33.616,17.608 67.368,16.957 98.425,-1.275l9.6,-159.36l-122.4,2.64Z"/></g><clipPath id="a"><path d="M47.085,155.81l14.375,157.995c33.616,17.608 67.368,16.957 98.425,-1.275l9.6,-159.36l-122.4,2.64Z"/></clipPath><g fill="#d62424" clip-path="url(#a)"><g id="change2_2"><path d="M28.954,286.879c59.473,15.128 117.549,14.892 174.546,2.785l-10.213,63.134l-162.476,-13.927l-1.857,-51.992Z"/></g><g id="change2_1"><ellipse rx="5.106" ry="6.499" cx="75.84" cy="203.32"/><ellipse rx="3.971" ry="5.571" cx="112.256" cy="221.889"/><path d="M92.241,239.906c2.809,-0.22 5.23,1.387 5.402,3.586c0.171,2.198 -1.97,4.161 -4.78,4.381c-2.81,0.219 -5.23,-1.387 -5.402,-3.586c-0.172,-2.199 1.97,-4.162 4.78,-4.381Z"/><ellipse rx="4.874" ry="4.178" cx="97.426" cy="274.345"/><ellipse rx="5.106" ry="8.352" cx="121.333" cy="256.245"/><circle r="5.571" cx="147.794" cy="221.889"/><ellipse rx="6.035" ry="6.961" cx="73.983" cy="263.206"/><ellipse rx="4.178" ry="7.66" cx="130.618" cy="282.005"/><ellipse rx="6.035" ry="6.217" cx="73.983" cy="233.677"/><ellipse rx="6.499" ry="4.176" cx="141.295" cy="252.069"/><ellipse rx="5.313" ry="6.963" cx="102.971" cy="202.856"/><ellipse rx="3.25" ry="3.482" cx="144.544" cy="199.374"/></g></g><g id="change3_1"><path fill="#d2eaf6" d="M44.685,96.05l2.908,61.2c40.8,18.277 81.812,19.101 122.612,0.24l3.12,-63.84l-128.64,2.4Z"/></g><clipPath id="b"><path d="M44.685,96.05l2.908,61.2c40.8,18.277 81.812,19.101 122.612,0.24l3.12,-63.84l-128.64,2.4Z"/></clipPath><g fill="#eb8e48" id="change4_1" clip-path="url(#b)"><path d="M82.713,130.793c3.256,-8.949 14.583,-15.789 27.746,-15.789c13.162,0 24.49,6.84 27.746,15.789c11.399,-2.238 24.531,2.123 31.112,11.164c6.582,9.042 4.777,20.243 -3.366,26.954c8.143,6.711 9.948,17.912 3.366,26.953c-6.581,9.041 -19.713,13.402 -31.112,11.164c-3.256,8.949 -14.584,15.789 -27.746,15.789c-13.163,0 -24.49,-6.84 -27.746,-15.789c-11.399,2.238 -24.531,-2.123 -31.112,-11.164c-6.582,-9.041 -4.777,-20.242 3.366,-26.953c-8.143,-6.711 -9.948,-17.912 -3.366,-26.954c6.581,-9.041 19.713,-13.402 31.112,-11.164Z"/><path d="M40.351,136.873c1.806,-8.949 8.088,-15.789 15.388,-15.789c7.3,0 13.582,6.84 15.388,15.789c6.322,-2.238 13.605,2.123 17.255,11.164c3.65,9.042 2.649,20.243 -1.867,26.954c4.516,6.711 5.517,17.912 1.867,26.953c-3.65,9.041 -10.933,13.402 -17.255,11.164c-1.806,8.949 -8.088,15.789 -15.388,15.789c-7.3,0 -13.582,-6.84 -15.388,-15.789c-6.322,2.238 -13.605,-2.123 -17.255,-11.164c-3.65,-9.041 -2.649,-20.242 1.867,-26.953c-4.516,-6.711 -5.517,-17.912 -1.867,-26.954c3.65,-9.041 10.933,-13.402 17.255,-11.164Z"/><path d="M168.638,131.958c3.73,0.73 6.746,3.902 6.992,7.794c0.247,3.892 -2.346,7.419 -5.954,8.614c1.131,3.312 -0.412,7.309 -3.996,9.489c-3.584,2.181 -8.21,1.938 -11.114,-0.296c-2.599,2.582 -7.158,3.406 -10.988,1.694c-3.83,-1.711 -5.864,-5.481 -5.16,-8.909c-3.73,-0.731 -6.746,-3.903 -6.992,-7.795c-0.246,-3.892 2.346,-7.419 5.954,-8.614c-1.13,-3.312 0.412,-7.308 3.996,-9.489c3.584,-2.18 8.21,-1.937 11.114,0.296c2.599,-2.581 7.158,-3.406 10.988,-1.694c3.83,1.711 5.864,5.481 5.16,8.91Z"/></g><path fill="none" stroke-width="7.02" d="M175.647,87.79l-14.864,227.873c-33.107,13.727 -66.215,16.623 -99.323,-1.858l-19.508,-226.015l133.695,-0Z" stroke="#d2eaf6"/><g id="change5_1"><path fill="#ffffff" d="M146.533,51.842l-17.389,94.087c-3.177,-5.077 -7.986,-6.692 -12.858,-2.377l17.39,-94.086l12.857,2.376Z"/></g><g id="change6_1"><ellipse fill="#dceff6" rx="66.847" cx="108.799" ry="20.949" cy="87.79" stroke="#bce1fc" stroke-width="7.02"/></g><g id="change5_2"><path fill="#ffffff" d="M148.887,39.11l-12.784,64.131l-11.926,1.311l11.852,-67.819l12.858,2.377Z"/></g><g id="change5_3"><path fill="#ffffff" d="M216.102,11.75l-72.762,34.616l-7.208,-9.59l74.234,-36.776c3.92,1.909 6.083,5.575 5.736,11.75Z"/></g><g><g id="change7_1"><path fill="#ea5d38" d="M44.67,259.533c0.408,0.015 37.838,-20.193 45.008,28.411c3.314,22.472 -14.666,41.871 -44.211,41.157c-30.408,-0.734 -45.747,-18.494 -44.211,-41.157c3.186,-47.011 42.773,-28.434 43.414,-28.411Z"/></g><clipPath id="c"><path d="M44.67,259.533c0.408,0.015 37.838,-20.193 45.008,28.411c3.314,22.472 -14.666,41.871 -44.211,41.157c-30.408,-0.734 -45.747,-18.494 -44.211,-41.157c3.186,-47.011 42.773,-28.434 43.414,-28.411Z"/></clipPath><g id="change4_2" clip-path="url(#c)"><path fill="#eb8e48" d="M39.691,257.209c4.854,9.591 0.298,31.031 0.598,33.106c2.171,15.06 -1.963,38.286 -5.576,37.06c6.98,9.821 17.183,8.929 22.039,1.745c-6.428,0.787 -10.615,-39.15 -7.159,-38.805c-0,0 -4.667,-27.028 0.554,-33.272l-10.456,0.166Z"/></g><path fill="none" stroke-width="2.09" d="M44.67,259.533c0.408,0.015 37.838,-20.193 45.008,28.411c3.314,22.472 -14.666,41.871 -44.211,41.157c-30.408,-0.734 -45.747,-18.494 -44.211,-41.157c3.186,-47.011 42.773,-28.434 43.414,-28.411Z" stroke="#dd2120"/><g id="change8_1"><path fill="#dd2120" d="M44.986,270.984c0.27,0.01 25.127,-13.41 29.888,18.867c1.801,12.211 -5.668,24.031 -19.463,26.334c-5.7,0.951 -6.236,-5.953 -9.801,-6.039c-3.951,-0.095 -4.71,5.742 -10.789,5.511c-13.561,-0.514 -19.486,-13.701 -18.666,-25.806c2.116,-31.219 28.405,-18.883 28.831,-18.867Z"/></g><g fill="#ec8217" id="change9_1"><path d="M28.338,294.227c0,0 -5.997,1.557 -7.864,1.608c-1.016,0.027 -1.863,-0.776 -1.891,-1.792c-0.027,-1.016 0.775,-1.864 1.792,-1.891c1.866,-0.051 7.963,2.075 7.963,2.075Z"/><path d="M28.682,285.001c0,0 -5.697,-2.438 -7.204,-3.54c-0.821,-0.6 -1,-1.754 -0.4,-2.574c0.601,-0.821 1.754,-1 2.575,-0.4c1.507,1.102 5.029,6.514 5.029,6.514Z"/><path d="M30.728,301.301c0,-0 -6.087,1.161 -7.795,1.914c-0.93,0.411 -1.352,1.499 -0.942,2.429c0.411,0.93 1.499,1.352 2.429,0.942c1.708,-0.753 6.308,-5.285 6.308,-5.285Z"/><path d="M36.722,284.504c0,0 -3.768,-4.919 -4.541,-6.619c-0.42,-0.925 -0.01,-2.018 0.915,-2.439c0.926,-0.421 2.019,-0.011 2.439,0.915c0.773,1.699 1.187,8.143 1.187,8.143Z"/><path d="M35.434,304.022c0,-0 -3.768,4.919 -4.54,6.619c-0.421,0.925 -0.011,2.018 0.914,2.439c0.926,0.421 2.019,0.011 2.439,-0.914c0.773,-1.7 1.187,-8.144 1.187,-8.144Z"/></g><g fill="#ec8217" id="change9_2"><path d="M63.311,293.331c-0,-0 5.998,1.557 7.864,1.608c1.016,0.027 1.864,-0.776 1.891,-1.792c0.028,-1.016 -0.775,-1.864 -1.791,-1.891c-1.867,-0.051 -7.964,2.075 -7.964,2.075Z"/><path d="M62.967,284.105c0,-0 5.697,-2.438 7.204,-3.54c0.821,-0.6 1,-1.754 0.4,-2.574c-0.6,-0.821 -1.754,-1 -2.574,-0.4c-1.508,1.102 -5.03,6.514 -5.03,6.514Z"/><path d="M60.921,300.405c0,-0 6.087,1.161 7.795,1.914c0.93,0.41 1.352,1.499 0.942,2.429c-0.41,0.93 -1.499,1.352 -2.429,0.942c-1.708,-0.754 -6.308,-5.285 -6.308,-5.285Z"/><path d="M54.827,284.106c0,-0 3.769,-4.919 4.541,-6.619c0.421,-0.926 0.011,-2.019 -0.914,-2.439c-0.926,-0.421 -2.019,-0.011 -2.44,0.914c-0.772,1.7 -1.187,8.144 -1.187,8.144Z"/><path d="M55.418,303.126c0,-0 3.768,4.919 4.541,6.619c0.421,0.925 0.011,2.018 -0.914,2.439c-0.926,0.421 -2.019,0.011 -2.44,-0.915c-0.772,-1.699 -1.187,-8.143 -1.187,-8.143Z"/></g><g id="change4_3"><path fill="#eb8e48" d="M41.627,280.407c0.191,-3.979 0.267,-12.938 0.267,-12.938l5.63,0.757c0,-0 0.353,7.49 0.446,12.079c0.216,10.687 21.107,-5.89 15.995,11.945c-1.874,6.542 -2.501,9.932 -10.528,11.272c-1.168,0.195 -3.199,0.013 -3.199,0.013l-0.048,15.697l-10.754,1.753l0.52,-17.012c-0,0 -1.946,0.344 -3.014,0.304c-7.89,-0.299 -7.537,-6.017 -9.002,-12.027c-3.792,-15.557 13.211,-1.908 13.687,-11.843Z"/></g><g id="change10_1"><path fill="#557e38" d="M34.135,255.619c3.809,0.687 7.271,1.72 10.336,3.15c3.469,-1.592 7.032,-2.846 10.714,-3.588l-11.112,-0.595l-9.938,1.033Z"/></g><g id="change10_2"><path fill="#557e38" d="M40.11,256.259c4.766,2.911 3.298,-4.272 -3.087,-19.417c1.797,-2.585 3.845,-3.422 6.173,-2.29c2.33,4.417 3.812,10.95 3.485,22.006l-6.571,-0.299Z"/></g></g></g></svg>