<?xml version="1.0" encoding="UTF-8" standalone="no"?><svg xmlns="http://www.w3.org/2000/svg" xmlns:xlink="http://www.w3.org/1999/xlink" contentScriptType="text/ecmascript" zoomAndPan="magnify" contentStyleType="text/css" stroke-linecap="round" version="1" width="949" stroke-miterlimit="1.5" clip-rule="evenodd" fill="#000000" preserveAspectRatio="xMidYMid meet" viewBox="-5.2 -5.5 948.9 1405.6" height="1406" stroke-linejoin="round" fill-rule="evenodd"><g><g><g><g transform="matrix(1,0,0,1,-3042,-2952) matrix(1.43067,0,0,1.54267,0,0) matrix(0.698975,0,0,0.648228,0,0) matrix(1,0,0,1,2890,3095.11)"><g id="change1_1"><path fill="#fdda72" d="M380.186,506.104L440.084,1164.41C580.151,1237.78 720.785,1235.07 850.186,1159.1L890.186,495.104L380.186,506.104Z"/></g><clipPath id="a"><path d="M380.186,506.104L440.084,1164.41C580.151,1237.78 720.785,1235.07 850.186,1159.1L890.186,495.104L380.186,506.104Z"/></clipPath><g clip-path="url(#a)"><g id="change2_1"><path fill="#e2c56b" d="M304.642,1052.22C552.445,1115.26 794.428,1114.27 1031.91,1063.83L989.362,1326.89L312.379,1268.86L304.642,1052.22Z"/></g><g><g id="change2_3"><ellipse rx="21.277" ry="27.079" fill="#e2c56b" cx="500" cy="704.062"/></g><g id="change2_4"><ellipse rx="16.546" ry="23.211" fill="#e2c56b" cx="651.732" cy="781.431"/></g><g id="change2_2" transform="matrix(0.996962,-0.0778901,0.0778901,0.996962,-66.2753,47.0213)"><ellipse rx="21.277" ry="16.648" fill="#e2c56b" cx="569.633" cy="873.1"/></g><g id="change2_5"><ellipse rx="20.309" ry="17.408" fill="#e2c56b" cx="589.942" cy="1000"/></g><g id="change2_6"><ellipse rx="21.277" ry="34.8" fill="#e2c56b" cx="689.555" cy="924.581"/></g><g id="change2_7"><circle fill="#e2c56b" r="23.211" cx="799.807" cy="781.431"/></g><g id="change2_8"><ellipse rx="25.145" ry="29.005" fill="#e2c56b" cx="492.263" cy="953.587"/></g><g id="change2_9"><ellipse rx="17.408" ry="31.915" fill="#e2c56b" cx="728.24" cy="1031.91"/></g><g id="change2_10"><ellipse rx="25.145" ry="25.905" fill="#e2c56b" cx="492.263" cy="830.547"/></g><g id="change2_11"><ellipse rx="27.079" ry="17.4" fill="#e2c56b" cx="772.727" cy="907.181"/></g><g id="change2_12"><ellipse rx="22.138" ry="29.014" fill="#e2c56b" cx="613.047" cy="702.128"/></g><g id="change2_13"><ellipse rx="13.54" ry="14.507" fill="#e2c56b" cx="786.267" cy="687.621"/></g></g></g></g><g transform="matrix(1,0,0,1,-3042,-2952) matrix(1.43067,0,0,1.54267,0,0) matrix(0.698975,0,0,0.648228,0,0) matrix(1,0,0,1,2890,3095.11)"><g id="change3_1"><path fill="#d2eaf6" d="M370.186,257.104L382.305,512.104C552.305,588.257 723.186,591.69 893.186,513.104L906.186,247.104L370.186,257.104Z"/></g><clipPath id="b"><path d="M370.186,257.104L382.305,512.104C552.305,588.257 723.186,591.69 893.186,513.104L906.186,247.104L370.186,257.104Z"/></clipPath><g clip-path="url(#b)"><g id="change4_1"><path fill="#fff2ca" d="M544.224,325.921C559.236,281.248 611.461,247.104 672.147,247.104C732.833,247.104 785.058,281.248 800.07,325.921C852.626,314.75 913.17,336.519 943.513,381.653C973.856,426.787 965.536,482.7 927.993,516.202C965.536,549.703 973.856,605.617 943.513,650.751C913.17,695.885 852.626,717.654 800.07,706.483C785.058,751.156 732.833,785.3 672.147,785.3C611.461,785.3 559.236,751.156 544.224,706.483C491.668,717.654 431.124,695.885 400.781,650.751C370.438,605.617 378.758,549.703 416.301,516.202C378.758,482.7 370.438,426.787 400.781,381.653C431.124,336.519 491.668,314.75 544.224,325.921Z" transform="matrix(0.903735,0,0,0.834679,36.8025,129.826)"/></g><g id="change4_3"><path fill="#fff2ca" d="M544.224,325.921C559.236,281.248 611.461,247.104 672.147,247.104C732.833,247.104 785.058,281.248 800.07,325.921C852.626,314.75 913.17,336.519 943.513,381.653C973.856,426.787 965.536,482.7 927.993,516.202C965.536,549.703 973.856,605.617 943.513,650.751C913.17,695.885 852.626,717.654 800.07,706.483C785.058,751.156 732.833,785.3 672.147,785.3C611.461,785.3 559.236,751.156 544.224,706.483C491.668,717.654 431.124,695.885 400.781,650.751C370.438,605.617 378.758,549.703 416.301,516.202C378.758,482.7 370.438,426.787 400.781,381.653C431.124,336.519 491.668,314.75 544.224,325.921Z" transform="matrix(0.501217,0,0,0.834679,79.354,155.16)"/></g><g id="change4_2"><path fill="#fff2ca" d="M544.224,325.921C559.236,281.248 611.461,247.104 672.147,247.104C732.833,247.104 785.058,281.248 800.07,325.921C852.626,314.75 913.17,336.519 943.513,381.653C973.856,426.787 965.536,482.7 927.993,516.202C965.536,549.703 973.856,605.617 943.513,650.751C913.17,695.885 852.626,717.654 800.07,706.483C785.058,751.156 732.833,785.3 672.147,785.3C611.461,785.3 559.236,751.156 544.224,706.483C491.668,717.654 431.124,695.885 400.781,650.751C370.438,605.617 378.758,549.703 416.301,516.202C378.758,482.7 370.438,426.787 400.781,381.653C431.124,336.519 491.668,314.75 544.224,325.921Z" transform="matrix(0.0169073,0.267222,-0.342229,0.021653,988.995,254.233)"/></g></g></g><g><path fill="none" stroke-width="29.23" d="M915.861,222.685L853.93,1172.16C715.982,1229.35 578.033,1241.42 440.084,1164.41L358.801,222.685L915.861,222.685Z" transform="matrix(1,0,0,1,-3042,-2952) matrix(1.43067,0,0,1.54267,0,0) matrix(0.698975,0,0,0.648228,0,0) matrix(1,0,0,1,2890,3095.11)" stroke="#d2eaf6"/></g><g id="change5_1"><path fill="#ffffff" d="M692.667,83.301L692.667,481.967C675.808,463.573 654.882,460.596 638.186,481.967L638.186,83.301L692.667,83.301Z" transform="matrix(1,0,0,1,-3042,-2952) matrix(1.43067,0,0,1.54267,0,0) matrix(0.698975,0,0,0.648228,0,0) matrix(0.983345,0.181749,-0.181749,0.983345,3018.56,2960.21)"/></g><g id="change6_1" transform="matrix(1,0,0,1,-3042,-2952) matrix(1.43067,0,0,1.54267,0,0) matrix(0.698975,0,0,0.648228,0,0) matrix(1.04348,0,0,1.15713,2866.33,2984.3)"><ellipse fill="#dceff6" rx="266.925" cx="633.462" ry="75.435" cy="288.201" stroke="#bce1fc" stroke-width="26.53"/></g><g id="change5_3"><path fill="#ffffff" d="M692.667,83.301L688.855,304.406L640.983,316.097L638.186,83.301L692.667,83.301Z" transform="matrix(1,0,0,1,-3042,-2952) matrix(1.43067,0,0,1.54267,0,0) matrix(0.698975,0,0,0.648228,0,0) matrix(0.983345,0.181749,-0.223948,1.21166,3031.89,2888.13)"/></g><g id="change5_2"><path fill="#ffffff" d="M692.667,83.301L689.29,309.293L640.206,315.663L638.186,83.301C652.498,75.769 670.177,74.828 692.667,83.301Z" transform="matrix(1,0,0,1,-3042,-2952) matrix(1.43067,0,0,1.54267,0,0) matrix(0.698975,0,0,0.648228,0,0) matrix(0.438665,0.89865,-1.33496,0.651646,3781.78,2324.21)"/></g><g transform="matrix(1,0,0,1,-3042,-2952) matrix(1.43067,0,0,1.54267,0,0) matrix(0.698975,0,0,0.648228,0,0) matrix(1.22709,0,0,1.22709,-793.237,-870.286)"><g id="change7_1"><path fill="#f9de3a" d="M3128.38,4180.93C3121.26,4188.38 3129.92,4211.04 3137.05,4215.6C3144.18,4220.15 3171.91,4202.3 3183.81,4210.27C3201.76,4222.28 3232.91,4229.42 3255.14,4220.93C3293.01,4206.48 3333.2,4180.69 3353.59,4141.41C3394.42,4062.79 3415.32,4009.9 3392.45,3941.6C3375.78,3891.82 3254.07,3891.67 3255.81,3942.6C3257.03,3978.43 3254.83,4054.63 3191.81,4132.27C3183.82,4142.12 3181.18,4169.99 3175.81,4170.27C3168.1,4170.67 3135.51,4173.49 3128.38,4180.93Z"/></g><clipPath id="c"><path d="M3128.38,4180.93C3121.26,4188.38 3129.92,4211.04 3137.05,4215.6C3144.18,4220.15 3171.91,4202.3 3183.81,4210.27C3201.76,4222.28 3232.91,4229.42 3255.14,4220.93C3293.01,4206.48 3333.2,4180.69 3353.59,4141.41C3394.42,4062.79 3415.32,4009.9 3392.45,3941.6C3375.78,3891.82 3254.07,3891.67 3255.81,3942.6C3257.03,3978.43 3254.83,4054.63 3191.81,4132.27C3183.82,4142.12 3181.18,4169.99 3175.81,4170.27C3168.1,4170.67 3135.51,4173.49 3128.38,4180.93Z"/></clipPath><g id="change8_1" clip-path="url(#c)"><path d="M3323.89,3941.92C3331.67,3992.38 3253.97,4124.59 3210.64,4168.59C3175.25,4204.54 3068.48,4205.92 3068.48,4205.92L3168.48,3865.83C3168.48,3865.83 3316.12,3891.46 3323.89,3941.92Z" fill-opacity="0.1"/></g><g id="change9_1"><path fill="#fbe5a9" d="M3248.85,3977.24C3264.74,3943.76 3276.67,3817.82 3260.48,3728.99C3251.86,3681.72 3338.5,3693.51 3361.14,3728.99C3387.09,3769.69 3405.96,3798.22 3408.48,3865.15C3410.59,3921.28 3397.93,3999.93 3394.47,4033.83C3394.33,4035.2 3387.37,3997.85 3358.25,3996.99C3340.77,3996.48 3311.47,4019.26 3301.67,4005.6C3280.19,3975.68 3242.17,3991.32 3248.85,3977.24Z"/></g><g id="change10_1"><path fill="#f5e577" d="M3219,3902.93C3272.08,3884.78 3319.62,3992.65 3305.32,4011.24C3236.81,3953.36 3189.88,4017.26 3173.81,4082.93C3173.81,4082.93 3140.84,4048.08 3137.81,4025.6C3129.8,3966.15 3186.95,3913.89 3219,3902.93Z"/></g><g id="change10_2"><path fill="#f5e577" d="M3189.67,3906.22C3242.75,3888.07 3315.97,3950.65 3301.67,3969.24C3227.33,3941.11 3201.94,3993.87 3184.48,4086.93C3184.48,4086.93 3151.51,4025.41 3148.48,4002.93C3140.46,3943.48 3157.61,3917.19 3189.67,3906.22Z" transform="matrix(-1,0,0,1,6608.8,45.3333)"/></g></g></g></g></g></svg>