<?xml version="1.0" encoding="UTF-8" standalone="no"?><svg xmlns="http://www.w3.org/2000/svg" xmlns:xlink="http://www.w3.org/1999/xlink" contentScriptType="text/ecmascript" zoomAndPan="magnify" contentStyleType="text/css" stroke-linecap="round" version="1" width="939" stroke-miterlimit="1.5" clip-rule="evenodd" fill="#000000" preserveAspectRatio="xMidYMid meet" viewBox="-11.8 -4.6 938.6 1424.0" height="1424" stroke-linejoin="round" fill-rule="evenodd"><g><g><g><g transform="matrix(1,0,0,1,-1991,-72) matrix(2.68871,0,0,1.54267,0,0) matrix(0.371926,0,0,0.648228,-10.414,-171.132) matrix(1,0,0,1,1850,480)"><g><path fill="#fef7c1" d="M380.186,506.104L440.084,1164.41C580.151,1237.78 720.785,1235.07 850.186,1159.1L890.186,495.104L380.186,506.104Z"/></g><clipPath id="a"><path d="M380.186,506.104L440.084,1164.41C580.151,1237.78 720.785,1235.07 850.186,1159.1L890.186,495.104L380.186,506.104Z"/></clipPath><g clip-path="url(#a)"><g><path fill="#f7e780" d="M304.642,1052.22C552.445,1115.26 794.428,1114.27 1031.91,1063.83L989.362,1326.89L312.379,1268.86L304.642,1052.22Z"/></g><g><g><ellipse rx="21.277" ry="27.079" fill="#f7e780" cx="500" cy="704.062"/></g><g><ellipse rx="16.546" ry="23.211" fill="#f7e780" cx="651.732" cy="781.431"/></g><g transform="matrix(0.996962,-0.0778901,0.0778901,0.996962,-66.2753,47.0213)"><ellipse rx="21.277" ry="16.648" fill="#f7e780" cx="569.633" cy="873.1"/></g><g><ellipse rx="20.309" ry="17.408" fill="#f7e780" cx="589.942" cy="1000"/></g><g><ellipse rx="21.277" ry="34.8" fill="#f7e780" cx="689.555" cy="924.581"/></g><g><circle fill="#f7e780" r="23.211" cx="799.807" cy="781.431"/></g><g><ellipse rx="25.145" ry="29.005" fill="#f7e780" cx="492.263" cy="953.587"/></g><g><ellipse rx="17.408" ry="31.915" fill="#f7e780" cx="728.24" cy="1031.91"/></g><g><ellipse rx="25.145" ry="25.905" fill="#f7e780" cx="492.263" cy="830.547"/></g><g><ellipse rx="27.079" ry="17.4" fill="#f7e780" cx="772.727" cy="907.181"/></g><g><ellipse rx="22.138" ry="29.014" fill="#f7e780" cx="613.047" cy="702.128"/></g><g><ellipse rx="13.54" ry="14.507" fill="#f7e780" cx="786.267" cy="687.621"/></g></g></g></g><g transform="matrix(1,0,0,1,-1991,-72) matrix(2.68871,0,0,1.54267,0,0) matrix(0.371926,0,0,0.648228,-10.414,-171.132) matrix(1,0,0,1,1850,480)"><g><path fill="#d2eaf6" d="M370.186,257.104L382.305,512.104C552.305,588.257 723.186,591.69 893.186,513.104L906.186,247.104L370.186,257.104Z"/></g><clipPath id="b"><path d="M370.186,257.104L382.305,512.104C552.305,588.257 723.186,591.69 893.186,513.104L906.186,247.104L370.186,257.104Z"/></clipPath><g clip-path="url(#b)"><g><path fill="#fefcec" d="M544.224,325.921C559.236,281.248 611.461,247.104 672.147,247.104C732.833,247.104 785.058,281.248 800.07,325.921C852.626,314.75 913.17,336.519 943.513,381.653C973.856,426.787 965.536,482.7 927.993,516.202C965.536,549.703 973.856,605.617 943.513,650.751C913.17,695.885 852.626,717.654 800.07,706.483C785.058,751.156 732.833,785.3 672.147,785.3C611.461,785.3 559.236,751.156 544.224,706.483C491.668,717.654 431.124,695.885 400.781,650.751C370.438,605.617 378.758,549.703 416.301,516.202C378.758,482.7 370.438,426.787 400.781,381.653C431.124,336.519 491.668,314.75 544.224,325.921Z" transform="matrix(0.903735,0,0,0.834679,36.8025,129.826)"/></g><g><path fill="#fefcec" d="M544.224,325.921C559.236,281.248 611.461,247.104 672.147,247.104C732.833,247.104 785.058,281.248 800.07,325.921C852.626,314.75 913.17,336.519 943.513,381.653C973.856,426.787 965.536,482.7 927.993,516.202C965.536,549.703 973.856,605.617 943.513,650.751C913.17,695.885 852.626,717.654 800.07,706.483C785.058,751.156 732.833,785.3 672.147,785.3C611.461,785.3 559.236,751.156 544.224,706.483C491.668,717.654 431.124,695.885 400.781,650.751C370.438,605.617 378.758,549.703 416.301,516.202C378.758,482.7 370.438,426.787 400.781,381.653C431.124,336.519 491.668,314.75 544.224,325.921Z" transform="matrix(0.501217,0,0,0.834679,79.354,155.16)"/></g><g><path fill="#fefcec" d="M544.224,325.921C559.236,281.248 611.461,247.104 672.147,247.104C732.833,247.104 785.058,281.248 800.07,325.921C852.626,314.75 913.17,336.519 943.513,381.653C973.856,426.787 965.536,482.7 927.993,516.202C965.536,549.703 973.856,605.617 943.513,650.751C913.17,695.885 852.626,717.654 800.07,706.483C785.058,751.156 732.833,785.3 672.147,785.3C611.461,785.3 559.236,751.156 544.224,706.483C491.668,717.654 431.124,695.885 400.781,650.751C370.438,605.617 378.758,549.703 416.301,516.202C378.758,482.7 370.438,426.787 400.781,381.653C431.124,336.519 491.668,314.75 544.224,325.921Z" transform="matrix(0.0169073,0.267222,-0.342229,0.021653,988.995,254.233)"/></g></g></g><g><path fill="none" stroke-width="29.23" d="M915.861,222.685L853.93,1172.16C715.982,1229.35 578.033,1241.42 440.084,1164.41L358.801,222.685L915.861,222.685Z" transform="matrix(1,0,0,1,-1991,-72) matrix(2.68871,0,0,1.54267,0,0) matrix(0.371926,0,0,0.648228,-10.414,-171.132) matrix(1,0,0,1,1850,480)" stroke="#d2eaf6"/></g><g><path fill="#ffffff" d="M692.667,83.301L692.667,481.967C675.808,463.573 654.882,460.596 638.186,481.967L638.186,83.301L692.667,83.301Z" transform="matrix(1,0,0,1,-1991,-72) matrix(2.68871,0,0,1.54267,0,0) matrix(0.371926,0,0,0.648228,-10.414,-171.132) matrix(0.983345,0.181749,-0.181749,0.983345,1978.56,345.1)"/></g><g transform="matrix(1,0,0,1,-1991,-72) matrix(2.68871,0,0,1.54267,0,0) matrix(0.371926,0,0,0.648228,-10.414,-171.132) matrix(1.04348,0,0,1.15713,1826.33,369.198)"><ellipse fill="#dceff6" rx="266.925" cx="633.462" ry="75.435" cy="288.201" stroke="#bce1fc" stroke-width="26.53"/></g><g><path fill="#ffffff" d="M692.667,83.301L688.855,304.406L640.983,316.097L638.186,83.301L692.667,83.301Z" transform="matrix(1,0,0,1,-1991,-72) matrix(2.68871,0,0,1.54267,0,0) matrix(0.371926,0,0,0.648228,-10.414,-171.132) matrix(0.983345,0.181749,-0.223948,1.21166,1991.89,273.03)"/></g><g><path fill="#ffffff" d="M692.667,83.301L689.29,309.293L640.206,315.663L638.186,83.301C652.498,75.769 670.177,74.828 692.667,83.301Z" transform="matrix(1,0,0,1,-1991,-72) matrix(2.68871,0,0,1.54267,0,0) matrix(0.371926,0,0,0.648228,-10.414,-171.132) matrix(0.438665,0.89865,-1.33496,0.651646,2741.78,-290.893)"/></g><g><g transform="matrix(1,0,0,1,-1991,-72) matrix(2.68871,0,0,1.54267,0,0) matrix(0.371926,0,0,0.648228,-10.414,-171.132) matrix(1,0,0,1,-49.0714,842.596) matrix(1,0,0,1,-41.3315,-25.4776)"><g><path fill="#97db2e" d="M2267.96,536.219C2325.1,553.855 2275.92,551.43 2329.83,533.472C2435.91,498.131 2490.39,548.866 2483.33,688.327C2470.98,932.49 2374.31,868.458 2297.15,871.327C2199.98,874.94 2171.83,938.239 2118.97,698.327C2097.59,601.266 2153.13,500.779 2267.96,536.219Z"/></g><clipPath id="c"><path d="M2267.96,536.219C2325.1,553.855 2275.92,551.43 2329.83,533.472C2435.91,498.131 2490.39,548.866 2483.33,688.327C2470.98,932.49 2374.31,868.458 2297.15,871.327C2199.98,874.94 2171.83,938.239 2118.97,698.327C2097.59,601.266 2153.13,500.779 2267.96,536.219Z"/></clipPath><g clip-path="url(#c)"><g><path fill="#fef7c0" d="M2260.3,565.327C2256.33,505.634 2171.72,473.247 2103.33,541.327C2061.3,606.958 2073.3,704.475 2122.06,814.079C2140.75,856.096 2191.91,874.106 2260.3,822.079C2328.77,870.211 2390.88,853.488 2418.82,800.746C2446.22,735.688 2464.89,612.109 2414.85,528.829C2373.37,472.032 2264.58,505.112 2260.3,565.327Z" transform="matrix(0.990288,0,0,1,60.8554,26.0277)"/></g></g><path fill="none" stroke-width="8.38" d="M2267.96,536.219C2325.1,553.855 2275.92,551.43 2329.83,533.472C2435.91,498.131 2490.39,548.866 2483.33,688.327C2470.98,932.49 2374.31,868.458 2297.15,871.327C2199.98,874.94 2171.83,938.239 2118.97,698.327C2097.59,601.266 2153.13,500.779 2267.96,536.219Z" stroke="#97db2e"/></g><g><path fill="#fff199" d="M2257.87,566.829C2257.87,566.829 2196.26,650.565 2214.33,684.496C2230.49,714.826 2246.72,748.611 2257.87,821.496C2263.65,755.431 2287.77,718.969 2311,683.162C2331.93,650.905 2257.87,566.829 2257.87,566.829Z" transform="matrix(1,0,0,1,-1991,-72) matrix(2.68871,0,0,1.54267,0,0) matrix(0.371926,0,0,0.648228,-10.414,-171.132) matrix(1,0,0,1,-49.0714,842.596)"/></g><g><path fill="#572613" d="M2239.17,662.496C2239.17,662.496 2247.67,682.446 2247.67,690.996C2247.67,695.687 2243.86,699.496 2239.17,699.496C2234.47,699.496 2230.67,695.687 2230.67,690.996C2230.67,682.446 2239.17,662.496 2239.17,662.496Z" transform="matrix(1,0,0,1,-1991,-72) matrix(2.68871,0,0,1.54267,0,0) matrix(0.371926,0,0,0.648228,-10.414,-171.132) matrix(1,0,0,1,-49.0714,842.596) matrix(0.963089,0.269182,-0.269182,0.963089,269.961,-599.431)"/></g><g><path fill="#572613" d="M2239.17,662.496C2239.17,662.496 2247.67,682.446 2247.67,690.996C2247.67,695.687 2243.86,699.496 2239.17,699.496C2234.47,699.496 2230.67,695.687 2230.67,690.996C2230.67,682.446 2239.17,662.496 2239.17,662.496Z" transform="matrix(1,0,0,1,-1991,-72) matrix(2.68871,0,0,1.54267,0,0) matrix(0.371926,0,0,0.648228,-10.414,-171.132) matrix(1,0,0,1,-49.0714,842.596) matrix(-0.963089,0.269182,0.269182,0.963089,4249.37,-599.431)"/></g><g><path fill="#8b3c1c" d="M2263.83,526.207C2263.42,526.265 2261.1,526.598 2258.84,524.904C2258.15,524.383 2257.54,523.721 2257.09,522.977C2256.9,522.665 2256.56,522.099 2255.7,518.647C2242.85,466.577 2255.85,428.902 2271.37,402.357C2272.5,400.423 2272.61,400.498 2274.27,398.995C2278.57,395.097 2283.53,394.341 2284.42,394.206C2285.31,394.071 2290.27,393.316 2295.54,395.755C2299.17,397.437 2301.44,399.941 2301.86,400.406C2305.76,404.711 2306.51,409.67 2306.65,410.558C2306.78,411.445 2307.54,416.404 2305.1,421.675C2303.57,424.98 2303.28,424.809 2300.83,427.497C2276.98,453.562 2268.8,484.513 2269.58,518.548C2269.61,519.896 2269.78,519.912 2269.46,521.218C2268.79,523.888 2266.74,525.095 2266.39,525.302C2265.2,526.002 2265.19,526.012 2263.83,526.207Z" transform="matrix(1,0,0,1,-1991,-72) matrix(2.68871,0,0,1.54267,0,0) matrix(0.371926,0,0,0.648228,-10.414,-171.132) matrix(1,0,0,1,-49.0714,842.596) matrix(1,0,0,1,-3.16021,12)"/></g></g></g></g></g></svg>