<?xml version="1.0" encoding="UTF-8" standalone="no"?><svg xmlns="http://www.w3.org/2000/svg" xmlns:xlink="http://www.w3.org/1999/xlink" contentScriptType="text/ecmascript" zoomAndPan="magnify" contentStyleType="text/css" stroke-linecap="round" version="1" width="896" stroke-miterlimit="1.5" clip-rule="evenodd" fill="#000000" preserveAspectRatio="xMidYMid meet" viewBox="-31.6 -5.5 896.3 1405.6" height="1406" stroke-linejoin="round" fill-rule="evenodd"><g><g><g><g transform="matrix(1,0,0,1,-2061,-2920) matrix(1.43067,0,0,1.54267,0,0) matrix(0.698975,0,0,0.648228,0,0) matrix(1,0,0,1,1830,3063.11)"><g id="change1_1"><path fill="#ff8911" d="M380.186,506.104L440.084,1164.41C580.151,1237.78 720.785,1235.07 850.186,1159.1L890.186,495.104L380.186,506.104Z"/></g><clipPath id="a"><path d="M380.186,506.104L440.084,1164.41C580.151,1237.78 720.785,1235.07 850.186,1159.1L890.186,495.104L380.186,506.104Z"/></clipPath><g clip-path="url(#a)"><g id="change2_2"><path fill="#ef7601" d="M304.642,1052.22C552.445,1115.26 794.428,1114.27 1031.91,1063.83L989.362,1326.89L312.379,1268.86L304.642,1052.22Z"/></g><g><g id="change2_3"><ellipse rx="21.277" ry="27.079" fill="#ef7601" cx="500" cy="704.062"/></g><g id="change2_4"><ellipse rx="16.546" ry="23.211" fill="#ef7601" cx="651.732" cy="781.431"/></g><g id="change2_1" transform="matrix(0.996962,-0.0778901,0.0778901,0.996962,-66.2753,47.0213)"><ellipse rx="21.277" ry="16.648" fill="#ef7601" cx="569.633" cy="873.1"/></g><g id="change2_5"><ellipse rx="20.309" ry="17.408" fill="#ef7601" cx="589.942" cy="1000"/></g><g id="change2_6"><ellipse rx="21.277" ry="34.8" fill="#ef7601" cx="689.555" cy="924.581"/></g><g id="change2_7"><circle fill="#ef7601" r="23.211" cx="799.807" cy="781.431"/></g><g id="change2_8"><ellipse rx="25.145" ry="29.005" fill="#ef7601" cx="492.263" cy="953.587"/></g><g id="change2_9"><ellipse rx="17.408" ry="31.915" fill="#ef7601" cx="728.24" cy="1031.91"/></g><g id="change2_10"><ellipse rx="25.145" ry="25.905" fill="#ef7601" cx="492.263" cy="830.547"/></g><g id="change2_11"><ellipse rx="27.079" ry="17.4" fill="#ef7601" cx="772.727" cy="907.181"/></g><g id="change2_12"><ellipse rx="22.138" ry="29.014" fill="#ef7601" cx="613.047" cy="702.128"/></g><g id="change2_13"><ellipse rx="13.54" ry="14.507" fill="#ef7601" cx="786.267" cy="687.621"/></g></g></g></g><g transform="matrix(1,0,0,1,-2061,-2920) matrix(1.43067,0,0,1.54267,0,0) matrix(0.698975,0,0,0.648228,0,0) matrix(1,0,0,1,1830,3063.11)"><g id="change3_1"><path fill="#d2eaf6" d="M370.186,257.104L382.305,512.104C552.305,588.257 723.186,591.69 893.186,513.104L906.186,247.104L370.186,257.104Z"/></g><clipPath id="b"><path d="M370.186,257.104L382.305,512.104C552.305,588.257 723.186,591.69 893.186,513.104L906.186,247.104L370.186,257.104Z"/></clipPath><g clip-path="url(#b)"><g id="change4_1"><path fill="#ffddbf" d="M544.224,325.921C559.236,281.248 611.461,247.104 672.147,247.104C732.833,247.104 785.058,281.248 800.07,325.921C852.626,314.75 913.17,336.519 943.513,381.653C973.856,426.787 965.536,482.7 927.993,516.202C965.536,549.703 973.856,605.617 943.513,650.751C913.17,695.885 852.626,717.654 800.07,706.483C785.058,751.156 732.833,785.3 672.147,785.3C611.461,785.3 559.236,751.156 544.224,706.483C491.668,717.654 431.124,695.885 400.781,650.751C370.438,605.617 378.758,549.703 416.301,516.202C378.758,482.7 370.438,426.787 400.781,381.653C431.124,336.519 491.668,314.75 544.224,325.921Z" transform="matrix(0.903735,0,0,0.834679,36.8025,129.826)"/></g><g id="change4_2"><path fill="#ffddbf" d="M544.224,325.921C559.236,281.248 611.461,247.104 672.147,247.104C732.833,247.104 785.058,281.248 800.07,325.921C852.626,314.75 913.17,336.519 943.513,381.653C973.856,426.787 965.536,482.7 927.993,516.202C965.536,549.703 973.856,605.617 943.513,650.751C913.17,695.885 852.626,717.654 800.07,706.483C785.058,751.156 732.833,785.3 672.147,785.3C611.461,785.3 559.236,751.156 544.224,706.483C491.668,717.654 431.124,695.885 400.781,650.751C370.438,605.617 378.758,549.703 416.301,516.202C378.758,482.7 370.438,426.787 400.781,381.653C431.124,336.519 491.668,314.75 544.224,325.921Z" transform="matrix(0.501217,0,0,0.834679,79.354,155.16)"/></g><g id="change4_3"><path fill="#ffddbf" d="M544.224,325.921C559.236,281.248 611.461,247.104 672.147,247.104C732.833,247.104 785.058,281.248 800.07,325.921C852.626,314.75 913.17,336.519 943.513,381.653C973.856,426.787 965.536,482.7 927.993,516.202C965.536,549.703 973.856,605.617 943.513,650.751C913.17,695.885 852.626,717.654 800.07,706.483C785.058,751.156 732.833,785.3 672.147,785.3C611.461,785.3 559.236,751.156 544.224,706.483C491.668,717.654 431.124,695.885 400.781,650.751C370.438,605.617 378.758,549.703 416.301,516.202C378.758,482.7 370.438,426.787 400.781,381.653C431.124,336.519 491.668,314.75 544.224,325.921Z" transform="matrix(0.0169073,0.267222,-0.342229,0.021653,988.995,254.233)"/></g></g></g><g><path fill="none" stroke-width="29.23" d="M915.861,222.685L853.93,1172.16C715.982,1229.35 578.033,1241.42 440.084,1164.41L358.801,222.685L915.861,222.685Z" transform="matrix(1,0,0,1,-2061,-2920) matrix(1.43067,0,0,1.54267,0,0) matrix(0.698975,0,0,0.648228,0,0) matrix(1,0,0,1,1830,3063.11)" stroke="#d2eaf6"/></g><g id="change5_3"><path fill="#ffffff" d="M692.667,83.301L692.667,481.967C675.808,463.573 654.882,460.596 638.186,481.967L638.186,83.301L692.667,83.301Z" transform="matrix(1,0,0,1,-2061,-2920) matrix(1.43067,0,0,1.54267,0,0) matrix(0.698975,0,0,0.648228,0,0) matrix(0.983345,0.181749,-0.181749,0.983345,1958.56,2928.21)"/></g><g id="change6_1" transform="matrix(1,0,0,1,-2061,-2920) matrix(1.43067,0,0,1.54267,0,0) matrix(0.698975,0,0,0.648228,0,0) matrix(1.04348,0,0,1.15713,1806.33,2952.3)"><ellipse fill="#dceff6" rx="266.925" cx="633.462" ry="75.435" cy="288.201" stroke="#bce1fc" stroke-width="26.53"/></g><g id="change5_2"><path fill="#ffffff" d="M692.667,83.301L688.855,304.406L640.983,316.097L638.186,83.301L692.667,83.301Z" transform="matrix(1,0,0,1,-2061,-2920) matrix(1.43067,0,0,1.54267,0,0) matrix(0.698975,0,0,0.648228,0,0) matrix(0.983345,0.181749,-0.223948,1.21166,1971.89,2856.13)"/></g><g id="change5_1"><path fill="#ffffff" d="M692.667,83.301L689.29,309.293L640.206,315.663L638.186,83.301C652.498,75.769 670.177,74.828 692.667,83.301Z" transform="matrix(1,0,0,1,-2061,-2920) matrix(1.43067,0,0,1.54267,0,0) matrix(0.698975,0,0,0.648228,0,0) matrix(0.438665,0.89865,-1.33496,0.651646,2721.78,2292.21)"/></g><g><g id="change7_1"><path fill="#019245" d="M2865.65,3714.9C2865.65,3714.9 2855.36,3645.07 2882.26,3642.33C2911.42,3639.35 2889.7,3731.62 2898.33,3719.1C2898.33,3719.1 2911.55,3653.93 2949.81,3661.06C2966.56,3664.18 2922.9,3723.37 2913.84,3749.59C2906.84,3769.87 2895.62,3826.54 2881.48,3826.54C2867.33,3826.54 2858.4,3774.15 2852.59,3751.89C2845.53,3724.89 2786.06,3661.12 2814.48,3659.94C2837.79,3658.97 2865.65,3714.9 2865.65,3714.9Z" transform="matrix(1,0,0,1,-2061,-2920) matrix(1.43067,0,0,1.54267,0,0) matrix(0.698975,0,0,0.648228,0,0) matrix(1.70577,-0.630887,0.547183,1.47945,-5852.86,8.59136) matrix(0.562249,0,0,0.893112,1784.14,709.781)"/></g><g transform="matrix(1,0,0,1,-2061,-2920) matrix(1.43067,0,0,1.54267,0,0) matrix(0.698975,0,0,0.648228,0,0) matrix(1.70577,-0.630887,0.547183,1.47945,-5852.86,8.59136) matrix(-0.999988,0.00496717,-0.00496717,-0.999988,7095.13,7709.84)"><g id="change8_1"><path fill="#fa9500" d="M3672.48,3399.87C3690.48,3399.91 3714.48,3558.07 3714.48,3625.87C3714.48,3649.06 3695.03,3661.2 3671.85,3661.2C3648.66,3661.2 3630.48,3649.06 3630.48,3625.87C3630.48,3558.07 3653.14,3399.83 3672.48,3399.87Z"/></g><clipPath id="c"><path d="M3672.48,3399.87C3690.48,3399.91 3714.48,3558.07 3714.48,3625.87C3714.48,3649.06 3695.03,3661.2 3671.85,3661.2C3648.66,3661.2 3630.48,3649.06 3630.48,3625.87C3630.48,3558.07 3653.14,3399.83 3672.48,3399.87Z"/></clipPath><g clip-path="url(#c)"><g id="change9_1"><path fill="#fc7c00" d="M3672.48,3399.87C3690.48,3399.91 3714.48,3558.07 3714.48,3625.87C3714.48,3649.06 3695.03,3661.2 3671.85,3661.2C3648.66,3661.2 3630.48,3649.06 3630.48,3625.87C3630.48,3558.07 3653.14,3399.83 3672.48,3399.87Z" transform="matrix(0.329741,6.87384e-17,9.02056e-17,0.810718,2461.59,670.157)"/></g><g><path fill="none" stroke-width="2.97" d="M3672.48,3399.87C3690.48,3399.91 3714.48,3558.07 3714.48,3625.87C3714.48,3649.06 3695.03,3661.2 3671.85,3661.2C3648.66,3661.2 3630.48,3649.06 3630.48,3625.87C3630.48,3558.07 3653.14,3399.83 3672.48,3399.87Z" transform="matrix(0.748952,-2.29851e-17,-2.34188e-17,0.856725,922.08,507.727)" stroke="#fc7c00"/></g></g><path fill="none" stroke-width="2.37" d="M3672.48,3399.87C3690.48,3399.91 3714.48,3558.07 3714.48,3625.87C3714.48,3649.06 3695.03,3661.2 3671.85,3661.2C3648.66,3661.2 3630.48,3649.06 3630.48,3625.87C3630.48,3558.07 3653.14,3399.83 3672.48,3399.87Z" stroke="#ea6103"/></g></g></g></g></g></svg>