<?xml version="1.0" encoding="UTF-8" standalone="no"?><svg xmlns="http://www.w3.org/2000/svg" xmlns:xlink="http://www.w3.org/1999/xlink" contentScriptType="text/ecmascript" fill="#000000" width="248.1" zoomAndPan="magnify" contentStyleType="text/css" viewBox="0.0 -6.0 248.1 266.1" height="266.1" preserveAspectRatio="xMidYMid meet" version="1"><defs><clipPath id="a"><path d="M 0 41 L 248.101562 41 L 248.101562 260.109375 L 0 260.109375 Z M 0 41"/></clipPath></defs><g><g id="change1_1" clip-path="url(#a)"><path fill="#ee2329" d="M 108.671875 51.355469 C 108.671875 51.355469 36.378906 17.714844 7.253906 91.640625 C -18.53125 157.085938 30.640625 229.996094 57.773438 247.640625 C 89.964844 268.566406 107.375 256.824219 125.382812 256.824219 C 140.214844 256.824219 170.988281 269.152344 194.378906 245.515625 C 217.765625 221.875 274.46875 147.710938 233.828125 79.664062 C 201.605469 25.707031 152.335938 42.617188 136.816406 50.261719 C 129.609375 53.808594 117.589844 55.042969 108.671875 51.355469"/></g><g id="change2_1"><path fill="#f0394f" d="M 196.710938 93.566406 C 202.339844 103.550781 198.554688 114.382812 191.394531 118.414062 C 184.238281 122.449219 176.421875 118.15625 170.796875 108.171875 C 165.167969 98.191406 163.867188 86.296875 171.023438 82.265625 C 178.179688 78.230469 191.089844 83.585938 196.710938 93.566406" fill-rule="evenodd"/></g><g id="change3_1"><path fill="#362216" d="M 113.941406 59.589844 C 115.003906 52.125 114.753906 26.101562 118.722656 15.246094 C 129.003906 10.425781 133.738281 19.851562 133.738281 19.851562 C 125.785156 35.15625 125.609375 47 127.289062 59.867188 C 127.289062 59.867188 126.921875 61.6875 121.941406 62.71875 C 116.964844 63.746094 113.941406 59.589844 113.941406 59.589844" fill-rule="evenodd"/></g><g id="change4_1"><path fill="#4b9939" d="M 26.902344 9.367188 C 26.902344 9.367188 59.152344 -6.011719 83.125 2.632812 C 107.097656 11.28125 118.457031 35.082031 115.714844 42.679688 C 112.976562 50.28125 89.855469 59.089844 65.882812 50.441406 C 41.910156 41.796875 26.902344 9.367188 26.902344 9.367188"/></g></g></svg>