<?xml version="1.0" encoding="UTF-8" standalone="no"?><svg xmlns="http://www.w3.org/2000/svg" xmlns:xlink="http://www.w3.org/1999/xlink" contentScriptType="text/ecmascript" fill="#000000" width="1804" zoomAndPan="magnify" contentStyleType="text/css" viewBox="597.8 815.0 1804.4 1370.1" height="1370" preserveAspectRatio="xMidYMid meet" version="1"><g><g clip-rule="evenodd" fill-rule="evenodd"><g id="change1_1"><path fill="#0a4da0" d="M2095.42,1658.58l-1095.6,452.07c-46.86,19.33-100.51-2.98-119.85-49.83l-275.21-666.96 c-19.33-46.86,2.98-100.51,49.83-119.85l1095.6-452.07c46.86-19.33,100.51,2.98,119.85,49.83l275.21,666.96 C2164.58,1585.59,2142.27,1639.24,2095.42,1658.58z"/></g><g id="change2_1"><path fill="#3a3a3a" d="M610 1186.58H1978.76V1355.1999999999998H610z" transform="matrix(0.9244 -0.3814 0.3814 0.9244 -386.8947 589.7946)"/></g></g><g><g id="change3_1"><path fill="#3e6dcd" clip-rule="evenodd" d="M2320.27,2057.17l-1178.34,127.32c-50.39,5.45-95.66-30.99-101.11-81.39l-77.51-717.34 c-5.44-50.39,30.99-95.66,81.39-101.11l1178.34-127.32c50.39-5.44,95.66,30.99,101.11,81.39l77.51,717.34 C2407.1,2006.46,2370.66,2051.73,2320.27,2057.17z" fill-rule="evenodd"/></g><g id="change4_1"><path fill="#d7ba2f" clip-rule="evenodd" d="M1354.41,1635.28l-207.08,22.37c-32.68,3.53-62.03-20.1-65.56-52.77l-9.19-85.05 c-3.53-32.68,20.1-62.03,52.77-65.56l207.08-22.37c32.68-3.53,62.03,20.1,65.56,52.77l9.19,85.05 C1410.71,1602.4,1387.08,1631.75,1354.41,1635.28z" fill-rule="evenodd"/></g><g><g id="change5_1"><path fill="#e51239" d="M2114.05,2038.64l-1.5-13.85l-18.23,1.97c-4.05,0.44-7.76-0.11-11.11-1.66c-3.36-1.54-6.11-3.82-8.24-6.83 c-2.14-3.01-3.41-6.4-3.81-10.17l-0.96-8.9l21.62-2.34l0.89,8.2l17.38-1.88l-1.94-17.94l-18.09,1.95 c-3.96,0.43-7.61-0.11-10.97-1.6c-3.36-1.5-6.12-3.75-8.31-6.75c-2.18-3-3.49-6.53-3.93-10.58l-2.17-20.06 c-0.43-3.96,0.08-7.61,1.53-10.96c1.45-3.35,3.65-6.11,6.61-8.29c2.96-2.18,6.46-3.49,10.51-3.92l18.23-1.97l-1.5-13.85 l21.62-2.34l1.5,13.85l18.09-1.95c4.05-0.44,7.75,0.09,11.11,1.59c3.35,1.49,6.1,3.72,8.23,6.69c2.13,2.96,3.41,6.42,3.84,10.38 l0.98,9.04l-21.62,2.34l-0.9-8.34l-17.38,1.88l2.05,18.93l18.09-1.95c4.05-0.44,7.75,0.11,11.11,1.66 c3.36,1.54,6.1,3.75,8.22,6.62c2.12,2.87,3.37,6.09,3.76,9.67l2.17,20.06c0.41,3.77-0.13,7.35-1.63,10.75 c-1.49,3.4-3.71,6.22-6.66,8.44c-2.95,2.23-6.41,3.55-10.36,3.98l-18.09,1.95l1.5,13.85L2114.05,2038.64z M2105.81,1963.63 l-2.05-18.93l-17.38,1.88l2.05,18.93L2105.81,1963.63z M2131.84,2000.84l17.38-1.88l-1.94-17.94l-17.38,1.88L2131.84,2000.84z"/></g></g><g><g id="change6_1"><path fill="#dcd115" d="M2230.1,2026.1l-1.5-13.85l-18.23,1.97c-4.05,0.44-7.76-0.11-11.11-1.66c-3.36-1.54-6.11-3.82-8.24-6.83 c-2.14-3.01-3.41-6.4-3.81-10.17l-0.96-8.9l21.62-2.34l0.89,8.2l17.38-1.88l-1.94-17.94l-18.09,1.95 c-3.96,0.43-7.61-0.11-10.97-1.6c-3.36-1.5-6.12-3.75-8.31-6.75c-2.18-3-3.49-6.53-3.93-10.58l-2.17-20.06 c-0.43-3.96,0.08-7.61,1.53-10.96c1.45-3.35,3.65-6.11,6.61-8.29c2.96-2.18,6.46-3.49,10.51-3.92l18.23-1.97l-1.5-13.85 l21.62-2.34l1.5,13.85l18.09-1.95c4.05-0.44,7.75,0.09,11.11,1.59c3.35,1.49,6.1,3.72,8.23,6.69c2.13,2.96,3.41,6.42,3.84,10.38 l0.98,9.04l-21.62,2.34l-0.9-8.34l-17.38,1.88l2.05,18.93l18.09-1.95c4.05-0.44,7.75,0.11,11.11,1.66 c3.36,1.54,6.1,3.75,8.22,6.62c2.12,2.87,3.37,6.09,3.76,9.67l2.17,20.06c0.41,3.77-0.13,7.35-1.63,10.75 c-1.49,3.4-3.71,6.22-6.66,8.44c-2.95,2.23-6.41,3.55-10.36,3.98l-18.09,1.95l1.5,13.85L2230.1,2026.1z M2221.85,1951.09 l-2.05-18.93l-17.38,1.88l2.05,18.93L2221.85,1951.09z M2247.89,1988.3l17.38-1.88l-1.94-17.94l-17.38,1.88L2247.89,1988.3z"/></g></g><g id="change7_1"><path fill="#7196d9" clip-rule="evenodd" d="M2250.23,1538.49l-456.69,49.34c-9.7,1.05-18.41-5.97-19.46-15.67l-1.53-14.18 c-1.05-9.7,5.97-18.41,15.67-19.46l456.69-49.34c9.7-1.05,18.41,5.97,19.46,15.67l1.53,14.18 C2266.94,1528.73,2259.93,1537.44,2250.23,1538.49z" fill-rule="evenodd"/></g><g id="change7_2"><path fill="#7196d9" clip-rule="evenodd" d="M2260.48,1633.4l-456.69,49.34c-9.7,1.05-18.41-5.97-19.46-15.67l-1.53-14.18 c-1.05-9.7,5.97-18.41,15.67-19.46l456.69-49.34c9.7-1.05,18.41,5.97,19.46,15.67l1.53,14.18 C2277.2,1623.64,2270.19,1632.36,2260.48,1633.4z" fill-rule="evenodd"/></g><g id="change7_3"><path fill="#7196d9" clip-rule="evenodd" d="M2121.72,1846.67l-961.46,103.88c-22.47,2.43-42.64-13.82-45.07-36.28v0 c-2.43-22.47,13.82-42.64,36.28-45.07l961.46-103.88c22.47-2.43,42.65,13.82,45.07,36.28v0 C2160.43,1824.07,2144.19,1844.25,2121.72,1846.67z" fill-rule="evenodd"/></g><g id="change8_2"><path fill="#5c81b6" clip-rule="evenodd" d="M1501.59,2068.93l-141.75,15.32c-7.49,0.81-14.21-4.61-15.02-12.09l-5.46-50.54 c-0.81-7.49,4.61-14.21,12.09-15.02l141.75-15.32c7.49-0.81,14.21,4.61,15.02,12.09l5.46,50.54 C1514.5,2061.4,1509.08,2068.12,1501.59,2068.93z" fill-rule="evenodd"/></g><g><g fill="#5c81b6" clip-rule="evenodd" id="change8_1" fill-rule="evenodd"><path d="M1294.51,2091.31l-141.75,15.32c-7.49,0.81-14.21-4.61-15.02-12.09l-5.46-50.54 c-0.81-7.49,4.61-14.21,12.09-15.02l141.75-15.32c7.49-0.81,14.21,4.61,15.02,12.09l5.46,50.54 C1307.41,2083.77,1302,2090.5,1294.51,2091.31z"/><path d="M1708.68,2046.56l-141.75,15.32c-7.49,0.81-14.22-4.61-15.02-12.09l-5.46-50.54 c-0.81-7.49,4.61-14.21,12.09-15.02l141.75-15.32c7.49-0.81,14.21,4.61,15.02,12.09l5.46,50.54 C1721.58,2039.02,1716.17,2045.75,1708.68,2046.56z"/></g></g><g id="change9_4"><path fill="#414042" d="M1165.36 1449.84H1171.6399999999999V1530.4299999999998H1165.36z" transform="matrix(0.9942 -0.1074 0.1074 0.9942 -153.3114 134.1451)"/></g><g id="change9_2"><path fill="#414042" d="M1330.28 1513.21H1336.56V1637.19H1330.28z" transform="matrix(0.9942 -0.1074 0.1074 0.9942 -161.4946 152.3526)"/></g><g id="change9_3"><path fill="#414042" d="M1079.98 1576.46H1407.29V1582.74H1079.98z" transform="matrix(0.9942 -0.1074 0.1074 0.9942 -162.4865 142.7339)"/></g><g id="change9_1"><path fill="#414042" d="M1073.89 1520.07H1401.2V1526.35H1073.89z" transform="matrix(0.9942 -0.1074 0.1074 0.9942 -156.4643 141.7531)"/></g></g></g></svg>