<?xml version="1.0" encoding="UTF-8" standalone="no"?><svg xmlns="http://www.w3.org/2000/svg" xmlns:xlink="http://www.w3.org/1999/xlink" contentScriptType="text/ecmascript" fill="#000000" width="1131" zoomAndPan="magnify" contentStyleType="text/css" viewBox="0.0 0.0 1131.4 2000.0" height="2000" preserveAspectRatio="xMidYMid meet" version="1"><g><g><path fill="#54a648" d="M486.17,220.64c1.2,22.61,8.87,31.44,19.22,48.46c0.35,0.58,0.63,1.19,0.84,1.8l18.9,54.53 c0.65,1.87-0.08,3.95-1.76,4.99c-3.04,1.86-6.81,2.21-11.31,1.04c-1.03-0.28-1.91-0.94-2.48-1.84l-6.99-11.15 c-2.34-16.81-6.51-33.03-12.5-48.66l-11.27-10.67c-0.95-0.91-2.41-1.01-3.48-0.24c-2.85,2.02-4.53,5.21-5.03,9.55 c-2.08,18.14-9.84,32.77-23.29,43.91c-1.44,1.2-3.58,1.01-4.78-0.43c-0.27-0.32-0.48-0.69-0.61-1.09l-6.03-17.34 c-0.62-1.83-0.56-3.82,0.16-5.59c2.32-5.75,3.2-13.01,2.64-21.77c-0.11-1.79,0.21-3.59,0.92-5.27c4.26-9.99,3.52-19.79-2.24-29.4 c-0.71-1.17-2.24-1.54-3.41-0.82c-0.55,0.34-0.95,0.88-1.11,1.5l-14.86,61.33c-4.08,6.07-5.57,12.56-4.47,19.46 c1.23,7.83,2,14.01,2.32,18.54c0.08,1.01-0.68,1.89-1.7,1.97c-0.13,0.01-0.25,0.01-0.38-0.01c-1.57-0.24-3.18-1.08-4.83-2.52 c-3.28,0.11-4.89,0.71-4.83,1.8c0.56,15.63-0.12,32.25-2.04,49.86c-0.07,0.75-0.74,1.29-1.51,1.2c-0.34-0.04-0.66-0.2-0.89-0.45 c-7.51-8.31-17.42-15.74-27.17-26.29c-11.29-12.17-20.16-20.64-26.61-25.41c-11.19-8.27-22.01-21.45-26.45-28.49 c-0.79-1.2-2.4-1.53-3.6-0.75c-0.65,0.43-1.08,1.13-1.16,1.9l-2.28,23.93c-0.14,1.6,0.75,3.1,2.2,3.72 c18.96,8.2,32.65,17.09,41.07,26.65c14.65,16.65,25.9,26.81,33.76,30.48c3.28,1.56,6.07,1.52,7.39,2.08c1.11,0.49,1.87,1.55,2,2.76 c2.69,24.74,8.12,49.26,16.3,73.55c0.6,1.73-0.33,3.62-2.06,4.21c-0.82,0.28-1.71,0.23-2.5-0.14 c-17.66-8.26-31.96-19.75-42.91-34.48c-1.32-1.77-2.94-3.31-4.79-4.55c-14.06-9.54-25.8-20.99-35.2-34.36 c-1.11-1.57-0.74-3.74,0.83-4.84c0.14-0.1,0.29-0.19,0.45-0.27c8.02-4.05,16.62-4.54,25.81-1.48c1.03,0.33,2.13-0.23,2.46-1.26 c0.19-0.59,0.09-1.23-0.27-1.73c-10.51-14.3-28.49-22.25-45.35-30.92c-0.65-0.33-1.44-0.07-1.77,0.58 c-0.09,0.18-0.14,0.38-0.14,0.58c-0.76,35.92,18.38,70.56,44.59,93.89c1.84,1.62,6.11,3.37,12.82,5.23 c2.57,0.71,4.99,1.83,7.19,3.32c17.42,11.67,34.44,23.97,57.37,26.33c2.76,0.28,5.27-1.21,5.62-3.33c0.05-0.29,0.05-0.58,0.01-0.87 c-0.13-0.99,0.52-2.14,1.96-3.48c0.99-0.92,2.52-0.87,3.42,0.1c0.01,0.01,0.01,0.01,0.02,0.02c3.94,4.21,7.23,5.83,9.87,4.87 c2.29-0.85,7.84-2.37,16.66-4.55c1.45-0.37,2.82-0.99,4.04-1.84c9.24-6.47,17.85-10.75,25.81-12.82c0.91-0.26,1.73-0.79,2.36-1.52 l22.45-26.33c0.69-0.82,1.27-1.74,1.72-2.72c7.83-17.26,13.64-34.98,17.42-53.18c0.55-2.66,2.96-4.53,5.67-4.39 c7.96,0.43,16.81-0.08,26.53-1.52c16.97-2.56,34.78-5.21,53.46-7.95c1.51-0.21,3-0.57,4.43-1.08c4.55-1.6,9.55-3.09,14.98-4.47 c2.77-0.7,4.54-3.42,3.94-6.07c-0.17-0.77-0.54-1.48-1.06-2.08c-1.01-1.15-2.65-1.61-4.91-1.4c-31.16,2.66-63.55,7.46-97.16,14.38 c-0.93,0.2-1.84-0.41-2.03-1.37c-0.06-0.28-0.04-0.56,0.03-0.83c2.28-7.83-1.44-13.34-1.16-20.78 c1.24-32.92-13.02-68.92-29.28-97.2c-6.43-11.27-15.06-19.1-25.97-24.65c-0.96-0.48-1-1.33-0.12-2.56 c10.79-10.07,21.53-20.22,32.24-30.44c11.83-11.29,23.11-20.7,33.84-28.21c36.89-25.86,76.79-47.6,119.7-65.2 c15.47-6.34,31.28-11.68,47.42-16.02c5.59-1.51,11.4,1.59,13.26,7.07c2.32,6.82,3.84,15.38,4.55,25.69 c0.69,10.17,0.6,34.13-0.28,71.87c-0.91,38.14-8.63,77.12-23.17,116.94c-4.02,11.05-9.84,23.13-17.46,36.24 c-16.65,7.75-30.66,15.09-42.03,22.01c-41.71,25.37-81.58,64.52-104.15,109.07c-3.12,6.15-6.43,11.96-9.95,17.42 c-15.22,3.88-32.64,5.83-47.1,0.2c-4.23-1.65-8.76-0.83-13.58,2.48c-11.35,7.83-22.6,11.61-33.76,11.35 c-1.33-0.03-2.66,0.32-3.84,1l-10.39,5.99c-0.99,0.57-2.12,0.81-3.24,0.68c-14.44-1.49-28.78-3.57-43.03-6.23 c-22.61-4.23-45.98-2.6-69.8-6.43c-24.24-3.92-48.87-8.22-73.91-12.9c7.3-4.87,14.96-8.4,22.97-10.59 c15.1-4.13,22.87-6.27,23.29-6.43c8.18-3.28,17.78-6.17,28.81-8.67c2.52-0.57,4.09-3.08,3.52-5.6c-0.22-0.98-0.76-1.86-1.52-2.51 l-8.39-7.15c-0.53-0.42-1-0.92-1.4-1.48c-10.71-14.12-18.38-33.08-23.01-56.89c-2.64-13.5-10.52-34.86-23.65-64.08 c-0.96-2.08-2.82-3.82-5.59-5.23c-0.85-0.42-1.88-0.09-2.3,0.74c-0.12,0.23-0.18,0.48-0.18,0.74c-0.13,9.72-0.08,15.16,0.16,16.3 c6.5,29.43,16.01,55.91,28.53,79.42c0.96,1.86,0.24,4.15-1.63,5.12c-1.12,0.58-2.46,0.57-3.57-0.04l-65.96-37.16 c-1.96-1.1-3.63-2.69-4.83-4.63c-1.2-1.86-2.89-6.49-5.07-13.86c-4.74-15.98-14.08-37.77-28.01-65.36 c-1.94-3.84-4.65-5.74-8.11-5.71c-3.82,0.03-6.85,3.25-6.76,7.2c0.02,1.05,0.27,2.09,0.73,3.03c5.49,11.45,8.91,19.43,10.27,23.93 c3.92,13.14,10.23,20.34,19.3,34.4c2.16,3.36,3.38,6.69,3.68,9.99c0.11,0.97-0.6,1.83-1.58,1.94c-0.28,0.03-0.55,0-0.81-0.1 c-30.52-11.43-54.65-27.09-69.56-58.77c-4.07-8.63-15.02-24.61-23.05-25.01c-2.75-0.13-5.1,1.99-5.23,4.75 c-0.04,0.94,0.17,1.86,0.63,2.68l17.38,31.32c0.54,0.94,0.22,2.13-0.72,2.67c-0.58,0.33-1.29,0.35-1.88,0.04 c-9.45-4.74-20.55-9.71-33.28-14.9c-11.77-4.79-23.2-11.64-34.28-20.54c-1.49-1.23-6.94-2.26-16.34-3.12 c-1.35-0.14-2.62,0.63-3.12,1.88c-2.56,6.45-0.96,10.89,4.79,13.34c15.14,6.51,28.09,10.59,44.07,20.06 c15,8.87,29.91,16.35,44.75,22.45c1.09,0.45,2,1.57,2.72,3.36c0.54,1.28-0.06,2.76-1.35,3.3c-0.22,0.09-0.45,0.15-0.69,0.18 l-34.96,4.04c-4.4,0.53-7.55,4.52-7.02,8.93c0.02,0.15,0.04,0.31,0.07,0.46l0.04,0.12c0.85,4.59,5.17,7.69,9.79,7.03 c16.99-2.34,34.56-4.62,52.7-6.83c7.31-0.92,16.82-0.44,22.73,2.56c15.53,7.96,35.78,17.95,60.77,29.96 c1.72,0.84,2.44,2.92,1.6,4.65c-0.44,0.89-1.24,1.56-2.19,1.82l-90.01,24.01c-3.17,0.86-5.05,4.13-4.18,7.31 c0.55,2.01,2.1,3.59,4.1,4.16c6.53,1.84,13.36,1.6,20.5-0.72c19.92-6.47,39.01-11.48,57.25-15.02c15.42-3,31.36-12.82,47.06-7.51 c16.03,5.41,31.47,12.7,46.3,21.89c1.28,0.78,1.68,2.46,0.9,3.74c-0.3,0.5-0.76,0.88-1.3,1.1c-10.28,4.18-19.43,7.24-27.45,9.19 c-19.2,4.71-37.21,12.13-54.02,22.25c-5.73,0.05-11.75-0.75-18.06-2.4c-39.87-10.49-63.03-16.29-69.48-17.38 c-1.9-0.32-3.75-0.94-5.47-1.84c-9.7-5.09-18.3-11.77-25.81-20.06c-8.02-8.82-15.57-17.11-22.65-24.89 c-10.19-12.54-20.06-24.33-28.89-37.95c-10.52-16.19-22.17-34.29-34.96-54.29c-8.02-12.6-13.44-23.78-16.26-33.56 c-0.57-1.98,0.12-4.1,1.76-5.35c3.81-2.9,8.91-4.97,15.3-6.19c57.82-10.97,117.18-11.35,178.07-1.12 c21.17,3.54,40.52,9.24,58.05,17.1c0.54,0.26,1.18,0.01,1.44-0.55c0.1-0.22,0.13-0.46,0.08-0.69c-5.33-25.17-8.15-51.03-8.47-77.59 c-0.21-16.49,2.22-41.98,7.31-76.47c1.7-11.64,5.49-27.01,11.35-46.1c11.15-36.28,16.54-59.45,31.6-83.5 c2.41-3.83,7.47-4.97,11.3-2.56c0.08,0.05,0.17,0.11,0.25,0.16c12.36,8.44,22.99,17.01,31.88,25.69 c45.97,44.8,76.97,77.72,93.01,98.76C450.19,148.3,467.88,179.89,486.17,220.64z M339.99,111.89c-3.09-8.36-4.62-16.37-4.59-24.01 c0-1.32-0.19-2.63-0.56-3.88l-12.19-40.43c-0.69-2.33-1.73-4.54-3.08-6.55l-6.51-9.71c-0.54-0.78-1.61-0.98-2.39-0.45 c-0.39,0.27-0.66,0.69-0.73,1.16l-2.32,17.78c-0.05,0.53-0.01,1.04,0.12,1.52c4.31,14.82,5.35,29.92,10.79,46.54 c9.83,30.02,15.86,48.38,18.1,55.09c0.45,1.31,0.52,2.46,0.2,3.48c-0.47,1.59-2.16,2.48-3.76,2c-0.25-0.08-0.49-0.18-0.71-0.32 c-15.26-9.55-30.44-30.08-42.59-44.67c-2.21-2.64-4.82-4-7.83-4.08c-3.09-0.04-5.56,2.82-5.51,6.39c0.01,0.42,0.05,0.83,0.12,1.24 c0.99,5.65,3.62,10.67,7.91,15.06c8.2,8.42,25.66,24.88,52.38,49.38c1.1,1,1.93,2.26,2.4,3.68l8.55,24.57 c1.08,3.13,4.48,4.8,7.61,3.72c0.01,0,0.01,0,0.02-0.01l2.24-0.76c3.5-1.22,5.35-5.04,4.14-8.54c-0.09-0.25-0.19-0.49-0.3-0.73 c-6.31-13.21-10.08-24.37-11.31-33.48c-1.89-14.12-1.7-23.49,0.56-28.13c8.92-18.16,16.78-37.79,23.57-58.89 c1.14-3.54-0.33-7.41-3.56-9.31l-0.24-0.12c-3.07-1.79-7-0.77-8.78,2.28c-0.06,0.1-0.12,0.21-0.17,0.31 c-4.79,9.27-9.07,19.92-12.82,31.96c-0.96,3.12-3.68,6.47-6.03,8.55c-0.68,0.63-1.75,0.56-2.39-0.14 C340.18,112.27,340.07,112.09,339.99,111.89z M668.99,182.73c22.19-20.91,39.81-45.08,52.86-72.51c1.76-3.7,2.18-7.63,1.28-11.79 c-0.16-0.73-0.89-1.2-1.62-1.04c-0.25,0.05-0.48,0.18-0.66,0.36l-22.77,21.85c-0.58,0.56-1.13,1.17-1.64,1.84l-16.82,22.45 c-1.01,1.36-1.89,2.79-2.64,4.27c-7.35,14.65-16.45,28.22-27.29,40.71c-0.46,0.53-1.27,0.59-1.8,0.13c-0.24-0.21-0.4-0.5-0.43-0.81 c-1.84-15.47-0.63-30.72,3.64-45.75c0.91-3.16-0.93-6.46-4.12-7.37c-0.43-0.12-0.87-0.2-1.32-0.22l-3.44-0.2 c-4.52-0.25-8.38,3.21-8.63,7.73c0,0.01,0,0.02,0,0.02l-4.04,73.51c-0.18,3.29-1.43,6.45-3.56,8.99 c-13,15.53-26.45,36.1-40.35,61.73c-1.07,1.98-3.55,2.71-5.53,1.64c-1.17-0.63-1.95-1.8-2.11-3.12l-10.71-96.92 c-0.29-2.7-2.73-4.65-5.45-4.36c-0.17,0.02-0.34,0.05-0.51,0.08l-0.2,0.04c-3.8,0.75-6.5,4.12-6.35,7.95l2.6,75.63 c0.08,2.39,0.43,4.76,1.04,7.07c5.11,18.94,10.23,32.52-1.84,49.82c-0.58,0.82-1.08,1.71-1.48,2.64 c-3.49,8.23-5.19,16.99-5.11,26.29c0.03,0.92,0.79,1.66,1.69,1.65c0.34-0.01,0.67-0.12,0.94-0.33 c12.98-9.55,20.34-25.49,27.81-41.23c1.09-2.29,6.38-7.92,15.86-16.9c1.68-1.6,3.74-2.74,5.99-3.32 c38.3-9.91,71.01-17.51,98.12-22.81c4.93-0.96,7.86-3.69,8.79-8.19c0.68-3.26-1.39-6.46-4.62-7.14c-0.41-0.09-0.83-0.13-1.25-0.13 c-31.48-0.04-66.12,17.82-90.93,18.38c-1.28,0.04-2.35-0.97-2.38-2.25c-0.01-0.37,0.07-0.73,0.23-1.07 c4.51-9.51,13.78-17.9,19.14-25.93c12.59-18.86,21.81-32.68,44.19-40.95c2.69-1.01,16.77-6.31,42.23-15.9 c4.47-1.7,7.5-5.89,7.71-10.67l0.12-1.12c0.33-2.85-1.71-5.43-4.56-5.76c-0.76-0.09-1.54-0.01-2.27,0.24l-45.9,15.9 c-0.97,0.37-2.05-0.12-2.42-1.09C668.21,184.07,668.41,183.25,668.99,182.73z M427,156.46c1.72-2.64,0.98-6.18-1.67-7.91 l-4.42-2.88c-2.64-1.72-6.18-0.98-7.91,1.67v0l-36.65,56.23c-1.72,2.64-0.98,6.18,1.67,7.91l4.42,2.88 c2.64,1.72,6.18,0.98,7.91-1.67v0L427,156.46z M324.57,240.3c1.82-2.63,1.17-6.24-1.46-8.06c0,0-0.01-0.01-0.01-0.01l-28.53-19.74 c-0.21-0.16-0.41-0.35-0.6-0.56c-6.34-7.16-13.09-11.41-20.26-12.74c-2.47-0.48-4.86,1.14-5.33,3.61 c-0.19,0.97-0.05,1.97,0.38,2.86c1.6,3.22,3.12,5.58,4.55,7.07c7.48,7.67,20.67,18.98,39.55,33.92c2.47,1.93,6.02,1.5,7.94-0.95 c0.07-0.09,0.14-0.19,0.21-0.29L324.57,240.3z M393.09,322.32c1.79,0.76,3.85-0.07,4.61-1.85c0.3-0.7,0.36-1.48,0.18-2.22 l-5.87-24.49c-0.05-0.19-0.07-0.38-0.04-0.56c1.88-17.5,8.15-30.28,14.66-44.71c3.88-8.63,4.35-17.06-0.52-24.37 c-0.53-0.84-1.64-1.09-2.48-0.56c-0.51,0.32-0.82,0.87-0.83,1.47l-0.56,9.87c-0.08,1.35-0.4,2.66-0.96,3.88 c-8.31,18.62-14.9,31.76-17.42,50.02c-0.27,1.95-2.06,3.31-4,3.04c-0.77-0.1-1.48-0.46-2.03-1L332,245.05 c-0.24-0.26-0.65-0.27-0.92-0.02c-0.07,0.06-0.12,0.14-0.16,0.22l-7.35,17.06c-2.12,4.86-0.22,10.54,4.39,13.18 c19.66,11.27,36.48,24.41,50.46,39.43c1.29,1.4,2.89,2.5,4.67,3.24L393.09,322.32z M378.18,259.84c0.62,0.75,1.72,0.86,2.47,0.24 c0.55-0.45,0.77-1.2,0.56-1.88l-6.59-24.77c-1.37-5.07-6.59-8.07-11.66-6.7c-0.2,0.05-0.4,0.12-0.6,0.19l-14.78,5.15 c-1.46,0.5-2.24,2.1-1.73,3.56c0.28,0.8,0.9,1.43,1.69,1.72C358.25,241.21,368.46,248.7,378.18,259.84z"/></g><g><path fill="#8dd268" d="M339.99,111.89c0.34,0.88,1.33,1.33,2.19,1c0.19-0.07,0.37-0.18,0.52-0.32c2.36-2.08,5.07-5.43,6.03-8.55 c3.76-12.04,8.03-22.69,12.82-31.96c1.6-3.14,5.47-4.38,8.63-2.77c0.11,0.05,0.21,0.11,0.32,0.17l0.24,0.12 c3.22,1.9,4.7,5.77,3.56,9.31c-6.79,21.09-14.65,40.72-23.57,58.89c-2.26,4.63-2.45,14.01-0.56,28.13 c1.23,9.11,4.99,20.27,11.31,33.48c1.62,3.34,0.23,7.35-3.11,8.97c-0.24,0.11-0.48,0.21-0.73,0.3l-2.24,0.76 c-3.13,1.08-6.54-0.57-7.63-3.7c0-0.01,0-0.01-0.01-0.02l-8.55-24.57c-0.47-1.41-1.3-2.68-2.4-3.68 c-26.71-24.5-44.17-40.96-52.38-49.38c-4.29-4.39-6.93-9.42-7.91-15.06c-0.64-3.51,1.29-6.88,4.32-7.53 c0.35-0.08,0.71-0.11,1.08-0.11c3.01,0.08,5.62,1.44,7.83,4.08c12.15,14.58,27.33,35.12,42.59,44.67c1.43,0.87,3.29,0.44,4.16-0.97 c0.14-0.22,0.24-0.46,0.31-0.7c0.32-1.01,0.25-2.17-0.2-3.48c-2.24-6.71-8.27-25.08-18.1-55.09c-5.43-16.62-6.47-31.72-10.79-46.54 c-0.13-0.48-0.17-0.99-0.12-1.52l2.32-17.78c0.14-0.94,1.01-1.59,1.95-1.45c0.47,0.07,0.89,0.33,1.17,0.73l6.51,9.71 c1.35,2.01,2.39,4.22,3.08,6.55l12.19,40.43c0.37,1.25,0.56,2.55,0.56,3.88C335.37,95.53,336.9,103.53,339.99,111.89z"/></g><g><path fill="#8dd268" d="M668.99,182.73c-0.77,0.69-0.84,1.88-0.15,2.65c0.52,0.58,1.34,0.78,2.07,0.5l45.9-15.9 c2.72-0.92,5.67,0.53,6.59,3.24c0.25,0.73,0.33,1.5,0.24,2.27l-0.12,1.12c-0.21,4.78-3.24,8.97-7.71,10.67 c-25.46,9.59-39.54,14.89-42.23,15.9c-22.37,8.27-31.6,22.09-44.19,40.95c-5.35,8.03-14.62,16.42-19.14,25.93 c-0.55,1.15-0.06,2.54,1.09,3.09c0.33,0.16,0.7,0.24,1.07,0.23c24.81-0.56,59.45-18.42,90.93-18.38c3.31-0.01,6,2.68,6,6.01 c0,0.42-0.04,0.84-0.13,1.26c-0.93,4.5-3.86,7.23-8.79,8.19c-27.11,5.3-59.82,12.9-98.12,22.81c-2.25,0.58-4.32,1.72-5.99,3.32 c-9.48,8.98-14.77,14.61-15.86,16.9c-7.47,15.74-14.82,31.68-27.81,41.23c-0.72,0.55-1.75,0.39-2.3-0.35 c-0.21-0.28-0.32-0.62-0.34-0.97c-0.08-9.3,1.62-18.06,5.11-26.29c0.4-0.93,0.89-1.81,1.48-2.64c12.07-17.3,6.95-30.88,1.84-49.82 c-0.61-2.31-0.96-4.68-1.04-7.07l-2.6-75.63c-0.14-3.83,2.55-7.2,6.35-7.95l0.2-0.04c2.68-0.57,5.31,1.12,5.87,3.77 c0.04,0.17,0.06,0.33,0.08,0.5l10.71,96.92c0.26,2.24,2.28,3.84,4.51,3.58c1.32-0.15,2.48-0.94,3.12-2.11 c13.9-25.62,27.35-46.2,40.35-61.73c2.13-2.54,3.37-5.7,3.56-8.99l4.04-73.51c0.24-4.52,4.09-7.99,8.61-7.75c0.01,0,0.02,0,0.02,0 l3.44,0.2c3.3,0.19,5.84,3,5.65,6.28c-0.02,0.44-0.1,0.88-0.22,1.31c-4.26,15.02-5.47,30.27-3.64,45.75 c0.09,0.7,0.72,1.2,1.42,1.11c0.32-0.04,0.61-0.19,0.81-0.43c10.84-12.49,19.94-26.06,27.29-40.71c0.74-1.49,1.63-2.92,2.64-4.27 l16.82-22.45c0.51-0.66,1.05-1.28,1.64-1.84l22.77-21.85c0.54-0.52,1.4-0.52,1.92,0.02c0.18,0.18,0.3,0.41,0.36,0.66 c0.91,4.15,0.48,8.08-1.28,11.79C708.8,137.65,691.18,161.82,668.99,182.73z"/></g><g><path fill="#8dd268" d="M420.91,145.67l4.42,2.88c2.64,1.72,3.39,5.26,1.67,7.91l-36.65,56.23c-1.72,2.64-5.26,3.39-7.91,1.67 l-4.42-2.88c-2.64-1.72-3.39-5.26-1.67-7.91l36.65-56.23C414.73,144.7,418.27,143.95,420.91,145.67z"/></g><g><path fill="#8dd268" d="M324.57,240.3l-3.56,5.11c-1.75,2.57-5.27,3.22-7.86,1.45c-0.1-0.07-0.2-0.14-0.29-0.21 c-18.88-14.94-32.07-26.25-39.55-33.92c-1.44-1.49-2.96-3.85-4.55-7.07c-1.1-2.26-0.17-4.99,2.09-6.09 c0.89-0.43,1.89-0.57,2.86-0.38c7.17,1.33,13.92,5.58,20.26,12.74c0.19,0.21,0.39,0.4,0.6,0.56l28.53,19.74 c2.64,1.81,3.3,5.42,1.49,8.06C324.57,240.29,324.57,240.3,324.57,240.3z"/></g><g><path fill="#8dd268" d="M490.05,219.96c-0.88,1.23-0.84,2.08,0.12,2.56c10.91,5.55,19.54,13.38,25.97,24.65 c16.26,28.29,30.52,64.28,29.28,97.2c-0.28,7.43,3.44,12.94,1.16,20.78c-0.26,0.93,0.27,1.91,1.18,2.17 c0.26,0.08,0.54,0.09,0.81,0.03c33.61-6.93,66-11.72,97.16-14.38c2.26-0.21,3.9,0.25,4.91,1.4c1.81,2.04,1.5,5.18-0.68,7.02 c-0.64,0.54-1.39,0.92-2.19,1.13c-5.43,1.38-10.43,2.88-14.98,4.47c-1.43,0.5-2.92,0.87-4.43,1.08 c-18.67,2.74-36.49,5.39-53.46,7.95c-9.72,1.44-18.56,1.94-26.53,1.52c-2.72-0.13-5.12,1.73-5.67,4.39 c-3.78,18.19-9.59,35.92-17.42,53.18c-0.45,0.98-1.03,1.9-1.72,2.72l-22.45,26.33c-0.63,0.73-1.45,1.26-2.36,1.52 c-7.96,2.08-16.57,6.35-25.81,12.82c-1.21,0.85-2.58,1.47-4.04,1.84c-8.82,2.18-14.37,3.7-16.66,4.55 c-2.64,0.96-5.93-0.67-9.87-4.87c-0.89-0.98-2.42-1.04-3.42-0.14c-0.01,0.01-0.01,0.01-0.02,0.02c-1.44,1.33-2.09,2.49-1.96,3.48 c0.28,2.13-1.74,4.02-4.51,4.21c-0.37,0.03-0.75,0.02-1.13-0.02c-22.93-2.36-39.95-14.66-57.37-26.33c-2.2-1.48-4.63-2.6-7.19-3.32 c-6.71-1.86-10.99-3.61-12.82-5.23c-26.21-23.33-45.35-57.97-44.59-93.89c0.01-0.73,0.61-1.31,1.33-1.3c0.2,0,0.4,0.05,0.58,0.14 c16.86,8.67,34.84,16.62,45.35,30.92c0.63,0.88,0.42,2.1-0.46,2.73c-0.5,0.36-1.15,0.46-1.73,0.27 c-9.19-3.06-17.79-2.57-25.81,1.48c-1.72,0.86-2.41,2.95-1.55,4.67c0.08,0.16,0.17,0.31,0.27,0.45 c9.4,13.37,21.13,24.82,35.2,34.36c1.85,1.24,3.47,2.78,4.79,4.55c10.95,14.73,25.25,26.22,42.91,34.48 c1.66,0.78,3.63,0.08,4.42-1.58c0.37-0.78,0.42-1.68,0.14-2.5c-8.18-24.29-13.61-48.81-16.3-73.55c-0.12-1.21-0.89-2.26-2-2.76 c-1.32-0.56-4.12-0.52-7.39-2.08c-7.86-3.68-19.11-13.84-33.76-30.48c-8.42-9.56-22.11-18.44-41.07-26.65 c-1.45-0.62-2.34-2.11-2.2-3.72l2.28-23.93c0.15-1.43,1.42-2.46,2.85-2.32c0.78,0.08,1.48,0.51,1.9,1.16 c4.43,7.03,15.26,20.22,26.45,28.49c6.45,4.77,15.32,13.24,26.61,25.41c9.75,10.55,19.66,17.98,27.17,26.29 c0.53,0.56,1.41,0.61,1.96,0.11c0.25-0.22,0.4-0.53,0.43-0.86c1.92-17.61,2.6-34.23,2.04-49.86c-0.05-1.09,1.56-1.69,4.83-1.8 c8.23,8.12,13.34,17.21,15.34,27.25c0.8,4.08,0.68,8.78-0.36,14.1c-1.2,6.21-1.24,10.96-0.12,14.26 c3.22,9.46,4.61,18.78,4.16,27.97c-0.09,1.17-1.12,2.03-2.28,1.94c-0.65-0.05-1.23-0.4-1.59-0.94c-1.7-2.74-4.26-4.14-7.67-4.19 c-0.79-0.03-1.46,0.6-1.49,1.39c-0.01,0.37,0.12,0.73,0.37,1.01c5.27,6.03,12.46,10.27,14.22,18.02 c3.62,15.79,6.59,27.91,8.91,36.36c0.26,0.96,1.25,1.52,2.21,1.25c0.09-0.03,0.18-0.06,0.27-0.1c9.06-4.08,16.26-9.63,21.61-16.66 c3.33-4.34,2.62-9.2-2.12-14.58c-2.26-2.54-2.02-6.43,0.52-8.69c0.04-0.04,0.08-0.07,0.12-0.1c13.05-11.03,22.49-24.96,28.33-41.79 c0.52-1.43,1.47-2.66,2.72-3.52c7.43-4.9,16.63-7.38,27.61-7.43c2.49-0.02,4.55-1.97,4.71-4.47l0.72-13.5 c0.08-1.14,0.53-2.21,1.28-3.04c4.5-5.01,5.39-10.95,2.68-17.82c-0.28-0.72-1.02-1.16-1.8-1.08c-14.06,1.41-23.66,6.85-28.81,16.3 c-6.91,12.7-13.82,14.7-26.09,19.02c-1.1,0.38-1.99,1.21-2.48,2.28l-11.27,23.77c-2.18,4.58-7.64,6.55-12.21,4.38 c-0.22-0.11-0.44-0.22-0.66-0.35l-3.12-1.8c-3.36-1.95-4.49-6.26-2.54-9.61c0.24-0.4,0.51-0.78,0.82-1.13 c18.26-20.34,21.97-37.4,22.53-64.2c0.03-2.1,1.75-3.77,3.85-3.74c0.99,0.01,1.93,0.41,2.62,1.1l11.99,12.03 c1.62,1.6,4.21,1.59,5.8-0.01c0.25-0.25,0.46-0.53,0.63-0.83l10.27-17.82c0.55-0.9,1.73-1.19,2.64-0.64 c0.26,0.16,0.48,0.38,0.64,0.64c0.37,0.61,0.71,1.46,1,2.56l6.99,11.15c0.56,0.9,1.45,1.55,2.48,1.84 c4.5,1.17,8.27,0.83,11.31-1.04c1.68-1.05,2.41-3.12,1.76-4.99l-18.9-54.53c-0.21-0.61-0.49-1.21-0.84-1.8 c-10.35-17.02-18.02-25.85-19.22-48.46L490.05,219.96z"/></g><g><path fill="#8dd268" d="M393.09,322.32l-9.99-4.16c-1.79-0.74-3.38-1.84-4.67-3.24c-13.98-15.02-30.8-28.17-50.46-39.43 c-4.62-2.64-6.51-8.32-4.39-13.18l7.35-17.06c0.16-0.34,0.55-0.49,0.87-0.35c0.08,0.04,0.15,0.09,0.2,0.15l45.83,45.78 c1.39,1.39,3.64,1.38,5.03-0.01c0.55-0.55,0.9-1.26,1-2.03c2.52-18.26,9.11-31.4,17.42-50.02c0.55-1.21,0.88-2.53,0.96-3.88 l0.56-9.87c0.02-0.99,0.85-1.78,1.84-1.75c0.6,0.01,1.15,0.33,1.47,0.83c4.87,7.31,4.39,15.74,0.52,24.37 c-6.51,14.42-12.78,27.21-14.66,44.71c-0.03,0.18-0.01,0.37,0.04,0.56l5.87,24.49c0.46,1.89-0.69,3.79-2.57,4.26 C394.57,322.68,393.79,322.62,393.09,322.32z"/></g><g><path fill="#8dd268" d="M378.18,259.84c-9.72-11.13-19.94-18.63-30.64-22.49c-1.45-0.53-2.2-2.13-1.68-3.58 c0.29-0.79,0.92-1.42,1.72-1.69l14.78-5.15c4.97-1.7,10.38,0.94,12.08,5.91c0.07,0.2,0.13,0.4,0.19,0.6l6.59,24.77 c0.29,0.93-0.23,1.91-1.16,2.2C379.38,260.61,378.64,260.39,378.18,259.84z"/></g><g><path fill="#8dd268" d="M490.09,269.82l-5.39,11.23c-0.79,1.67-1.83,3.2-3.08,4.55c-6.55,7.22-10.48,12.21-11.79,14.98 c-6.66,14.17-13,25.38-19.02,33.64c-0.77,1.06-1.32,2.26-1.64,3.56l-1.68,6.75c-0.23,0.96-1.21,1.56-2.17,1.32 c-0.41-0.1-0.77-0.34-1.02-0.68l-9.15-12.15c-0.4-0.53-0.87-1-1.4-1.4c-8.79-6.58-14.53-12.9-17.22-18.98 c-2.48-5.59-2.09-11.99,1.16-19.18l14.86-61.33c0.34-1.33,1.69-2.13,3.01-1.79c0.63,0.16,1.17,0.56,1.5,1.11 c5.75,9.62,6.5,19.42,2.24,29.4c-0.71,1.68-1.02,3.49-0.92,5.27c0.56,8.76-0.32,16.02-2.64,21.77c-0.72,1.78-0.78,3.76-0.16,5.59 l6.03,17.34c0.6,1.78,2.53,2.73,4.31,2.13c0.4-0.13,0.77-0.34,1.09-0.61c13.45-11.13,21.21-25.77,23.29-43.91 c0.51-4.34,2.18-7.52,5.03-9.55c1.06-0.77,2.53-0.67,3.48,0.24L490.09,269.82z"/></g><g><path fill="#5bad6b" d="M502.59,318.49c-0.29-1.09-0.63-1.94-1-2.56c-0.55-0.9-1.73-1.19-2.64-0.64c-0.26,0.16-0.48,0.38-0.64,0.64 l-10.27,17.82c-1.12,1.95-3.62,2.61-5.59,1.48c-0.31-0.18-0.59-0.39-0.84-0.64l-11.99-12.03c-1.49-1.48-3.89-1.47-5.37,0.01 c-0.69,0.7-1.09,1.64-1.1,2.62c-0.56,26.81-4.28,43.87-22.53,64.2c-2.58,2.9-2.32,7.35,0.59,9.93c0.35,0.31,0.73,0.59,1.13,0.82 l3.12,1.8c4.37,2.53,9.98,1.02,12.52-3.37c0.12-0.22,0.24-0.44,0.35-0.66l11.27-23.77c0.49-1.07,1.38-1.89,2.48-2.28 c12.27-4.31,19.18-6.31,26.09-19.02c5.14-9.46,14.74-14.89,28.81-16.3c0.78-0.08,1.52,0.36,1.8,1.08 c2.72,6.87,1.82,12.81-2.68,17.82c-0.75,0.83-1.2,1.9-1.28,3.04l-0.72,13.5c-0.17,2.51-2.22,4.46-4.71,4.47 c-10.97,0.05-20.18,2.53-27.61,7.43c-1.25,0.86-2.2,2.09-2.72,3.52c-5.83,16.83-15.28,30.76-28.33,41.79 c-2.6,2.19-2.93,6.07-0.74,8.67c0.03,0.04,0.07,0.08,0.1,0.12c4.74,5.38,5.45,10.24,2.12,14.58c-5.35,7.03-12.56,12.58-21.61,16.66 c-0.9,0.41-1.97,0.01-2.38-0.89c-0.04-0.09-0.07-0.17-0.1-0.27c-2.32-8.44-5.29-20.56-8.91-36.36 c-1.76-7.75-8.95-11.99-14.22-18.02c-0.53-0.59-0.48-1.5,0.11-2.03c0.28-0.25,0.64-0.38,1.01-0.37c3.41,0.05,5.97,1.45,7.67,4.19 c0.65,0.97,1.96,1.24,2.93,0.59c0.54-0.36,0.89-0.95,0.94-1.59c0.45-9.19-0.93-18.51-4.16-27.97c-1.12-3.3-1.08-8.06,0.12-14.26 c1.04-5.33,1.16-10.03,0.36-14.1c-2-10.04-7.11-19.12-15.34-27.25c1.65,1.44,3.26,2.28,4.83,2.52c1.01,0.14,1.93-0.57,2.07-1.58 c0.02-0.13,0.02-0.25,0.01-0.38c-0.32-4.53-1.09-10.71-2.32-18.54c-1.09-6.9,0.4-13.38,4.47-19.46 c-3.25,7.19-3.64,13.58-1.16,19.18c2.69,6.07,8.43,12.4,17.22,18.98c0.53,0.4,1,0.87,1.4,1.4l9.15,12.15 c0.59,0.8,1.71,0.97,2.51,0.39c0.34-0.25,0.58-0.61,0.68-1.02l1.68-6.75c0.32-1.29,0.87-2.5,1.64-3.56 c6.02-8.26,12.36-19.47,19.02-33.64c1.31-2.77,5.23-7.76,11.79-14.98c1.24-1.35,2.28-2.89,3.08-4.55l5.39-11.23 C496.08,285.46,500.25,301.68,502.59,318.49z"/></g><g><path fill="#8dd268" d="M245.38,482.53c-6.55-0.13-14.42-2.09-23.61-5.87c16.81-10.12,34.81-17.54,54.02-22.25 c8.02-1.94,17.17-5.01,27.45-9.19c1.39-0.56,2.06-2.15,1.5-3.54c-0.22-0.54-0.6-0.99-1.1-1.3c-14.84-9.19-30.27-16.49-46.3-21.89 c-15.7-5.31-31.64,4.51-47.06,7.51c-18.24,3.54-37.33,8.55-57.25,15.02c-7.14,2.32-13.97,2.56-20.5,0.72 c-3.16-0.91-4.99-4.2-4.08-7.36c0.57-2,2.15-3.56,4.16-4.1l90.01-24.01c1.85-0.51,2.93-2.43,2.42-4.28 c-0.27-0.96-0.93-1.76-1.82-2.19c-24.98-12.01-45.24-22-60.77-29.96c-5.91-3-15.42-3.48-22.73-2.56 c-18.14,2.21-35.7,4.49-52.7,6.83c-4.62,0.66-8.94-2.44-9.79-7.03l-0.04-0.12c-0.78-4.37,2.12-8.54,6.49-9.32 c0.15-0.03,0.31-0.05,0.46-0.07l34.96-4.04c1.38-0.16,2.37-1.4,2.22-2.78c-0.03-0.24-0.09-0.47-0.18-0.69 c-0.72-1.78-1.63-2.9-2.72-3.36c-14.84-6.1-29.75-13.58-44.75-22.45c-15.98-9.47-28.93-13.54-44.07-20.06 c-5.75-2.45-7.35-6.9-4.79-13.34c0.49-1.25,1.76-2.01,3.12-1.88c9.4,0.85,14.85,1.89,16.34,3.12c11.08,8.9,22.51,15.74,34.28,20.54 c12.73,5.19,23.82,10.16,33.28,14.9c0.96,0.5,2.14,0.12,2.64-0.84c0.31-0.59,0.29-1.3-0.04-1.88l-17.38-31.32 c-1.35-2.41-0.49-5.45,1.91-6.8c0.82-0.46,1.75-0.68,2.68-0.63c8.03,0.4,18.98,16.38,23.05,25.01 c14.9,31.68,39.03,47.34,69.56,58.77c0.93,0.34,1.96-0.13,2.3-1.04c0.09-0.25,0.13-0.53,0.1-0.8c-0.29-3.3-1.52-6.63-3.68-9.99 c-9.07-14.06-15.38-21.25-19.3-34.4c-1.36-4.5-4.78-12.48-10.27-23.93c-1.71-3.55-0.32-7.82,3.1-9.52c0.91-0.45,1.91-0.69,2.93-0.7 c3.46-0.03,6.17,1.88,8.11,5.71c13.93,27.59,23.27,49.38,28.01,65.36c2.18,7.38,3.87,12,5.07,13.86c1.21,1.94,2.87,3.53,4.83,4.63 l65.96,37.16c1.84,1.01,4.15,0.33,5.15-1.51c0.61-1.11,0.62-2.45,0.04-3.57c-12.52-23.52-22.03-49.99-28.53-79.42 c-0.24-1.15-0.29-6.58-0.16-16.3c0-0.93,0.77-1.67,1.72-1.66c0.26,0,0.52,0.07,0.76,0.18c2.77,1.41,4.63,3.16,5.59,5.23 c13.13,29.22,21.02,50.58,23.65,64.08c4.63,23.81,12.31,42.78,23.01,56.89c0.4,0.56,0.87,1.05,1.4,1.48l8.39,7.15 c1.96,1.68,2.19,4.63,0.52,6.59c-0.65,0.76-1.53,1.3-2.51,1.52c-11.03,2.5-20.63,5.39-28.81,8.67c-0.43,0.16-8.19,2.3-23.29,6.43 C260.34,474.13,252.68,477.65,245.38,482.53z"/></g><g><path fill="#fbe735" d="M1063.04,422.76c8.75,11.99,24.81,27.45,28.41,41.67c0.58,2.34-0.53,4.77-2.68,5.87 c-10.2,5.25-19.08,7.94-26.65,8.07c-2.34-1.09-3.73-2-4.15-2.72c-11.61-20.38-25.6-37.62-41.95-51.74 c-24.05-20.78-43.19-36.76-69.56-48.22c-39.31-17.1-81.34-30.84-126.05-29.13c-67.28,2.64-123.97,20.82-176.79,65.44 c-17.55,14.86-34.11,32.89-49.66,54.09c-10.43,14.26-18.58,32-28.05,48.74l-26.61-1.56c-1.12-0.06-1.98-1.01-1.92-2.11 c0-0.02,0-0.03,0-0.05c0.51-7.78,2.72-16.02,6.63-24.73c3.52-5.46,6.83-11.27,9.95-17.42c22.57-44.55,62.45-83.7,104.15-109.07 c11.37-6.93,25.38-14.26,42.03-22.01c24.77-9.51,45.39-15.78,61.85-18.82c21.97-4.05,47.82-5.87,77.55-5.47 C927.48,314.81,1006.39,357.16,1063.04,422.76z"/></g><g><path fill="#fdf8b3" d="M1062.12,478.37l-1.56,1.96c-0.78,1.01-1.97,1.6-3.24,1.6l-17.46-0.2c-1.16-0.03-2.31,0.16-3.4,0.56 c-14.38,5.14-28.86,7.88-43.43,8.23c7.48-13.9,8.48-26.83,3-38.79c-4.58-9.96-10.31-17.83-17.18-23.61 c-28.13-23.73-79.34-53.02-121.01-46.86c-15.86,2.32-23.97,19.02-26.33,34.32c-4.69,30.74-6.45,61.82-5.27,93.25 c-5.33,2.82-11.51,3.18-18.54,1.08c-2.69-20.72-6.27-41.34-10.75-61.85c-3.65-16.78-8.03-31.23-13.14-43.35 c-6.37-14.97-18.52-20.46-36.48-16.46c-48.1,10.71-89.69,45.27-114.14,86.7c-3.36,5.73-5.37,11.76-6.03,18.1 c-0.16,1.6,0.09,3.22,0.72,4.71c3.04,7,7.04,12.53,12.03,16.58c-2.16,0.27-4.65,0.65-7.47,1.16c-2.5,0.45-4.99,0.57-7.47,0.36 c-18.86-1.73-38.54-2.06-59.05-1c9.47-16.74,17.62-34.48,28.05-48.74c15.55-21.2,32.11-39.23,49.66-54.09 c52.82-44.63,109.51-62.8,176.79-65.44c44.71-1.72,86.74,12.03,126.05,29.13c26.37,11.47,45.51,27.45,69.56,48.22 c16.35,14.12,30.34,31.36,41.95,51.74C1058.39,476.38,1059.78,477.28,1062.12,478.37z"/></g><g><path fill="#fbe735" d="M993.04,490.52c-22.43,5.78-46.56,9.67-72.39,11.67c-1.47,0.12-2.76-0.98-2.88-2.46 c-0.02-0.25,0-0.5,0.04-0.74c0.99-4.79,3.7-10.6,8.15-17.42c0.66-1.02,0.38-2.38-0.64-3.04c-0.32-0.21-0.7-0.33-1.08-0.35 l-1.48-0.08c-2.39-0.12-4.67,0.99-6.03,2.96l-13.46,19.5c-1.84,2.65-4.79,4.3-7.99,4.47l-69.04,3.8 c-1.17-31.43,0.59-62.51,5.27-93.25c2.36-15.3,10.47-32,26.33-34.32c41.67-6.15,92.89,23.13,121.01,46.86 c6.87,5.78,12.6,13.65,17.18,23.61C1001.53,463.68,1000.53,476.62,993.04,490.52z M896.39,444.2c0.89-2.07-0.06-4.46-2.12-5.36 l-0.22-0.1c-2.07-0.89-4.46,0.06-5.36,2.12l-14.98,34.61c-0.89,2.07,0.06,4.46,2.12,5.36l0.22,0.1c2.07,0.89,4.46-0.06,5.36-2.12 L896.39,444.2z"/></g><g><path fill="#fbe735" d="M807.71,509.9l-56.65,2.56c-0.4,0-0.79,0.05-1.16,0.16l-8.03,2.28c-0.9,0.24-1.84,0.36-2.8,0.36 l-99.16-0.92c-4.98-4.05-8.99-9.58-12.03-16.58c-0.63-1.49-0.88-3.11-0.72-4.71c0.67-6.34,2.68-12.37,6.03-18.1 c24.45-41.43,66.04-75.99,114.14-86.7c17.95-4,30.11,1.49,36.48,16.46c5.11,12.12,9.49,26.57,13.14,43.35 C801.43,468.56,805.02,489.17,807.71,509.9z M752.65,456.8c-0.97-1.78-3.2-2.44-4.98-1.48c0,0,0,0,0,0l-0.21,0.11 c-1.78,0.97-2.44,3.2-1.48,4.98c0,0,0,0,0,0l17.39,32.02c0.97,1.78,3.2,2.44,4.98,1.48l0.21-0.11c1.78-0.97,2.44-3.2,1.48-4.98 L752.65,456.8z M709.61,477.53c-0.76-1.03-2.21-1.26-3.24-0.5l-0.13,0.09c-1.03,0.76-1.26,2.21-0.5,3.24c0,0,0,0,0,0l18.92,25.86 c0.76,1.03,2.21,1.26,3.24,0.5l0.13-0.09c1.03-0.76,1.26-2.21,0.5-3.24c0,0,0,0,0,0L709.61,477.53z"/></g><g><path fill="#d9f0f8" d="M221.77,476.66c9.19,3.78,17.06,5.74,23.61,5.87c25.04,4.69,49.67,8.99,73.91,12.9 c23.81,3.84,47.18,2.2,69.8,6.43c14.25,2.66,28.59,4.74,43.03,6.23c1.12,0.13,2.25-0.11,3.24-0.68l10.39-5.99 c1.18-0.68,2.5-1.03,3.84-1c11.16,0.27,22.41-3.52,33.76-11.35c4.82-3.3,9.35-4.13,13.58-2.48c14.46,5.63,31.88,3.68,47.1-0.2 c-3.92,8.71-6.13,16.95-6.63,24.73c-0.09,1.1,0.75,2.06,1.87,2.15c0.02,0,0.03,0,0.05,0l26.61,1.56c20.51-1.07,40.19-0.73,59.05,1 c2.48,0.21,4.97,0.09,7.47-0.36c2.82-0.51,5.31-0.89,7.47-1.16l99.16,0.92c0.95,0,1.9-0.12,2.8-0.36l8.03-2.28 c0.37-0.11,0.76-0.16,1.16-0.16l56.65-2.56c7.03,2.1,13.21,1.74,18.54-1.08l69.04-3.8c3.2-0.17,6.15-1.83,7.99-4.47l13.46-19.5 c1.36-1.96,3.65-3.08,6.03-2.96l1.48,0.08c1.21,0.07,2.14,1.1,2.07,2.32c-0.02,0.39-0.14,0.76-0.35,1.08 c-4.45,6.82-7.17,12.62-8.15,17.42c-0.29,1.45,0.65,2.86,2.1,3.15c0.24,0.05,0.49,0.06,0.74,0.04c25.84-2,49.97-5.89,72.39-11.67 c14.57-0.35,29.05-3.09,43.43-8.23c1.08-0.4,2.23-0.59,3.4-0.56l17.46,0.2c1.26,0,2.46-0.59,3.24-1.6l1.56-1.96 c7.56-0.13,16.45-2.82,26.65-8.07c2.15-1.1,3.26-3.53,2.68-5.87c-3.6-14.22-19.66-29.68-28.41-41.67c2.08-0.4,3.82-1.5,5.23-3.32 c0.73-0.97,1.98-1.41,3.16-1.12c17.31,4.21,32.37,10.77,45.19,19.7c10.92,7.62,15.79,18.71,14.62,33.28 c-1.86,23.36-4.14,46.34-6.83,68.96c-0.32,2.77-0.44,7.15-0.36,13.14c0.08,4.9-0.2,9.28-0.84,13.14 c-10.44,43.76-15.67,87.93-15.7,132.52c-2.56,9.77-4.55,20.5-5.99,32.16c-5.91,48.1-12.03,96.19-18.34,144.27 c-12.12,92.08-21.88,168.38-29.28,228.93c-9.51,77.85-19.26,148.87-29.25,213.06c-31.35,25.81-59.77,54.99-85.26,87.53l4.59-34.36 l35.88-259.49l38.27-274.19l6.91-50.82c4.18-39.87,7.2-65.85,9.07-77.95c4.02-25.97,8.06-52,12.11-78.11l8.11-65l8.51-55.05 c0.34-2.14-1.14-4.14-3.3-4.47c-0.52-0.08-1.06-0.06-1.57,0.07c-17.31,4.5-34.41,7.51-51.3,9.03c-9.03,0.83-25.62,4.37-49.78,10.63 c-24.61-1.07-46.76,0.28-66.44,4.04c-11.08-1.92-21.45-0.67-31.12,3.76c-12.78-0.59-24.52,0.88-35.2,4.39l-13.18-0.48 c-13.05-3.57-27.19-2.62-42.43,2.84l-24.77-0.84c-19.58-0.64-39.89-0.25-60.93,1.16c-5.09,0.35-11.25,1.15-18.5,2.4 c-25.38-0.32-51.87-0.72-79.46-1.2c-4.71-0.08-13.5-1.69-26.37-4.83l-25.05-1.44c-3.29-0.19-6.29,1.86-7.35,4.99 c-7.19,21.25-10.2,42.95-9.03,65.08c-39.47,1.54-78.47,2.82-116.98,3.84c-18.4,0.51-51.66,3.25-99.76,8.23 c-5.47-21.33-10.71-35.84-25.57-47.34c-1.71-1.29-4-1.5-5.87-0.52c-20.54,10.55-22.09,31.52-25.69,56.13 c-27.13,4.55-47.1,7.15-79.7,15.86c-9.19,2.44-12.35,6.35-11.91,15.94c5.03,107.92,11.49,219.06,19.38,333.4 c0.03,0.4,0.24,0.91,0.64,1.52l17.74,276.35c-22.21-5.67-44.01-5.59-65.4,0.24c-8.23-117.02-16.78-232.72-22.93-351.1 c-2.05-39.34-5.53-87.83-10.43-145.47c-5.75-68-7.11-145.9-12.23-209.87c-3.57-44.43-6.09-83.43-7.55-117.02 c-0.19-4.23-0.15-8.07,0.12-11.51c0.23-2.65,1.31-5.14,3.08-7.11c5.89-6.47,7.99-12.03,6.31-16.66 c7.08,7.78,14.64,16.07,22.65,24.89c7.51,8.28,16.11,14.97,25.81,20.06c1.72,0.9,3.57,1.52,5.47,1.84 c6.45,1.09,29.6,6.89,69.48,17.38C210.03,475.91,216.04,476.71,221.77,476.66z M168.16,493.4 c68.92,40.43,141.95,66.28,221.53,37.83c0.69-0.24,1.05-0.99,0.81-1.68c-0.13-0.37-0.41-0.66-0.77-0.8 c-2.88-1.09-5.42-1.84-7.63-2.24c-10.47-1.81-36.82-5.34-79.07-10.59c-49.98-6.23-84.5-13.06-134.24-24.13 c-0.48-0.08-0.93,0.23-1.02,0.71C167.71,492.85,167.86,493.2,168.16,493.4z"/></g><g><path fill="#fdf8b3" d="M894.05,438.74l0.22,0.1c2.07,0.89,3.02,3.29,2.12,5.36l-14.98,34.61c-0.89,2.07-3.29,3.02-5.36,2.12 l-0.22-0.1c-2.07-0.89-3.02-3.29-2.12-5.36l14.98-34.61C889.59,438.8,891.99,437.85,894.05,438.74z"/></g><g><path fill="#fee59a" d="M747.45,455.43l0.21-0.11c1.78-0.97,4.02-0.31,4.98,1.48l17.39,32.02c0.97,1.78,0.31,4.02-1.48,4.98 l-0.21,0.11c-1.78,0.97-4.02,0.31-4.98-1.48l-17.39-32.02C745.01,458.63,745.67,456.4,747.45,455.43z"/></g><g><path fill="#fee59a" d="M706.24,477.13l0.13-0.09c1.03-0.76,2.48-0.53,3.24,0.5l18.92,25.86c0.76,1.03,0.53,2.48-0.5,3.24 l-0.13,0.09c-1.03,0.76-2.48,0.53-3.24-0.5l-18.92-25.86C704.98,479.33,705.21,477.88,706.24,477.13z"/></g><g><path fill="#54a648" d="M168.16,493.4c-0.4-0.27-0.52-0.81-0.25-1.22c0.19-0.29,0.54-0.44,0.89-0.38 c49.74,11.07,84.26,17.9,134.24,24.13c42.24,5.25,68.6,8.78,79.07,10.59c2.21,0.4,4.75,1.15,7.63,2.24 c0.68,0.26,1.02,1.02,0.76,1.7c-0.14,0.36-0.43,0.65-0.8,0.77C310.11,559.68,237.07,533.83,168.16,493.4z"/></g><g><path fill="#f8f5cc" d="M1054.33,565.11c-6.58-13.08-12.25-21.64-17.02-25.69c-16.58-14.06-42.71-2.12-62.76,8.27 c-24.98,12.94-49.49,26.08-73.51,39.39c-23.54,13.08-39.97,24.17-49.26,33.28c-17.9,17.54,26.21,30.2,36.56,33.28 c0.95,0.28,1.5,1.28,1.22,2.23c-0.1,0.33-0.28,0.62-0.54,0.84l-2.72,2.48c-19.98-1.49-39.18,0.72-57.61,6.63l-37.35-1.6l-17.82,2.2 c-2.58,0.85-3.96,1.15-4.12,0.88c-1.46-2.21-0.88-5.19,1.32-6.67c14.26-9.83,38.27-23.01,22.25-40.47c-0.69-0.74-1.44-1.41-2.24-2 c-5.06-3.68-11.11-6.98-18.14-9.91c-36.78-15.26-75.82-28.42-117.1-39.47c-30.44-8.15-53.9-10.59-62.6,26.01 c-5.86,24.48-5.83,49.17,0.08,74.07c-0.37,0.11-0.75,0.2-1.12,0.28c-14.44,1.6-28.21,0.93-41.31-2l0.68-3.52 c0.32-1.75,0.41-3.52,0.28-5.27c-3.54-40.4-1.21-81.01,6.99-121.81c12.86,3.14,21.65,4.75,26.37,4.83 c27.59,0.48,54.08,0.88,79.46,1.2c40.83,23.97,69.9,39.91,87.22,47.82c16.7,7.64,32.92,13.85,48.66,18.62 c4.73,1.41,9.8-0.55,12.35-4.75c9.47-15.66,3.28-50.06-1.6-67.24l13.18,0.48c-1.36,11.99-3.88,79.46,21.37,69.88 c8.95-3.41,24.77-12.57,47.46-27.49c14.25-9.4,35.56-27.59,63.92-54.57c24.16-6.26,40.75-9.8,49.78-10.63 c16.89-1.52,33.99-4.53,51.3-9.03c2.12-0.53,4.27,0.74,4.8,2.84c0.13,0.51,0.15,1.04,0.07,1.56L1054.33,565.11z"/></g><g><path fill="#f9e85b" d="M956.89,525.32c-28.37,26.98-49.67,45.17-63.92,54.57c-22.69,14.92-38.51,24.08-47.46,27.49 c-25.25,9.59-22.73-57.89-21.37-69.88c10.68-3.52,22.41-4.98,35.2-4.39l-6.35,31.88c-0.29,1.36,0.59,2.69,1.95,2.98 c0.62,0.13,1.27,0.02,1.81-0.3c8.83-5.39,13.86-9.35,20.46-19.5c4.15-6.37,8.58-12.64,13.26-18.82 C910.13,525.6,932.28,524.25,956.89,525.32z"/></g><g><path fill="#f8f5cc" d="M890.45,529.35c-4.69,6.18-9.11,12.45-13.26,18.82c-6.59,10.15-11.63,14.1-20.46,19.5 c-1.19,0.71-2.74,0.33-3.45-0.87c-0.33-0.54-0.43-1.19-0.3-1.81l6.35-31.88C868.99,528.69,879.37,527.43,890.45,529.35z"/></g><g><path fill="#f9e85b" d="M1054.33,565.11l-8.11,65c-51.48,15.5-102.74,24.77-153.78,27.81c-1.97,0.11-3.41,0.61-4.31,1.52 c-1.36-0.93-1.97-1.01-1.84-0.24l2.72-2.48c0.75-0.65,0.82-1.79,0.17-2.54c-0.22-0.26-0.52-0.44-0.84-0.54 c-10.35-3.08-54.45-15.74-36.56-33.28c9.3-9.11,25.72-20.2,49.26-33.28c24.02-13.32,48.53-26.45,73.51-39.39 c20.06-10.39,46.18-22.33,62.76-8.27C1042.08,543.47,1047.75,552.03,1054.33,565.11z M1005.42,572.54 c-1.2-3.16-14.04-1.2-28.69,4.36c0,0,0,0,0,0c-14.65,5.56-25.55,12.63-24.35,15.79c0,0,0,0,0,0c1.2,3.16,14.04,1.2,28.69-4.36 c0,0,0,0,0,0C995.72,582.76,1006.62,575.69,1005.42,572.54C1005.42,572.54,1005.42,572.54,1005.42,572.54z M898.92,617.77 l0.56,11.39c0.02,0.62,0.54,1.1,1.15,1.08c0.01,0,0.03,0,0.04,0l27.73-1.4c16.59-0.84,29.9-4.34,29.73-7.83c0,0,0,0,0,0l-0.08-1.04 c-0.14-3.48-13.71-5.63-30.31-4.8c-0.02,0-0.04,0-0.05,0l-27.73,1.4C899.34,616.61,898.87,617.14,898.92,617.77 C898.92,617.76,898.92,617.76,898.92,617.77z"/></g><g><path fill="#f9e85b" d="M810.94,537.02c4.87,17.18,11.07,51.58,1.6,67.24c-2.54,4.21-7.62,6.16-12.35,4.75 c-15.74-4.77-31.96-10.97-48.66-18.62c-17.31-7.91-46.38-23.85-87.22-47.82c7.24-1.25,13.41-2.05,18.5-2.4 c21.04-1.41,41.35-1.8,60.93-1.16l24.45,28.13c0.66,0.79,1.49,1.4,2.44,1.8c3.04,1.31,5.91,1.45,8.63,0.44 c2.01-0.75,2.93-3.17,2.05-5.4c-0.07-0.19-0.16-0.37-0.25-0.55c-4.42-8.28-8.6-16.14-12.54-23.57 C783.75,534.4,797.89,533.45,810.94,537.02z"/></g><g><path fill="#f9e85b" d="M558.49,536.54c-8.2,40.8-10.53,81.41-6.99,121.81c0.13,1.75,0.04,3.52-0.28,5.27l-0.68,3.52 c-5.75,2.08-13.32,2.64-22.69,1.68c-5.11-0.53-7.9-4.02-8.35-10.47c-1.25-17.47-2.06-35.2-2.44-53.18 c-1.17-22.13,1.84-43.83,9.03-65.08c1.06-3.14,4.06-5.18,7.35-4.99L558.49,536.54z"/></g><g><path fill="#f8f5cc" d="M768.51,539.86c3.94,7.43,8.12,15.29,12.54,23.57c1.14,2.11,0.56,4.68-1.31,5.73 c-0.16,0.09-0.32,0.16-0.49,0.23c-2.72,1.01-5.59,0.87-8.63-0.44c-0.95-0.39-1.78-1.01-2.44-1.8l-24.45-28.13L768.51,539.86z"/></g><g><path fill="#f9e85b" d="M773.51,666.43c-20.62,2.37-41.2,2.5-61.77,0.4c1.65-5.38,5.91-9.99,12.78-13.82 c1.01-0.58,1.38-1.86,0.82-2.87c-0.32-0.58-0.89-0.96-1.54-1.04c-4.93-0.61-9.92-0.52-14.98,0.28c-2.26,0.37-7.2,1.29-14.82,2.76 c-13.34,2.61-24.16,8.31-32.44,17.1l-68.6-0.36c-5.91-24.9-5.94-49.59-0.08-74.07c8.71-36.6,32.16-34.16,62.6-26.01 c41.28,11.05,80.32,24.21,117.1,39.47c7.03,2.93,13.08,6.23,18.14,9.91c0.8,0.58,1.55,1.25,2.24,2 c16.02,17.46-7.99,30.64-22.25,40.47c-2.19,1.49-2.78,4.46-1.32,6.67C769.55,667.57,770.93,667.28,773.51,666.43z M689.09,623.46 c-0.18-2.29-2.17-4-4.46-3.82h0l-38.96,3c-2.29,0.18-4,2.17-3.82,4.46c0,0,0,0,0,0l0.02,0.32c0.18,2.29,2.17,4,4.46,3.82h0l38.96-3 c2.29-0.18,4-2.17,3.82-4.46c0,0,0,0,0,0L689.09,623.46z M772.19,629.65c-0.05-3.18-12.09-5.56-26.89-5.33 c-14.8,0.23-26.76,3-26.71,6.17c0.05,3.18,12.09,5.56,26.89,5.33C760.28,635.59,772.24,632.83,772.19,629.65z"/></g><g><path fill="#f9e85b" d="M1123.21,566.55c9.27,46.1,4.03,90.28-15.7,132.52C1107.53,654.48,1112.77,610.31,1123.21,566.55z"/></g><g><path fill="#fdf4f7" d="M300.32,617.25c-5.27-0.56-7.88,1.13-7.83,5.07c0.91,83.26,2.89,166.59,5.95,249.98 c0.56,36.12,1.32,72.31,2.28,108.59c0.88,33.56-42.99,33.68-44.19-1.6c-3.89-117.17-6.58-234.16-8.07-350.98 c-0.03-2.69-1.78-3.62-5.27-2.8c3.6-24.61,5.15-45.59,25.69-56.13c1.88-0.98,4.16-0.78,5.87,0.52 C289.61,581.41,294.84,595.91,300.32,617.25z"/></g><g><ellipse rx="28.37" ry="6.11" fill="#f8f5cc" cx="978.9" transform="matrix(0.9348 -0.3551 0.3551 0.9348 -143.0891 385.5859)" cy="582.61"/></g><g><path fill="#f79aaf" d="M517.06,605.18c0.37,17.98,1.19,35.7,2.44,53.18c0.45,6.45,3.24,9.93,8.35,10.47 c9.38,0.96,16.94,0.4,22.69-1.68c13.1,2.93,26.87,3.6,41.31,2c7.95,24.53,24.49,61.29,52.9,41.75c9.03-6.21,13.6-9.35,13.7-9.43 c22.24-11.72,44.63-19.46,67.16-23.21c1.26-0.22,2.46,0.63,2.68,1.89c0.13,0.74-0.11,1.49-0.64,2.02 c-20.73,21.17-39.31,36.68-56.13,56.69c-15.98,19.02-15.99,37.58-0.04,55.69c27.81,31.54,62.7,47.5,104.67,47.9 c4.8,0.05,9.05-3.13,10.35-7.75c11.96-42.7,21.56-85.78,28.81-129.24c1.81-10.81,1.64-22.8-0.52-35.96 c-0.22-1.22-1.1-2.21-2.28-2.56c-6.71-2.1-13.77-3.01-21.17-2.72l37.35,1.6c0.13,19.79,0.52,39.45,1.16,58.97 c0.48,14.65,1.72,28.75,3.72,42.31c3.36,23.01,4.59,41.15,13.02,58.29c0.61,1.27,1.71,2.24,3.04,2.68 c15.24,5.17,32.52,5.89,51.86,2.16c33.93-6.5,60.09-23.28,78.47-50.34c10.73-15.82,12-31.86,3.8-48.1 c-3.01-5.94-10.59-13.04-22.73-21.29c-7.62-5.17-16.38-11.73-26.29-19.7c-13.34-10.75-31.92-18.98-46.58-31.36 c0.91-0.91,2.34-1.41,4.31-1.52c51.03-3.04,102.29-12.31,153.78-27.81c-4.05,26.1-8.08,52.14-12.11,78.11 c-1.86,12.09-4.89,38.07-9.07,77.95c-36.92,27.86-60.59,45.36-71.03,52.5c-21.25,14.57-44.12,23.94-68.6,28.13 c-42.19,7.19-69.04,12.66-102.76,7.39c-22.81-3.6-52.9-7.55-75.19-19.66c-29.84-16.18-50.46-26.33-72.03-46.86 c-4.45-4.21-13.49-12.51-27.13-24.89c-0.91-0.82-2.31-0.74-3.16,0.16l-2.44,2.6c-3.84-22.27-14.5-40.13-32-53.58 c-1.08-0.81-2.32-1.36-3.64-1.6c-20.8-3.62-34.19-5.5-40.15-5.63c-25.12-0.56-53.75,0.43-85.9,2.96c-25.57,2-46.8,5.35-63.68,10.07 c-14.33,4-26.17,13.44-35.52,28.33c-0.71,1.14-1.23,2.41-1.52,3.76c-2.4,11.35-3.36,22.77-2.88,34.28 c0.83,18.99,1.7,38.05,2.64,57.17c-14.49,1.62-28.37,5.3-41.63,11.03c-3.06-83.39-5.05-166.72-5.95-249.98 c-0.05-3.94,2.56-5.63,7.83-5.07c48.1-4.98,81.36-7.72,99.76-8.23C438.59,608,477.58,606.73,517.06,605.18z"/></g><g><path fill="#f8f5cc" d="M898.92,617.77c-0.05-0.62,0.42-1.15,1.03-1.2c0,0,0,0,0.01,0l27.73-1.4c16.59-0.84,30.19,1.3,30.36,4.78 c0,0,0,0.01,0,0.01l0.08,1.04c0.19,3.48-13.11,6.99-29.71,7.83c-0.01,0-0.01,0-0.02,0l-27.73,1.4c-0.62,0.04-1.15-0.42-1.2-1.03 c0-0.01,0-0.03,0-0.04L898.92,617.77z"/></g><g><path fill="#fdf8b3" d="M645.67,622.63l38.96-3c2.29-0.18,4.29,1.54,4.46,3.82l0.02,0.32c0.18,2.29-1.54,4.29-3.82,4.46l-38.96,3 c-2.29,0.18-4.29-1.54-4.46-3.82l-0.02-0.32C641.67,624.81,643.38,622.81,645.67,622.63z"/></g><g><ellipse rx="26.81" ry="5.75" fill="#f8f5cc" cx="745.38" transform="matrix(0.9999 -0.0157 0.0157 0.9999 -9.8048 11.7857)" cy="630.07"/></g><g><path fill="#f79aaf" d="M243.19,625.52c3.49-0.83,5.25,0.11,5.27,2.8c1.49,116.82,4.18,233.81,8.07,350.98 c-29.96-2.72-58.28,1.6-84.94,12.94c-0.4-0.61-0.61-1.12-0.64-1.52c-7.88-114.34-14.34-225.48-19.38-333.4 c-0.44-9.59,2.72-13.5,11.91-15.94C196.08,632.67,216.06,630.07,243.19,625.52z"/></g><g><path fill="#fdf8b3" d="M711.74,666.83l-50.18,2.4c8.28-8.79,19.1-14.49,32.44-17.1c7.62-1.46,12.56-2.38,14.82-2.76 c5.06-0.8,10.05-0.89,14.98-0.28c1.14,0.14,1.94,1.19,1.78,2.34c-0.09,0.66-0.48,1.24-1.06,1.57 C717.66,656.84,713.39,661.45,711.74,666.83z"/></g><g><path fill="#f6a891" d="M886.29,659.2c-0.13-0.77,0.48-0.69,1.84,0.24c14.66,12.39,33.24,20.62,46.58,31.36 c9.91,7.96,18.67,14.53,26.29,19.7c12.15,8.26,19.72,15.35,22.73,21.29c8.2,16.25,6.94,32.28-3.8,48.1 c-18.38,27.06-44.53,43.84-78.47,50.34c-19.34,3.73-36.62,3.01-51.86-2.16c-1.33-0.44-2.43-1.4-3.04-2.68 c-8.43-17.14-9.67-35.28-13.02-58.29c-2-13.56-3.24-27.66-3.72-42.31c-0.64-19.52-1.03-39.18-1.16-58.97 C847.11,659.92,866.32,657.71,886.29,659.2z"/></g><g><path fill="#f6a891" d="M791.33,664.23c7.4-0.29,14.46,0.61,21.17,2.72c1.18,0.35,2.06,1.34,2.28,2.56 c2.16,13.16,2.33,25.14,0.52,35.96c-7.24,43.47-16.85,86.55-28.81,129.24c-1.3,4.63-5.54,7.8-10.35,7.75 c-41.98-0.4-76.87-16.37-104.67-47.9c-15.95-18.11-15.94-36.68,0.04-55.69c16.82-20.02,35.4-35.52,56.13-56.69 c0.9-0.91,0.89-2.38-0.01-3.28c-0.53-0.53-1.29-0.76-2.02-0.64c-22.53,3.76-44.92,11.49-67.16,23.21 c-0.11,0.08-4.67,3.22-13.7,9.43c-28.41,19.54-44.95-17.22-52.9-41.75c0.37-0.08,0.75-0.17,1.12-0.28l68.6,0.36l50.18-2.4 c20.56,2.1,41.15,1.97,61.77-0.4L791.33,664.23z"/></g><g><path fill="#ffccd8" d="M602.71,785.52l3.2,28.89c0.99,37.74,1.93,75.59,2.84,113.54c0.53,22-0.21,36.56-2.24,43.67 c-5.15,18.1-18.82,42.31-37.47,48.86c-6.77,2.37-12.37,3.8-16.82,4.27c-8.42,0.88-17.26,1.41-26.53,1.6 c-3.04,0.59-5.9,0.52-8.59-0.2c-32.95,1.86-65.63,1.43-98.04-1.32c8.95-22.77,7.67-55.13-14.98-69 c-20.18-12.35-38.99,0.84-48.38,19.98c-6.53-15.87-10.36-28.85-11.51-38.91c-1.78-15.63-3.16-40.84-4.12-75.63 c-0.93-19.12-1.81-38.18-2.64-57.17c-0.48-11.51,0.48-22.93,2.88-34.28c0.29-1.35,0.8-2.62,1.52-3.76 c9.35-14.89,21.19-24.33,35.52-28.33c16.89-4.71,38.11-8.07,63.68-10.07c32.15-2.53,60.78-3.52,85.9-2.96 c5.97,0.13,19.35,2.01,40.15,5.63c1.31,0.24,2.56,0.78,3.64,1.6C588.21,745.4,598.88,763.26,602.71,785.52z"/></g><g><path fill="#f6a891" d="M1025.05,786.16l-6.91,50.82c-8.47,5.19-13.81,8.8-16.02,10.83c-9.4,8.66-22,17.09-37.79,25.29 c-58.86,30.6-120.12,42.22-183.78,34.84c-41.79-4.82-78.09-18.3-108.91-40.43c-21.93-15.74-52.78-24.81-65.72-53.1l-3.2-28.89 l2.44-2.6c0.85-0.9,2.25-0.98,3.16-0.16c13.64,12.39,22.68,20.68,27.13,24.89c21.57,20.54,42.19,30.68,72.03,46.86 c22.29,12.11,52.38,16.06,75.19,19.66c33.72,5.27,60.57-0.2,102.76-7.39c24.48-4.18,47.34-13.56,68.6-28.13 C964.45,831.52,988.13,814.02,1025.05,786.16z"/></g><g><path fill="#f79aaf" d="M1018.13,836.98l-38.27,274.19l-32.04-2.72c0.75-23.81-4.57-43.83-15.94-60.05 c-12.28-17.5-27.13-36.69-44.55-57.57c-11.15-13.3-23.33-21.81-38.95-35.32c-1.6-1.4-3.84-1.79-5.79-1l-27.65,10.99 c-0.35,0.16-0.68,0.36-1,0.6l-15.98,12.86c-6.23-16.46-25.45-34.64-44.27-24.81c-23.01,11.95-29.92,38.27-24.21,62.33 c-6.76,10.25-14.3,18.51-22.61,24.77c-10.99,8.23-7.99,30.52-3.84,41.47c6.21,16.41,15.25,32.23,27.13,47.46 c2.61,3.33,5.83,8.5,9.67,15.5c-17.18-10.49-31.99-23.65-44.43-39.47c-0.61-0.77-1.34-1.43-2.16-1.96l-51.82-33.44 c5.03-11.79,13.82-44.35-9.31-43.67c-17.06,0.48-14.54,19.54-16.06,27.09c-5.83,28.97-36.76,50.58-62.84,27.25 c-14.3-12.82-14.98-28.57-17.7-46.5c-0.56-3.81-3.84-6.69-9.83-8.63c9.27-0.19,18.11-0.72,26.53-1.6 c4.45-0.48,10.05-1.9,16.82-4.27c18.66-6.55,32.32-30.76,37.47-48.86c2.02-7.11,2.77-21.67,2.24-43.67 c-0.91-37.95-1.85-75.8-2.84-113.54c12.94,28.29,43.79,37.36,65.72,53.1c30.82,22.13,67.12,35.61,108.91,40.43 c63.66,7.38,124.92-4.23,183.78-34.84c15.79-8.2,28.39-16.63,37.79-25.29C1004.32,845.79,1009.66,842.18,1018.13,836.98z"/></g><g><path fill="#f789a1" d="M340.07,861.27c0.96,34.78,2.33,59.99,4.12,75.63c1.15,10.07,4.98,23.04,11.51,38.91 c-6.18,16.11-6.18,32.29,0,48.54c6.19,16.34,23.53,27.89,41.11,21.65c9.88-3.49,17.3-10.55,22.25-21.17 c32.41,2.74,65.1,3.18,98.04,1.32c-6.82,3.41-10.16,8.34-10.03,14.78c1,48.42,40.51,92.25,91.61,75.23 c20.54-6.87,35.32-25.13,42.75-45.35l51.82,33.44c0.82,0.53,1.55,1.19,2.16,1.96c12.44,15.82,27.25,28.98,44.43,39.47 c11.75,15.14,20.65,32.4,32.84,46.62c7.62,8.9,13.58,14.61,17.9,17.14c14.04,8.23,26.79,9.58,38.27,4.04 c9.06-4.37,22.16-13.09,39.31-26.17c30.9-23.6,57.45-49.89,79.66-78.87l32.04,2.72l-35.88,259.49 c-16.86-7.06-28.89-2.78-36.08,12.82c1.08-17.9-11.31-39.15-20.46-51.02c-18.72-24.26-38.18-48.54-58.37-72.83 c-15.58-18.7-33.32-38.43-60.21-26.89c-22.17,9.55-44.11,27.33-61.81,43.75c-20.61,19.1-41.99,37.49-64.12,55.17 c-56.77-19.78-114.94-22.73-175.91-20.89c-24.08-40.14-42.76-67.49-56.05-82.06c-10.57-11.56-24.49-15.05-41.75-10.47 c-1.27,0.32-2.48,0.84-3.6,1.56l-63.68,39.75c-15.58-3.36-25.93,5.67-31.04,27.09c-21.49,12.82-42.55,27.45-43.63,53.78 c-1.04,25.65,32.12,65.28,47.74,83.94l4.79,53.94c-19.98-5.27-38.23-8.9-54.77-10.87c-8.18-0.96-15.59,1.76-22.25,8.15 l-13.46-206.99l-17.74-276.35c26.66-11.35,54.97-15.66,84.94-12.94c1.2,35.28,45.07,35.16,44.19,1.6 c-0.96-36.28-1.72-72.47-2.28-108.59C311.7,866.57,325.58,862.9,340.07,861.27z M261.2,1107.97 c-0.04,23.65,32.48,42.89,72.64,42.96c0,0,0,0,0,0c40.16,0.07,72.75-19.05,72.79-42.7v0c0.04-23.65-32.48-42.89-72.64-42.96h0 C293.83,1065.2,261.25,1084.32,261.2,1107.97L261.2,1107.97z"/></g><g><path d="M419.05,1024.84c-4.95,10.63-12.37,17.69-22.25,21.17c-17.58,6.23-34.92-5.31-41.11-21.65c-6.18-16.25-6.18-32.43,0-48.54 c9.39-19.14,28.21-32.32,48.38-19.98C426.73,969.7,428,1002.06,419.05,1024.84z"/></g><g><path d="M797.96,978.97c7.75,22.45,3,52.26-18.54,65.44c-22.45,13.66-43.71-6.23-49.94-27.93c-5.71-24.05,1.2-50.38,24.21-62.33 C772.51,944.33,791.73,962.51,797.96,978.97z"/></g><g><path fill="#ffccd8" d="M947.82,1108.46c-22.21,28.98-48.77,55.27-79.66,78.87c-17.15,13.08-30.26,21.8-39.31,26.17 c-11.48,5.54-24.24,4.19-38.27-4.04c-4.31-2.53-10.28-8.24-17.9-17.14c-12.19-14.22-21.09-31.48-32.84-46.62 c-3.84-7-7.06-12.17-9.67-15.5c-11.88-15.24-20.92-31.06-27.13-47.46c-4.15-10.95-7.15-33.24,3.84-41.47 c8.31-6.26,15.85-14.52,22.61-24.77c6.23,21.69,27.49,41.59,49.94,27.93c21.53-13.18,26.29-42.99,18.54-65.44l15.98-12.86 c0.32-0.24,0.65-0.44,1-0.6l27.65-10.99c1.96-0.79,4.2-0.4,5.79,1c15.62,13.5,27.81,22.01,38.95,35.32 c17.42,20.88,32.27,40.07,44.55,57.57C943.25,1064.63,948.56,1084.65,947.82,1108.46z M891.28,1111.09 c-0.17-23.85-33.73-42.95-74.97-42.67c-41.24,0.29-74.53,19.86-74.37,43.71c0.17,23.85,33.73,42.95,74.97,42.67 C858.16,1154.51,891.45,1134.94,891.28,1111.09z"/></g><g><path d="M525.69,1026.36c5.99,1.94,9.27,4.82,9.83,8.63c2.72,17.94,3.4,33.68,17.7,46.5c26.09,23.33,57.01,1.72,62.84-27.25 c1.52-7.55-1-26.61,16.06-27.09c23.13-0.68,14.34,31.88,9.31,43.67c-7.43,20.22-22.21,38.47-42.75,45.35 c-51.1,17.02-90.61-26.81-91.61-75.23c-0.13-6.45,3.21-11.37,10.03-14.78C519.79,1026.87,522.65,1026.94,525.69,1026.36z"/></g><g><ellipse rx="42.83" ry="72.71" fill="#f14641" cx="333.92" transform="matrix(1.745432e-03 -1 1 1.745432e-03 -774.7618 1440.079)" cy="1108.1"/></g><g><ellipse rx="74.67" ry="43.19" fill="#f14641" cx="816.62" transform="matrix(1 -6.981261e-03 6.981261e-03 1 -7.7406 5.7281)" cy="1111.61"/></g><g><path fill="#fbadc0" d="M467.04,1310.77c7.06,9.91,13.48,20.06,19.26,30.44c9,16.14,10.71,32.99,5.11,50.54 c-4.23,13.18-14.98,21.29-25.89,29.13c-28.39,20.43-60.74,42.34-97.04,65.72c-2.29,1.49-9.08,3.58-20.38,6.27 c-7.99,1.94-15.73-1.21-23.21-9.47c-0.29-16.01-1.05-32.71-2.28-50.1c-3.56-50.02-4.91-95.92-6.63-144.07 c-0.29-7.4-1.17-13.13-2.64-17.18c-2.4-6.61-6.19-10.77-11.39-12.51l63.68-39.75c1.11-0.71,2.33-1.24,3.6-1.56 c17.26-4.58,31.18-1.09,41.75,10.47C424.27,1243.28,442.96,1270.64,467.04,1310.77z M397.96,1350.25l-0.56-15.38 c-0.05-1.69-0.43-3.34-1.12-4.87c-7.75-16.7-21.05-48.78-35.32-43.51c-3.5,1.29-5.11,5.62-3.59,9.67c0.02,0.07,0.05,0.13,0.08,0.2 c9.03,22.51,21.08,41.11,36.16,55.81c1,0.99,2.62,0.99,3.62-0.02C397.72,1351.64,397.99,1350.95,397.96,1350.25z"/></g><g><path fill="#fbadc0" d="M907.91,1383.49c-1.63,10.52-6.01,18.92-13.14,25.21c-23.17,20.32-58.85,49.89-107.03,88.69 c-3.68,2.98-10.29,7.16-19.86,12.54c-16.06,9.03-31.72-4.63-41.95-15.78c-8.12-8.87-34.84-40.76-80.14-95.69 c-8.5-10.33-14.66-19.54-18.5-27.61c-2.09-4.44-2.28-9.54-0.52-14.1c3.84-9.88,9.23-18.24,16.18-25.09 c22.13-17.69,43.51-36.08,64.12-55.17c17.7-16.42,39.63-34.2,61.81-43.75c26.89-11.55,44.63,8.19,60.21,26.89 c20.19,24.29,39.65,48.57,58.37,72.83C896.6,1344.33,908.99,1365.59,907.91,1383.49z"/></g><g><path fill="#c4eaf6" d="M189.33,1268.58l13.46,206.99c4.53,60.43,9.39,120.92,14.58,181.46c6.51,76.31,56.57,128.09,126.65,153.9 c30.52,11.24,55.16,18.62,73.91,22.13c39.1,7.32,82.47,11.77,130.12,13.34c80.86,2.72,175.03,1.72,247.98-40.23 c61.09-35.16,97.44-98.56,108.19-168.12c12.07-78.07,23.78-155.75,35.16-233.04c25.49-32.55,53.91-61.73,85.26-87.53 c-21.55,169.08-44.76,337.83-69.64,506.27c-5.11,34.8-7.91,59.49-19.74,87.77c-8.95,21.33-33.68,36.64-57.81,46.14 c-43.95,17.31-92.14,29.16-144.59,35.56c-97.12,11.83-200.24,7.11-295.72-6.11c-74.27-10.27-148.38-29.56-215.66-61.61 c-30.44-14.5-58.09-33.2-61.65-70.4c-2.02-21.07-5.03-68.33-9.03-141.79c-2.18-39.74-5.02-87.03-8.51-141.87 c-6.42-100.92-12.54-201.8-18.38-302.64C145.32,1262.99,167.12,1262.91,189.33,1268.58z M258.05,1878.09 c-4.19,26.01,18.46,35.84,39.27,40.55c48.66,11.03,97.94,11.48,147.82,1.36c10.17-2.08,20.5-5.83,30.96-11.27 c18.5-9.71,13.94-23.93,2.4-38.11c-0.78-0.94-1.82-1.62-3-1.96c-31.96-9.27-64.35-12.33-97.16-9.19 c-43.68,4.21-83.03,9.66-118.06,16.34C259.14,1876.03,258.24,1876.94,258.05,1878.09z"/></g><g><path fill="#fdf4f7" d="M301.95,1259.56c5.19,1.73,8.99,5.9,11.39,12.51c1.46,4.05,2.34,9.77,2.64,17.18 c1.72,48.14,3.08,94.05,6.63,144.07c1.23,17.39,1.98,34.09,2.28,50.1c-0.88,12.94-6.29,20.99-16.22,24.13 c-18.22,5.71-28.05-14.42-28.85-29.24l-4.79-53.94c1.86-13.21,2.62-22.87,2.28-28.97c-1.92-36.2-1.92-72.71-6.39-108.75 C276.03,1265.23,286.37,1256.2,301.95,1259.56z"/></g><g><path fill="#fdf4f7" d="M397.96,1350.25c0.06,1.41-1.04,2.6-2.45,2.66c-0.71,0.03-1.4-0.24-1.9-0.74 c-15.08-14.7-27.13-33.31-36.16-55.81c-1.61-4.01-0.11-8.4,3.35-9.8c0.06-0.02,0.11-0.04,0.17-0.07 c14.26-5.27,27.57,26.81,35.32,43.51c0.69,1.53,1.07,3.19,1.12,4.87L397.96,1350.25z"/></g><g><path fill="#fbadc0" d="M270.91,1286.64c4.47,36.04,4.47,72.55,6.39,108.75c0.35,6.1-0.41,15.75-2.28,28.97 c-15.62-18.66-48.78-58.29-47.74-83.94C228.36,1314.09,249.42,1299.47,270.91,1286.64z"/></g><g><path fill="#f36484" d="M642.95,1331.67c-6.95,6.85-12.35,15.21-16.18,25.09c-1.76,4.57-1.57,9.66,0.52,14.1 c3.84,8.07,10,17.27,18.5,27.61c45.31,54.92,72.02,86.82,80.14,95.69c10.23,11.15,25.89,24.81,41.95,15.78 c9.56-5.38,16.18-9.56,19.86-12.54c48.18-38.81,83.86-68.37,107.03-88.69c7.14-6.29,11.52-14.69,13.14-25.21 c7.19-15.61,19.22-19.88,36.08-12.82l-4.59,34.36c-11.37,77.29-23.09,154.97-35.16,233.04c-10.75,69.56-47.1,132.96-108.19,168.12 c-72.95,41.95-167.12,42.95-247.98,40.23c-47.65-1.57-91.02-6.02-130.12-13.34c-18.75-3.52-43.39-10.89-73.91-22.13 c-70.08-25.81-120.14-77.59-126.65-153.9c-5.19-60.54-10.05-121.03-14.58-181.46c6.66-6.39,14.08-9.11,22.25-8.15 c16.54,1.97,34.8,5.59,54.77,10.87c0.8,14.82,10.63,34.96,28.85,29.24c9.93-3.14,15.34-11.19,16.22-24.13 c7.48,8.26,15.22,11.41,23.21,9.47c11.29-2.69,18.08-4.78,20.38-6.27c36.3-23.39,68.65-45.29,97.04-65.72 c10.91-7.83,21.65-15.94,25.89-29.13c5.59-17.55,3.89-34.4-5.11-50.54c-5.78-10.39-12.2-20.54-19.26-30.44 C528,1308.94,586.17,1311.89,642.95,1331.67z M784.02,1618.48c2.08-7.71,3.08-27.33-1.08-33.72 c-10.23-15.7-19.94-22.81-39.11-28.57c-19.54-5.79-40.99-12.03-63.2-20.22c-16.89-6.23-30.88-10.21-41.99-11.95 c-26.09-4.04-49.26,2-58.05,29.08c-10.6,32.6-19.04,62.19-25.33,88.77c-0.45,1.88-1.15,3.68-2.08,5.35 c-8.6,15.9-11.92,33.36-9.95,52.38c1.39,13.29,8.36,22.95,20.93,28.97c25.57,12.28,49.11,21.37,70.64,27.29 c18.01,4.93,36.09,10.47,54.25,16.62c1.47,0.51,9.24,0.33,23.33-0.52c17.46-1.04,29.12-12.9,34.04-27.21 c7.38-21.57,16.54-50.02,27.49-85.34C777.94,1646.33,780.62,1630.91,784.02,1618.48z M318.5,1580.33 c-33.12-9.99-33.92,20.42-34.04,43.51c-11.37,2.72-15.52,9.52-12.43,20.42c0.67,2.37,3.57,8.24,8.71,17.62 c0.71,1.27,1.23,2.65,1.52,4.07c1.36,6.5,3.64,12.97,6.83,19.42c0.4,0.77,0.61,2.9,0.64,6.39c0.03,1.39,0.38,2.76,1.04,4 c3.62,6.58,7.12,13.92,10.51,22.01c6.15,14.7,17.14,31.88,25.41,45.47c2.28,3.76,5.94,6.46,10.19,7.51l30.72,7.59 c1.83,0.47,3.76,0.43,5.59-0.12c12.04-3.54,19.88-6.43,23.53-8.67c28.37-17.37,46.45-27.89,54.25-31.56 c20.18-9.55,61.33-31.96,60.81-49.66c-0.67-22.19-6.49-44.01-17.46-65.48c-12.7-24.85-25.08-48.16-37.12-69.92 c-10.63-19.22-27.93-34.44-51.02-24.57c-17.1,7.32-33.96,17.01-50.58,29.04c-2.02,1.46-4.2,2.71-6.51,3.72 C337.62,1566.04,327.42,1572.45,318.5,1580.33z"/></g><g><path fill="#f79aaf" d="M784.02,1618.48c-3.4,12.42-6.07,27.85-10.11,40.95c-10.95,35.32-20.11,63.76-27.49,85.34 c-4.91,14.3-16.58,26.17-34.04,27.21c-14.09,0.85-21.87,1.03-23.33,0.52c-18.16-6.15-36.25-11.69-54.25-16.62 c-21.52-5.91-45.07-15.01-70.64-27.29c-12.57-6.02-19.55-15.67-20.93-28.97c-1.97-19.02,1.35-36.48,9.95-52.38 c0.93-1.67,1.63-3.47,2.08-5.35c6.29-26.58,14.73-56.17,25.33-88.77c8.79-27.09,31.96-33.12,58.05-29.08 c11.11,1.73,25.1,5.71,41.99,11.95c22.21,8.19,43.67,14.42,63.2,20.22c19.18,5.75,28.89,12.86,39.11,28.57 C787.09,1591.16,786.09,1610.77,784.02,1618.48z M717.78,1579.26c1.45-4.82-1.29-9.9-6.11-11.34l-70.95-21.28 c-4.82-1.45-9.9,1.29-11.34,6.11l-0.14,0.46c-1.45,4.82,1.29,9.9,6.11,11.34l0,0l70.95,21.28c4.82,1.45,9.9-1.29,11.34-6.11 L717.78,1579.26z M752.07,1643.58c1.56-4.78-1.05-9.93-5.83-11.49l-1.52-0.5c-4.78-1.56-9.93,1.05-11.49,5.83v0l-21.15,64.71 c-1.56,4.78,1.05,9.93,5.83,11.49l1.52,0.5c4.78,1.56,9.93-1.05,11.49-5.83L752.07,1643.58z"/></g><g><path fill="#f79aaf" d="M284.46,1623.84c1.49,17.45,4.65,35.06,9.47,52.86c5.75,21.29,21.65,54.02,48.98,42.11 c17.94-7.75,12.03-22.21,2.48-36.84c-7.51-11.45-12.11-24.76-13.78-39.91c-2.72-24.53-1.28-46.82-13.1-61.73 c8.92-7.88,19.12-14.29,30.6-19.22c2.31-1.01,4.49-2.25,6.51-3.72c16.62-12.04,33.48-21.72,50.58-29.04 c23.09-9.87,40.39,5.35,51.02,24.57c12.04,21.76,24.41,45.07,37.12,69.92c10.97,21.47,16.79,43.29,17.46,65.48 c0.52,17.7-40.63,40.11-60.81,49.66c-7.8,3.68-25.89,14.2-54.25,31.56c-3.65,2.24-11.49,5.13-23.53,8.67 c-1.83,0.55-3.76,0.59-5.59,0.12l-30.72-7.59c-4.25-1.05-7.91-3.75-10.19-7.51c-8.27-13.58-19.26-30.76-25.41-45.47 c-3.38-8.1-6.88-15.43-10.51-22.01c-0.66-1.23-1.01-2.6-1.04-4c-0.03-3.49-0.24-5.62-0.64-6.39c-3.2-6.45-5.47-12.92-6.83-19.42 c-0.29-1.43-0.8-2.8-1.52-4.07c-5.14-9.38-8.04-15.25-8.71-17.62C268.94,1633.36,273.08,1626.55,284.46,1623.84z M414.58,1565.79 l-14.42,8.35c-1.19,0.68-1.6,2.19-0.93,3.38c0.05,0.09,0.11,0.18,0.17,0.26l15.98,21.21c0.79,1.06,2.22,1.42,3.4,0.84l0.08-0.04 c1.27-0.86,1.74-2.5,1.12-3.88c-4.05-8.92-4.82-18.18-2.32-27.77c0.28-1.14-0.42-2.28-1.56-2.56 C415.59,1565.46,415.04,1565.53,414.58,1565.79z M389.77,1616.49c-4.42,3.46-6.02,8.27-4.79,14.42c0.28,1.74,1.91,2.93,3.66,2.66 c1.54-0.24,2.68-1.57,2.7-3.13l0.72-12.78c0.04-0.77-0.55-1.43-1.32-1.47C390.38,1616.16,390.04,1616.27,389.77,1616.49z M421.69,1622.84l3.68,10.67c0.36,1.02,0.42,2.11,0.16,3.16c-1.12,4.71-0.91,8.51,0.64,11.39c5.11,9.72,10.21,19.52,15.3,29.4 c1.65,3.17,4,5.75,7.03,7.75c0.57,0.38,1.34,0.23,1.72-0.34c0.17-0.25,0.24-0.56,0.2-0.86c-1.32-11.91-3.24-22.25-10.27-35.28 c-4.74-8.71-9.42-17.99-14.02-27.85c-0.37-0.73-1.12-1.18-1.92-1.16c-0.99,0.03-1.81,0.72-2.48,2.08 C421.58,1622.11,421.56,1622.48,421.69,1622.84z"/></g><g><path fill="#ffccd8" d="M640.72,1546.63l70.95,21.29c4.82,1.45,7.55,6.52,6.11,11.34l-0.14,0.46c-1.45,4.82-6.52,7.55-11.34,6.11 l-70.95-21.29c-4.82-1.45-7.55-6.52-6.11-11.34l0.14-0.46C630.82,1547.92,635.9,1545.18,640.72,1546.63z"/></g><g><path fill="#ffccd8" d="M414.58,1565.79c1.03-0.56,2.31-0.19,2.87,0.84c0.25,0.46,0.33,1.01,0.2,1.52 c-2.5,9.59-1.73,18.84,2.32,27.77c0.62,1.38,0.15,3.01-1.12,3.88l-0.08,0.04c-1.17,0.58-2.6,0.23-3.4-0.84l-15.98-21.21 c-0.82-1.1-0.59-2.65,0.5-3.47c0.08-0.06,0.17-0.12,0.26-0.17L414.58,1565.79z"/></g><g><path fill="#fdf4f7" d="M318.5,1580.33c11.83,14.9,10.39,37.2,13.1,61.73c1.68,15.16,6.27,28.46,13.78,39.91 c9.55,14.62,15.46,29.09-2.48,36.84c-27.33,11.91-43.23-20.82-48.98-42.11c-4.82-17.79-7.98-35.41-9.47-52.86 C284.58,1600.75,285.38,1570.34,318.5,1580.33z"/></g><g><path fill="#ffccd8" d="M392.05,1617.64l-0.72,12.78c-0.01,1.77-1.45,3.19-3.22,3.17c-1.56-0.01-2.89-1.15-3.13-2.7 c-1.23-6.15,0.37-10.96,4.79-14.42c0.6-0.49,1.48-0.39,1.97,0.21C391.95,1616.96,392.06,1617.3,392.05,1617.64z"/></g><g><path fill="#ffccd8" d="M421.73,1621.8c0.67-1.36,1.49-2.05,2.48-2.08c0.8-0.02,1.55,0.43,1.92,1.16 c4.61,9.85,9.28,19.14,14.02,27.85c7.03,13.02,8.95,23.37,10.27,35.28c0.09,0.68-0.38,1.3-1.06,1.4c-0.3,0.04-0.61-0.03-0.86-0.2 c-3.04-2-5.38-4.58-7.03-7.75c-5.09-9.88-10.19-19.68-15.3-29.4c-1.55-2.88-1.76-6.67-0.64-11.39c0.26-1.04,0.2-2.14-0.16-3.16 l-3.68-10.67C421.56,1622.48,421.58,1622.11,421.73,1621.8z"/></g><g><path fill="#ffccd8" d="M744.72,1631.6l1.52,0.5c4.78,1.56,7.39,6.71,5.83,11.49l-21.15,64.71c-1.56,4.78-6.71,7.39-11.49,5.83 l-1.52-0.5c-4.78-1.56-7.39-6.71-5.83-11.49l21.15-64.71C734.8,1632.64,739.94,1630.03,744.72,1631.6z"/></g><g><path fill="#d9f0f8" d="M260.29,1875.81c35.02-6.69,74.38-12.13,118.06-16.34c32.81-3.14,65.2-0.08,97.16,9.19 c1.17,0.34,2.22,1.02,3,1.96c11.55,14.18,16.1,28.41-2.4,38.11c-10.47,5.43-20.79,9.19-30.96,11.27 c-49.89,10.12-99.16,9.67-147.82-1.36c-20.82-4.71-43.47-14.54-39.27-40.55C258.24,1876.94,259.14,1876.03,260.29,1875.81z"/></g></g></svg>