<?xml version="1.0" encoding="UTF-8" standalone="no"?><svg xmlns="http://www.w3.org/2000/svg" xmlns:xlink="http://www.w3.org/1999/xlink" contentScriptType="text/ecmascript" fill="#000000" width="397.7" zoomAndPan="magnify" contentStyleType="text/css" viewBox="-0.3 -1.9 397.7 397.5" height="397.5" preserveAspectRatio="xMidYMid meet" version="1"><g id="change1_1"><path fill="#4b9939" d="M394.36,5.93c-16,19.74-35.43,37.87-53.4,55.81c-20.19,19.54-47.64,45.89-67.73,65.75 c-16.45,16.13-55.61,56.34-72.27,73.34C145.91,256.44,62.23,338.37,6.06,394.23c-1.4,1.38-3.65,1.37-5.03-0.03 c-1.37-1.38-1.37-3.61-0.02-4.99c48.3-49.31,101.98-103.31,151.32-152.06c31.29-29.26,61.87-59.59,91.95-90.07 c22.39-22.48,49.75-50.76,72.01-73.6c24.02-24.52,47.52-49.56,73.03-72.58C392.46-1.86,397.36,2.27,394.36,5.93L394.36,5.93z"/></g></svg>