<?xml version="1.0" encoding="UTF-8" standalone="no"?><svg xmlns="http://www.w3.org/2000/svg" xmlns:xlink="http://www.w3.org/1999/xlink" contentScriptType="text/ecmascript" fill="#000000" width="807" zoomAndPan="magnify" contentStyleType="text/css" viewBox="2.0 -21.3 807.0 830.6" height="831" preserveAspectRatio="xMidYMid meet" version="1"><defs><clipPath id="a"><path d="M 323 4 L 411 4 L 411 126 L 323 126 Z M 323 4"/></clipPath><clipPath id="b"><path d="M 385.863281 -9.902344 L 430.234375 20.878906 L 347.671875 139.894531 L 303.300781 109.113281 Z M 385.863281 -9.902344"/></clipPath><clipPath id="c"><path d="M 409.886719 10.816406 L 394.328125 68.671875 C 392.058594 77.101562 386.9375 84.484375 379.835938 89.558594 L 331.097656 124.394531 C 329.4375 125.582031 327.210938 125.597656 325.53125 124.433594 C 323.855469 123.273438 323.089844 121.179688 323.621094 119.210938 L 339.183594 61.355469 C 341.449219 52.925781 346.570312 45.542969 353.671875 40.46875 L 402.410156 5.632812 C 404.074219 4.445312 406.300781 4.429688 407.976562 5.59375 C 409.652344 6.753906 410.417969 8.847656 409.886719 10.816406 Z M 409.886719 10.816406"/></clipPath><clipPath id="d"><path d="M 59 30 L 316 30 L 316 133 L 59 133 Z M 59 30"/></clipPath><clipPath id="e"><path d="M 41.738281 80.382812 L 77.132812 -13.699219 L 332.988281 82.558594 L 297.59375 176.640625 Z M 41.738281 80.382812"/></clipPath><clipPath id="f"><path d="M 64.136719 30.25 L 192.316406 32.316406 C 201.042969 32.457031 209.453125 35.617188 216.109375 41.265625 L 313.863281 124.203125 C 315.421875 125.523438 315.980469 127.679688 315.261719 129.589844 C 314.542969 131.5 312.699219 132.75 310.660156 132.71875 L 182.480469 130.65625 C 173.75 130.515625 165.34375 127.351562 158.6875 121.703125 L 60.933594 38.769531 C 59.375 37.449219 58.816406 35.292969 59.535156 33.382812 C 60.253906 31.472656 62.097656 30.21875 64.136719 30.25 Z M 64.136719 30.25"/></clipPath><clipPath id="g"><path d="M 148 58 L 809 58 L 809 807 L 148 807 Z M 148 58"/></clipPath><clipPath id="h"><path d="M 32.21875 655.449219 L 340.679688 -47.851562 L 925.238281 208.53125 L 616.777344 911.832031 Z M 32.21875 655.449219"/></clipPath><clipPath id="i"><path d="M 186.207031 304.347656 C 101.160156 498.253906 163.078125 712.839844 324.5 783.640625 C 485.921875 854.4375 685.722656 754.636719 770.769531 560.730469 C 855.8125 366.824219 793.898438 152.238281 632.476562 81.4375 C 471.054688 10.640625 271.253906 110.441406 186.207031 304.347656 Z M 186.207031 304.347656"/></clipPath><clipPath id="j"><path d="M 2 131 L 718 131 L 718 810 L 2 810 Z M 2 131"/></clipPath><clipPath id="k"><path d="M 478.085938 948.777344 L -132.707031 497.417969 L 241.234375 -8.609375 L 852.027344 442.75 Z M 478.085938 948.777344"/></clipPath><clipPath id="l"><path d="M 173.453125 723.664062 C 341.699219 847.992188 561.796875 835.5 665.058594 695.761719 C 768.320312 556.027344 715.640625 341.960938 547.394531 217.632812 C 379.152344 93.308594 159.054688 105.796875 55.792969 245.535156 C -47.46875 385.269531 5.210938 599.335938 173.453125 723.664062 Z M 173.453125 723.664062"/></clipPath><clipPath id="m"><path d="M 645 406 L 677 406 L 677 437 L 645 437 Z M 645 406"/></clipPath><clipPath id="n"><path d="M 640.203125 415.800781 L 666.835938 400.703125 L 681.933594 427.335938 L 655.300781 442.433594 Z M 640.203125 415.800781"/></clipPath><clipPath id="o"><path d="M 653.519531 408.25 C 646.164062 412.417969 643.582031 421.761719 647.75 429.117188 C 651.921875 436.472656 661.261719 439.054688 668.617188 434.886719 C 675.972656 430.714844 678.554688 421.375 674.386719 414.019531 C 670.21875 406.664062 660.875 404.082031 653.519531 408.25 Z M 653.519531 408.25"/></clipPath></defs><g clip-path="url(#a)"><g clip-path="url(#b)"><g id="change1_1" clip-path="url(#c)"><path fill="#6fbc3c" d="M 389.328125 -18.914062 L 437.460938 14.476562 L 344.203125 148.90625 L 296.074219 115.515625 Z M 389.328125 -18.914062"/></g></g></g><path fill="none" stroke-width="37" d="M 26.13623 41.192001 C 83.945687 10.111131 155.01859 10.956202 239.355683 43.741927" transform="rotate(47.901 136.917 249.774) scale(.75)" stroke-linecap="round" stroke="#4a210f"/><g clip-path="url(#d)"><g clip-path="url(#e)"><g id="change1_2" clip-path="url(#f)"><path fill="#6fbc3c" d="M 32.222656 78.988281 L 69.054688 -18.917969 L 342.503906 83.957031 L 305.667969 181.863281 Z M 32.222656 78.988281"/></g></g></g><g clip-path="url(#g)"><g clip-path="url(#h)"><g id="change2_1" clip-path="url(#i)"><path fill="#fa9e84" d="M 32.21875 655.449219 L 340.679688 -47.851562 L 925.238281 208.53125 L 616.777344 911.832031 Z M 32.21875 655.449219"/></g></g></g><g clip-path="url(#j)"><g clip-path="url(#k)"><g id="change3_1" clip-path="url(#l)"><path fill="#f78272" d="M 478.085938 948.777344 L -130.730469 498.878906 L 243.210938 -7.148438 L 852.027344 442.75 Z M 478.085938 948.777344"/></g></g></g><path fill="none" stroke-width="40" d="M 26.196177 46.002041 C 126.838093 10.871144 241.203471 11.337464 369.299079 47.408919" transform="rotate(40.532 -3.75 689.088) scale(.75)" stroke-linecap="round" stroke="#ffe0d7"/><g clip-path="url(#m)"><g clip-path="url(#n)"><g id="change4_1" clip-path="url(#o)"><path fill="#ffe0d7" d="M 640.203125 415.800781 L 666.835938 400.703125 L 681.933594 427.335938 L 655.300781 442.433594 Z M 640.203125 415.800781"/></g></g></g></svg>