<?xml version="1.0" encoding="UTF-8" standalone="no"?><svg xmlns="http://www.w3.org/2000/svg" xmlns:xlink="http://www.w3.org/1999/xlink" contentScriptType="text/ecmascript" fill="#000000" width="1139" zoomAndPan="magnify" contentStyleType="text/css" viewBox="-0.0 0.0 1139.0 2000.0" height="2000" data-name="Layer 2" preserveAspectRatio="xMidYMid meet" version="1"><g><g><g><path fill="#592d13" d="M694.47,1995.74c-149.79,10.63-352.32,4-491.89-50.67-31.28-12.25-40.68-38.77-44.81-69.77l-63.03-473.11-44.93-361.22L11.57,678.19c-3.61-34.27-3.3-68.52-9.71-102.52-7.73-40.99,8.99-70.52,43.03-90.48,41.73-24.47,87.06-43.2,135.51-54.18,121.17-27.45,295.31-40.84,416.83-37.25l80.8,2.39,54.57-351.4c9.43-60.7,67.08-44.94,125.77-36.23,13.44,2,26,12.09,23.09,28.18l-66.48,367.92c98.81,9.94,269.83,34.03,320.77,121.41,7.36,31.74.41,62.72-2.31,95.59l-37.58,454.4-23.13,247.64-48.5,555.2c-.46,5.24-2.16,10.31-5.04,14.71-50.58,77.22-243.01,96.36-324.74,102.16Z"/></g><g><path fill="#fdfaf3" d="M203.72,1904.95c-12.66-70.54-21.32-137.25-30.29-207.86l-51.67-406.52-39.97-341.61-19.89-177.3-19.61-170.43c166.35,92.24,792.78,87.73,938.49,39.39l60.1-19.94c22.41-7.43,39.12-19.3,58.26-34.44,1.13,56.4-9.12,105.02-13.87,159.47l-29.01,332.49-31.35,368.91-5.59,73.11c-6.66,87.05-12.54,164.36-22.41,251.52-3.67,32.42,1.82,82.02-15.05,110.15-60.52,58.34-261.91,80.9-342.82,79.66l-64.85-.99c-126.06-1.93-247.9-8.54-370.44-55.61Z"/></g><g><path fill="#fffcf5" d="M678.92,621.83c2.54-6.75,56.61-12.44,59.23-10.62,9.23,6.42,16.08,21.73-.2,22.73-11.01,5.84-23.55,6.74-39.3,6.58l-257.41-2.57-73.77-8.19c-71.63-7.96-140.61-13.89-211.1-31.32-18.42-4.55-127.55-25.48-113.59-58.54,1.94-4.59,7.6-12.36,14.8-16.46,72.06-41.08,150.71-64.3,233.62-74.19l134.72-16.08c81.1-9.68,161.18-.85,247.62-3.01l-25.65,187.53c-1.15,8.4,23.63,4.19,31.04,4.15Z"/></g><g><path fill="#fffcf6" d="M1097.69,532.66c-24.2,79.19-257.67,91.8-328.66,102.33l38.11-192.9c72.5.35,253.1,33.99,290.55,90.57Z"/></g><g><path fill="#d9993e" d="M758.38,496.02c-7.11,18.72-14.04,42.17-20.82,70.33l-14.68,4.19c-8.35,25.09-29.14,37.4-30.33,4.22,8.09-35.82,12.28-70.82,12.58-105l60.06-397.55c2.92-19.33,15.98-30.08,27.52-38.68,10.33-7.7,41.79-7.52,45.29,5.91-6.84,83.25-29.46,162.01-42.05,244.91-11.12,73.21-18.14,143.59-37.56,211.67Z"/></g><g><path fill="#ebc06c" d="M758.38,496.02c-6.24,21.87-9.63,44.49-11.53,67.12-1.02,12.13-1.44,24.28-1.75,36.44-.83,33.12-43.3,32.88-66.18,22.25l26.21-152.07c23.6,3.71,1.08-1.92,17.51,25.53,17.44-70.03,13.01,112.63,30.51-11.92,6.59.71,4.03,7.95,5.24,12.65Z"/></g><g><path fill="#653213" d="M1008.3,1113.1l-3.12,74.92c-2.44,58.56-12.05,115.09-17.94,174.92l-36.94,375.43c-2.9,29.44-4.3,70.86-28.89,89.57-64.2,48.85-259.26,50.23-342.35,48.85-93.9-1.56-185.98-7.39-275.99-32.91-27.73-7.86-47.13-31.11-54.44-57.31-22.49-80.6-34.95-160.17-46.52-242.81l-8.92-63.64c-16.14-115.16-30.55-227.2-37.6-340.1l13.98-10.89c44.36,8.54,88.26,18.36,131.72,29.48l3.38,14.17,8.68,11.89c-7.95,44.81-7.53,99.51,11.06,138.99l16.03-7.04s61.78,28.36,185.35,85.07l14.14-4.53-5.33-14c28.99-40.3,58.3-81.23,76.76-127.58l13.3-5.02c1.26-20.6-8.32-39.78-28.75-57.54l4.24-7.74q10.97-7.35,0,0c3.31,17.13,1.09,18.49-12.79,7.93-17.52,9.64-34.55.19-51.1-28.34-12.59-38.36-30.17-48.1-52.77-29.25-17.56,14.39-33.4,18.45-47.54,12.19,4.38,19.62-12.58,22.38-20.11,4.34l-55.67-13.1c-125.24,15.4-155.13-112.03-143.8-213.33l15.58-7.59c4.36-10.79,6.63-15.83,19.81-9.03,13.38,18.13,19.89,41.49,19.51,70.09-.17,67.39,49.84,104.71,111.99,113.23,61,8.36,164.22-51.08,207.55-91.94-1.29-23.41,4.33-38,16.87-43.77l9.33-11.62c38.95,10.72,72.47,11.45,111.71,4.07l6.38,13.61c9.2,6.76,11.83,18.13,7.89,34.12,18.81,11.1,96.48,44.08,117.63,50.49,7.92,2.4,69.37-126.77,72.35-144.45l15.93-6.45c11.88-11.29,15.93-6,23.45,6.01,27.75,44.36-53.27,238.98-132.43,203.23l-91.6-43.99c-6.91,33.77-19.23,66.63-36.95,98.59,15.38,14.54,35.96,16.61,61.74,6.22,63.58-25.66,127.64-50.05,192.18-73.16,15.4,4.6,24.41.91,27.04-11.07,14.7-7.08,20.02,3.19,15.94,30.8Z"/></g><g><path fill="#643213" d="M671.13,713.38l10.27,17.88c-6.63,41.37-6.28,81.28,1.07,119.72l18.1,1.41c5.34-41.32,6.97-82.95,4.9-124.89l13.36-14.54c38.65-1.21,206.2,26.93,235.76,39.66,31.69.66,79.16,22.32,84.38,53.9,7.74,33.82-67.71,93.13-88.17,51.78-12.58,3.11-17.49.37-14.71-8.22-20.2-6.78-129.41-38.23-139.41-33.91-2.99,1.29-17.52,58.01.37,59.12,11.66-2.33,31.95-5.32,26.98,9.89-4.48,13.72-63,24.81-80.44,27.97-26.13,4.73-118.72,12.64-142.94,5.67-11.64-3.35-50.14-21.5-46.4-34.02-18.91-3.88-37.14-16.85-54.68-38.92-28.73-16.65-61.83-19.78-99.3-9.4l-112.66,27.65c-21.31,4.97-39.25,2.71-53.82-6.78-2,4.8-5.59,11.18-9.82,10.65-34.89-4.38-107.93-20.15-103.93-63.44,3.61-19.79,8.51-29.12,31.88-36.41,67.18-20.98,134.17-33.87,205.77-38.01l111.19-6.43,78.94-6.03c43.28-3.31,82.97-7.52,123.33-4.29Z"/></g><g><path fill="#c6792b" d="M1008.3,1113.1c.93-7.56-.2-19.45-4.14-25.94-14.71,20.25-27.33,16.08-50.32,22.97-14.61,4.38-28.9,9.86-43.05,15.51-28.54,11.38-56.46,24.25-84.91,35.84-30.59,12.47-95.97,44.24-123.2,9.66-22.42-28.48,49.09-69.92,26.91-130.88,40.57,14.16,67.26,32.24,104.04,49.93,15.81,7.6,55.2,3.32,67.66-10.54,24.74-27.53,94.75-160.33,47.64-183.17-8.62-3.23-12.99-8.3-13.11-15.21-55.98,25.28-115.53,41.46-175.22,54.21-6.22,16.7-14.71,25.79-25.48,27.28-21.95-3.09-45.54,9.12-69.6,4.66l-57.82-10.72c-17.56,11.03-36.96-20.82-37.3-34.82-84.46,2.38-170.34-6.94-254.62-16.38-5.28-.59-10.39-3.09-15.64-5.77-5.4-2.76-10.4-6.29-15.28-10.04-12.01-12.87,14.01-11.11,26.36-6.34,5.7-3.42,11.5-6.59,17.62-8.88,6.06-2.27,11.91-4.41,17.68-4.34,64.74.78,132.46,2.45,195.46,6.91l12.21,7.78c81.39,36.26,30.15,15.92,106.72,21.64,54.91,4.1,106.49-12.21,156.35-24.99-8-8.68-15.28-3.73-20.27-6.15-1.27-2.82-2.28-5.65-2.35-8.51-.28-10.88,124.85-44.58,141.4-16.7,35.95,11.67,42.8,27.64,102.88-43.56,1.47-5.86,3.72-5.95,6.72-.52,11.64,29.12-6.32,53.95-10.25,85.95,0,0-27.12,221.14-27.12,221.14Z"/></g><g><path fill="#c0732a" d="M231.99,918.11c-15.59,49.56,1.33,111.32,20.65,161.16,20.04,51.72,111,49.1,129.55,57.54l33.69,15.32c-.27,17.85-14.22,16.17-29.11,13.89-17.57-7.59-33.67-8.65-48.3-3.19-11.82,11.99-23.08,15.31-33.78,9.95-17.99-3-35.21-14.24-56.31-15.81-86.13-6.41-29.02-6.56-92.76-16.94-1.42-22.73-31.52-289.32-34.93-303.02,16.06-4.97,28.09,10.46,36.09,46.29l72.01,19.11,3.2,15.72Z"/></g><g><path fill="#d48c32" d="M718.82,712.96c-1.41,51.15,4.24,102.64-7.88,155.14-15.66-4.41-29.21-4.83-45.18-2.93-2.14-55.02-4-104,5.36-151.8,13.72,1.1,34.56-19.07,47.69-.41Z"/></g><g><path fill="#e5a954" d="M233.76,857.35c15.78,9.48,34.19,11.48,55.25,5.98,15.67.26,27.61,1.94,22.24,20-8.63.38-22.08-3.03-26.36,6.34-6.84,8.59-17.86,15.06-33.08,19.4-2.69,2.95-4.86,5.77-8.15,9.81-2.47,3.04-7.67,3-11.66-.78-23.15-11.73-51.65-10.85-78.07-21.73-28.14-11.59-10.09-53.58-33.24-59.39-3.46-13.95-3.05-19.37-.67-32.43-2.91,33.86,85.02,42.45,113.75,52.79Z"/></g><g><path fill="#eaad4e" d="M1045.67,806.01l-6.72.52c-26.01-20.42-53.69-40.68-84.38-53.9,27.32-13.75,53.84,4.33,76.46,19.39,19.04,12.68,10.41,23.42,14.64,33.99Z"/></g><g><path fill="#f9f9f7" d="M284.88,889.68c96.3,7.62,192.32,21.16,290.48,21.48,10.28,20.33,21.27,32.61,32.36,45.53l-2.57,50.13c-50.83,32.66-98.43,71.64-156.34,92.33-61.72,22.05-134.63-5.17-175.44-52.71-13.18-47.86-21.67-91.83-21.57-137.36.47-8.23-1.63-23.03,9.13-23.2,8.09-.13,16.24,3.19,23.95,3.8Z"/></g><g><path fill="#eaaf51" d="M865.17,1371.33c-6.81-.25-8.69-6.68-7.61-16.9.16-1.48.69-2.97,1.41-4.26,34.18-61.5-33.39-14.34-57.14,8.31-.95.91-2.02,1.65-3.21,2.2-24.73,11.34-49.14,16.25-73.22,14.72-.52-.03-1.04-.1-1.56-.19l-55.47-9.91c-6.98-1.25-11-8.5-8.58-15.16,5.93-16.33,1.29-32.86,3.67-49.51,3.79-26.6,27.76-58.52,49.23-73.08,47.92-32.48,99.63-11.39,141.63,17.01,28.51,19.28,60.18,41.22,42.46,80.61-5.62,12.5-17.19,24.41-21.1,37.63-1.42,4.8-5.49,8.73-10.5,8.55Z"/></g><g><path fill="#fcf5e1" d="M948.94,896.46c-10.86,36.21-57.74,144.84-85.87,166.97-41.59-24.94-83.67-36.36-125.88-55.4-12.91-5.82-5.7-34.24-2.06-45.29,4.75-14.42,7.74-36.49,22.17-39.75,66.11-14.97,128.4-30.93,192.2-62.78,8.87,15.71-1.12,25.04-.57,36.25Z"/></g><g><path fill="#f7d790" d="M587.37,1193.18c3.31-2.43,6.01-4.2,6.57-3.68,12.47,11.68,41.65,46.02,30.74,61.04,5.21,20.27-72.1,133.9-84.74,146.61-22.27,12.95-64.97-15.52-51.91-41.21l8.84-12.84c16.46,3.98,45.92-47.95,54.88-64.28,18.76-34.18-34.6-45.11-61.75-39.02-7.27,1.63-60.24,36.93-67.65,43.2-3.65,3.09-7.89,5.37-12.16,7.55-19.67,7.92-42.83-23.35-26.48-39.66-4.12-9.68-6.17-14.51-6.17-14.51,22.18-21.29,45-41.8,68.46-61.52-10.48-8.23-13.82-17.25-10.01-27.07,26.8-15.97,54.95-34.3,87.66-40.43,13.45,39.08,31.63,71.31,63.74,85.83Z"/></g><g><path fill="#bc702a" d="M390.42,1824.45c-33.41-2.34-60.18-9.98-92.16-25.87,53.09-37.72,305.73-5.56,400.44-16.39l86.72-9.91c29.17-3.33,52.64,11.64,76.64,34.67-185.61,41.53-281.44,30.83-471.64,17.51Z"/></g><g><path fill="#ebb257" d="M415.87,1152.12c6.41-1.4,14.24-.84,20.11-4.34,7.84,4.17,28.39,22.01,20.94,32.75-20.33,29.31-56.26,40.75-73.21,70.35l3.47,15.05c-24.32,12.64-40.51,30.31-48.56,53.01l-14.18,4.7c-23.22-10.82-28.73-21.41-26.96-54.37,1.74-32.38-9.47-67.8,7.21-96.51,55.46-53.78,61.26-9.72,111.19-20.64Z"/></g><g><path fill="#c3772b" d="M600.17,1185.26c-9.44-32.5,38.4-186.42,73.07-195.01,18.17-4.5,20.68,14.43,26.85,25.49,6.5,11.65-7.49,22.34-10.94,35.77l-26.54,103.23c-4.11,16-8.72,29.63-25.37,33.33-11.43,2.54-25.17,4.85-37.07-2.82Z"/></g><g><path fill="#fcf7e8" d="M410.18,1290.55c13.93-.15,26.96,7.79,39.07,23.8,23.58,11.28,36.51,25.14,38.77,41.58,13.52,8.41,18.32,41.59,51.91,41.21-4.16,4.19-5.27,13.95-17.69,10.56-49.99-13.64-93.06-42.63-141.44-60.1-21.35-7.71-38.82-15.78-56.38-23.96,6.09-47.13,52.96-61.74,59.27-72.76,4.04,15.88,18.07,26.05,26.48,39.66Z"/></g><g><path fill="#c77c2b" d="M874.44,1369.12c-4.81,21.27-18.9,65.47-49.76,57.15-36.23-9.76-67.01-45.02-100.07-50.93,5.52-27.18,34.67,2.17,74.21-30.79,28.17-23.49,57.46-50.63,77.71-31.83,22.72,21.1-20.13,37.48-2.08,56.4Z"/></g><g><path fill="#d58e32" d="M418.77,1527.67c-29.89,24.5-83.96,34.2-104.7-2.8-13.62-24.31,46.15-75.66,66.37-77.81,25.77-2.74,54.23,39.35,54.91,44.27,2.12,15.22-1.82,24.24-16.59,36.35Z"/></g><g><path fill="#b96f29" d="M641.77,1512.13c-20.23,10.24-38.29,9.25-57.82,3.37-8.59-18.43-7.83-38.03,1.29-57.98,19.05-3.57,42.8-1.87,58.04,13.55,9.82,9.94,3.48,28.1-1.51,41.06Z"/></g><g><path fill="#bb742c" d="M624.68,1250.54l-37.3-57.36c4.03-3,8.27-5.73,12.79-7.93,2.82,11.88,43.45,31.91,35.84,53.1-1.63,4.55-7.7,8.52-11.33,12.18Z"/></g><g><path fill="#fcf9f2" d="M554.22,884.8c-11.13,8.44-29.28,6.03-45.97,4.95-68.13-4.42-132.44-7.22-197-6.42-8.65-14.9-73.56,3.08-77.48-25.98,30.47,10.96,147.51-46.34,234.98-38.03,37.27,3.54,65.45,40.43,85.48,65.48Z"/></g><g><path fill="#f9eed1" d="M936.07,850.08c-27.48-8.91-129.84,20.82-139.05,25.21-8.43,4.02-20.07-.01-32.51.74,13.64-24.55,14.07-48.4,23.52-77.18,42.24,13.96,121.87,17.14,148.04,51.23Z"/></g><g><path fill="#cee5f4" d="M526.71,1014.13c-99.22,20.38-68.05,51.05-128.18,76.5-8.92-26.44-72.86-40.67-86.94-50.87-31.76-23.01-28.62-67.71-25.43-103.17,31.14-4.29,59.24.65,80.26,21.56,51.42,16.11,101.51,13.95,152.88,5.45,15.14-2.51,29.34,11.89,29.64,21.2.45,13.98-5.6,25.91-22.23,29.33Z"/></g><g><path fill="#eeb657" d="M488.02,1355.94c-29.72-18.48-59.1-35.07-77.84-65.39-3.33-13,3.04-24.57,18.03-29.14,20.72-6.31,32.47-21.87,53.24-32.21,27.58-13.73,91.49,4.19,89.23,39.18-7.55,26.86-37.3,50.12-46.51,76.9-5.15,14.97-26.92,10.31-36.15,10.64Z"/></g></g></g></svg>