<?xml version="1.0" encoding="UTF-8" standalone="no"?><svg xmlns="http://www.w3.org/2000/svg" xmlns:xlink="http://www.w3.org/1999/xlink" contentScriptType="text/ecmascript" fill="#000000" width="271.9" zoomAndPan="magnify" contentStyleType="text/css" viewBox="-1.5 -14.2 271.9 303.7" height="303.7" preserveAspectRatio="xMidYMid meet" version="1"><g id="change1_1"><path fill="#863b22" d="M268.2,157.4c2.2-17.3,1.9-34.7-1.1-51.1c-4.4-23.7-14.3-46.9-30.6-64.8C201,2.5,136.2-14.2,89.4,14.3 c-11.5,7-21.4,16.7-31.2,25.9c-21,19.6-46.4,44.5-54.5,72.9c-0.9,3.1-1.6,6.3-2,9.5c-3.2,21.6-2.3,50.1,7.7,69.1 c12.2,23.1,22.1,49.1,41.8,66.3c19.8,17.3,38.6,25.5,62.3,27.7c29.6,2.7,60.6-2.9,86.6-17.6C239.2,245.9,262.4,202.2,268.2,157.4z"/></g><g id="change2_1"><path fill="#c1d739" d="M260.1,155.7c3.9-23-0.8-46.6-8.3-68.7c-6.9-20.1-17.9-35.2-35.4-47.2c-11.5-7.9-24.5-16.4-37.5-21.4 c-13.4-5.1-30.1-7.5-44.4-7.8C81.1,9.2,43.1,64.9,18.7,105.9c-8.5,14.3-11.9,28.8-7.8,45c5.2,20.5,7.2,46.6,18,64.7 c10.2,17.1,27,32.4,41,46.6c27.2,27.3,69.5,17.7,102,6.2c12.7-4.5,25.6-9.5,36.2-18c11.4-9.1,18.7-21.7,26.1-34.1 C245.3,197.8,256.5,177.3,260.1,155.7z"/></g><g id="change3_1"><path fill="#fcf9d3" d="M119.5,139.1c-3.6,4.6-2.4,11.2-2.8,17c-0.3,3.7-1.3,7.4-0.6,11c1.3,6.8,8,11.1,14.1,14.5 c1.2,0.7,2.5,1.4,3.9,1.2c1.8-0.2,3.1-1.8,4.2-3.3c3.5-4.7,6.9-9.5,10.1-14.4c4-6.1,2.3-11,3.3-17.5c0.8-4.8,2-8-1.8-12 C142.7,127.8,125.4,131.4,119.5,139.1z"/></g><g id="change3_2"><path fill="#fcf9d3" d="M192.6,80.8c-0.6,5.4-4.6,9.6-8.4,13.4c-7.9,7.9-16.1,18.3-25.5,24.2C161.8,104,181.1,88.6,192.6,80.8z"/></g><g id="change3_3"><path fill="#fcf9d3" d="M190.5,121.2c6-0.8,12.3-1.3,18.2,0.4c-0.2,1.7-1.9,2.8-3.5,3.5c-10.7,4.6-26,6.8-37.4,3.9 C168.1,122.2,185.6,121.8,190.5,121.2z"/></g><g id="change3_4"><path fill="#fcf9d3" d="M214,152.6c0.4,0.2,0.9,0.5,0.9,1c0,0.5-0.5,0.8-1,1c-8.2,3.3-17.6,0.9-26-1.9c-6.1-2-14-3.8-19.2-7.4 C173.5,136.6,207.2,149.3,214,152.6z"/></g><g id="change3_5"><path fill="#fcf9d3" d="M160.7,64.3c-1.5,0-2.9,1-4,2c-5.3,4.9-8.7,11.6-10.1,18.7c-0.8,4.2-2.8,15.7,2.8,18 C156,105.6,160.4,70.3,160.7,64.3z"/></g><g id="change3_6"><path fill="#fcf9d3" d="M66.4,147.2c2.2,3,6.3,3.7,10,4.1c9.1,1.1,18.7,2.1,27.7,0c4.8-1.1,11.9-2.9,5.8-6.2 c-4.6-2.5-13.8-1.2-18.9-1.2C89.1,143.9,65.9,146.4,66.4,147.2z"/></g><g id="change3_7"><path fill="#fcf9d3" d="M92.6,164.8c-6.7,1.6-13.4,3.1-20,4.7c-2.1,0.5-4.4,1.2-5.4,3.1c3.5,2.9,8.6,2.2,13,1.2 c9.5-2.2,18.9-5,28.1-8.4C102.7,164.5,98.1,163.5,92.6,164.8z"/></g><g id="change3_8"><path fill="#fcf9d3" d="M85.5,189.1c-1.5,1.1-3,2.2-3.9,3.8c-0.9,1.6-0.9,3.8,0.4,5c1.9,1.8,5,0.6,7.1-0.8 c7.4-4.7,18.5-14.1,20.1-23.2C102.2,173.3,91.1,185,85.5,189.1z"/></g><g id="change3_9"><path fill="#fcf9d3" d="M100.6,223.9c-0.2,0.7-0.3,1.5,0.1,2.1c0.7,1,2.2,0.5,3.2-0.1c5.1-3.3,7.9-9.1,10.1-14.7 c2.7-7,5.8-12.9,9.5-19.4C114,190.3,102.5,216.8,100.6,223.9z"/></g><g id="change3_10"><path fill="#fcf9d3" d="M194.8,168.7c1.4,0.5,2.7,1,3.8,1.9c1.1,0.9,1.8,2.4,1.5,3.8c-0.6,2.2-3.4,2.9-5.7,2.8 c-6.4-0.5-11.9-4.3-17.4-7.5c-6.4-3.7-13.6-5.7-20-9C159,152.6,189.2,166.7,194.8,168.7z"/></g><g id="change3_11"><path fill="#fcf9d3" d="M196.4,201.7c0.7,1,1.2,2.8,0,3.2c-0.5,0.2-1,0-1.4-0.2c-8.9-3.6-17.1-8.6-24.8-14.2 c-3-2.2-16.8-10.7-11.9-12.9c4.9-2.3,15.6,6.8,19.4,9C184.7,190.6,191.7,195,196.4,201.7z"/></g><g id="change3_12"><path fill="#fcf9d3" d="M129.1,80.7c-0.7-3.4-1.4-6.7-2.7-9.9c-0.5-1.1-1.2-2.2-2.3-2.4c-1.9-0.3-3.1,2-3.3,4 c-0.9,7.4,2,14.6,4.6,21.6c2.8,7.7,5.2,15.6,7.3,23.6c2.1-2.9-0.1-13.1-0.2-17C132.4,93.8,130.5,87.2,129.1,80.7z"/></g><g id="change3_13"><path fill="#fcf9d3" d="M106.6,97.9c-3.3-5.1-7.3-10.1-12.8-12.8c-2.2-1.1-5.2-1.7-7-0.1c-1.5,1.3-1.7,3.6-1,5.5 c0.7,1.8,2.1,3.3,3.6,4.7c7.1,6.6,16.8,14.8,25.9,18.1C114.4,108.2,109.4,102.2,106.6,97.9z"/></g><g id="change3_14"><path fill="#fcf9d3" d="M70.8,104.4c-0.8-0.1-2.1,0-2.1,0.9c0,0.5,0.4,0.8,0.7,1.1c7.5,6.2,15.3,11.9,23.5,17.1 c2.6,1.7,13.8,10.7,14.6,5.7c0.6-3.9-8.3-11.6-10.9-13.7C89.4,109.6,80,105.9,70.8,104.4z"/></g><g id="change3_15"><path fill="#fcf9d3" d="M65.9,125.5c-1.4-0.1-3.2,0.1-3.4,1.4c6.3,3.7,12.9,7,20.1,8.3c5.9,1.1,15,2.3,20.7,0.6 C96.5,127.4,75.6,126.3,65.9,125.5z"/></g><g id="change3_16"><path fill="#fcf9d3" d="M135.6,208.8c-0.4,4.2-1.8,8.2-2.6,12.4c-0.6,2.9-0.8,6.2,1,8.6c0.4,0.6,1,1.1,1.7,1.1c0.8,0,1.5-0.6,2-1.2 c2.7-3.2,3.4-7.6,3.4-11.8c0-4.2-0.8-8.3-0.7-12.5c0-3.1,0.5-6.3-0.1-9.3c-1.2-5.7-8.4-8.9-8-0.9 C132.4,199.9,136.1,203.3,135.6,208.8z"/></g><g id="change3_17"><path fill="#fcf9d3" d="M167,206.1c2.1,2.8,4.2,6.4,2.7,9.6c-6.5-2.2-10.4-8.9-15.8-13.1c-3-2.3-16.7-12.3-5.1-12.1 C155.9,190.7,163.2,201,167,206.1z"/></g><g id="change4_1"><path fill="#1e1620" d="M157,123.1c0.1,0.6,0.5,1.1,0.9,1.5c1.7,1.4,4.3,1.2,6.2,0.1c3-1.8,9.4-9.8,5-12.1 C165,110.4,156.5,119.6,157,123.1z"/></g><g id="change4_2"><path fill="#1e1620" d="M162.3,133.8c-1.1,0.9-2.2,2.1-1.9,3.5c0.4,1.9,2.9,2.4,4.8,2.2c3.5-0.4,16.9-3.8,14.2-8.9 C176.3,124.7,165.1,131.5,162.3,133.8z"/></g><g id="change4_3"><path fill="#1e1620" d="M144.5,111c1,0.8,2,1.6,3,2.4c0.3,0.3,0.7,0.5,1.2,0.5c0.5-0.1,0.8-0.5,1.1-0.9c1.7-2.7,6.5-14.8,2.3-17.1 C146.7,92.9,145,108.2,144.5,111z"/></g><g id="change4_4"><path fill="#1e1620" d="M135.1,102.4c-3.5,1.4-6.2,4.8-6.8,8.5c-0.5,3.8,1.1,7.8,4.1,10.1c0.6,0.5,1.4,0.9,2.2,0.6 c0.6-0.3,0.9-0.9,1.1-1.5c1.6-4.6,2.7-9.3,3.4-14.1c0.2-1.8-0.3-4.4-2.1-4.2"/></g><g id="change4_5"><path fill="#1e1620" d="M104,98.1c-1.4-0.2-2.6,1.5-2.3,2.9c0.3,1.4,1.4,2.5,2.5,3.5c4.6,4.1,9.2,8.3,13.8,12.4 c0.8,0.7,1.6,1.5,2.7,1.7c6.9,1.8-0.9-7.3-2.3-8.4C115,107.6,108.1,98.9,104,98.1z"/></g><g id="change4_6"><path fill="#1e1620" d="M93.4,115.8c-1.2,0.1-2.5,0.5-3,1.5c-0.5,1.3,0.6,2.6,1.7,3.5c4.3,3.7,9.2,6.5,14.6,8.4 c6.3,2.2,7.2-3.5,3.4-7.2C106.1,118.4,98.7,115.4,93.4,115.8z"/></g><g id="change4_7"><path fill="#1e1620" d="M154.1,160.3c-1.2,1.4,0.3,3.5,1.8,4.6c3.1,2.3,20.9,14.8,17.9,4.2C172.4,163.8,158.8,155,154.1,160.3z"/></g><path fill="none" d="M120.2,186.1c-2.5,2.7-4.7,5.6-6.6,8.7c-1,1.7-2,4-0.9,5.7c1.1,1.8,3.7,1.9,5.6,1.2c5-2,7.1-9.1,3.9-13.5"/><g id="change4_8"><path fill="#1e1620" d="M97.7,143.4c-1.5,0.3-3.1,0.8-3.9,2c-0.2,0.3-0.3,0.6-0.3,1c0.1,0.5,0.5,0.9,1,1.1c3.3,2.1,7.5,1.9,11.4,1.3 c2.6-0.4,7.5-2.9,3.2-5.1C105.8,142,101.1,142.6,97.7,143.4z"/></g><g id="change4_9"><path fill="#1e1620" d="M88.2,164.3c-0.3,0.1-0.6,0.3-0.8,0.6c-0.4,0.7,0.4,1.6,1.1,2c2.5,1.4,5.6,1.7,8.5,1.2 c2.2-0.4,15.3-4.9,8.5-6.6C100.2,160.2,93,161.9,88.2,164.3z"/></g><g id="change4_10"><path fill="#1e1620" d="M104.6,173.4c-3.9,1.9-7.9,3.9-10.8,7.1c-0.3,0.3-0.6,0.7-0.5,1.1c0,0.4,0.4,0.8,0.8,1 c2,1.2,4.6,0.8,6.7-0.1c3.1-1.3,5.7-3.6,7.5-6.4C111.1,171.7,108.2,171.6,104.6,173.4z"/></g><g id="change4_11"><path fill="#1e1620" d="M110,196.7c-0.3,0.9-0.5,2.1,0.2,2.9c0.6,0.6,1.7,0.6,2.4,0.2c0.8-0.4,1.3-1.1,1.8-1.9 c0.9-1.4,6.5-9.8,3.7-10.3c-1.4-0.3-3.6,2.5-4.4,3.4C112.1,192.7,110.8,194.5,110,196.7z"/></g><g id="change4_12"><path fill="#1e1620" d="M133.1,206.6c0.2,0.3,0.4,0.6,0.7,0.5c0.2,0,0.4-0.2,0.5-0.4c1.2-1.7,1.7-3.9,2-5.9 c0.4-2.6,0.7-13.1-4.7-8.8C128.2,194.7,131.2,203.6,133.1,206.6z"/></g><g id="change4_13"><path fill="#1e1620" d="M141.9,187.5c-0.5-0.1-1-0.1-1.4,0c-0.8,0.3-1.2,1.3-1.2,2.1s0.6,1.7,1.1,2.4c2.4,3.5,5.9,6.3,9.9,7.9 c4.5,1.8,2.6-4.1,1-5.9C148.9,191.2,145.5,188.2,141.9,187.5z"/></g><g id="change4_14"><path fill="#1e1620" d="M156.3,178c-0.7-0.4-1.4-0.8-2.3-0.9c-0.8-0.1-1.7,0.2-2.2,0.8c-0.7,1.1-0.1,2.5,0.7,3.6 c2.3,2.9,5.7,4.9,9.4,5.5c3.3,0.5,2.8-3.2,1.1-4.8C161.3,180.5,158.4,179.2,156.3,178z"/></g><g id="change4_15"><path fill="#1e1620" d="M167.5,147.4c-0.6,0.2-1.2,0.5-1.6,0.9c-0.5,0.4-0.7,1.1-0.6,1.7c0.2,0.7,0.8,1.2,1.5,1.6 c2.6,1.4,5.8,1.3,8.7,1.3c2.5,0,10.1-1.5,5.3-4.6C177,145.9,171.5,145.9,167.5,147.4z"/></g><g id="change4_16"><path fill="#1e1620" d="M89.5,132.7c-1.5,0.3-3.1,0.8-3.9,2c-0.2,0.3-0.3,0.6-0.3,1c0.1,0.5,0.5,0.9,1,1.1c3.3,2.1,7.5,1.9,11.4,1.3 c2.6-0.4,7.5-2.9,3.2-5.1C97.6,131.3,93,132,89.5,132.7z"/></g></svg>