<?xml version="1.0" encoding="UTF-8" standalone="no"?><svg xmlns="http://www.w3.org/2000/svg" xmlns:xlink="http://www.w3.org/1999/xlink" contentScriptType="text/ecmascript" fill="#000000" width="227" zoomAndPan="magnify" contentStyleType="text/css" viewBox="136.5 84.0 226.9 332.0" height="332" preserveAspectRatio="xMidYMid meet" version="1"><g><g fill="#c5ecf7"><path d="M331.86,166.04c-6.73-3.57-13.92-5.67-21.46-6.61c-0.4-3.1,0.9-5.91,1.6-8.79 c4.32-17.93,8.77-35.83,13.12-53.74c1.75-7.16,0.2-9.76-6.83-11.84c-0.82-0.25-1.68-0.35-2.53-0.52 c-6.92-1.44-9.03-0.21-10.72,6.45c-2.28,8.94-4.46,17.9-6.67,26.85c-3.14,12.69-5.62,25.54-9.52,38.05 c-6.54-0.85-13.09-1.5-19.67-1.51c-1.91,0-3.92,0.2-4.72-2.19c0.16-1.62,0.57-3.4,0.57-5.05c0-1.37-0.28-2.65-1.23-3.66 c-2.17-2.34-2.23-4.95-3.01-7.54c-0.68-2.25-1.47-4.52-2.59-6.57c-2.25-4.15-3.69-4.59-7.6-1.77 c-5.32,3.83-11.93,5.97-15.54,12.13c-0.84,1.45-3.05,2.1-4.68,3.17c-2.18-2.29-4.23-4.47-6.31-6.61 c-1.05-1.08-2.23-2.72-3.62-2.49c-3.94,0.64-6.23-2.25-9.2-3.65c-2.12-0.99-4.67-2.98-6.56-1.67c-2.95,2.04-5.26,0.48-7.86,0.05 c-1.91-0.32-3.79-0.84-5.71-0.97c-5.6-0.36-6.45,0.51-6.38,6.02c0.01,0.43,0.02,0.85,0.04,1.29c0.19,5.08,3.31,10.08,0.25,15.31 c-0.45,0.77,0.5,2.45,0.97,3.63c0.8,1.98,1.76,3.9,2.65,5.84c0,0,0,0,0,0.01c-2.36,0.93-4.8,1.65-7.22,2.43 c-2.41,0.78-4.82,1.62-7.11,2.8c-5.98,3.06-9.24,7.32-7.6,14.3c-2.51,3.95-4.57,8.05-6.15,12.33c-1.59,4.28-2.7,8.75-3.34,13.43 c-1.93,13.87-0.22,27.42,2.18,41c1.98,11.2,4.69,22.32,4.18,33.82c-2.32-0.42-4.64-0.87-6.97-1.24 c-6.44-1.04-13.43,3.66-14.73,10.05c-1.78,8.83-3.52,17.67-5.05,26.53c-1.18,6.81,0.84,9.74,7.42,11.12 c7.77,1.62,15.61,2.93,23.36,4.63c3.45,0.77,5.88-0.41,7.85-2.96c1.04-1.35,1.82-2.91,2.71-4.37c1.36,1.97,1.59,4.14,1.59,6.31 c0,1.65-0.12,3.29,0.02,4.9c1.8,19.03,3.54,38.07,4.95,57.12c0.42,5.7,2.58,9.76,7.38,12.71c5.78,3.57,12.17,5.48,18.67,6.96 c24.23,5.47,48.68,5.51,73.16,2.25c9.16-1.21,18.16-3.5,26.43-7.99c5.52-2.98,9.1-7.11,8.8-13.8c-0.09-1.92,0.15-3.86,0.32-5.79 c1.98-21.17,4.02-42.34,5.97-63.51c1.52-16.69,2.92-33.39,4.37-50.09c1.67-19.25,3.37-38.52,5.01-57.78 c1.04-12.21,1.61-24.46,3.14-36.6C338.71,172.73,336.54,168.5,331.86,166.04z M174.8,280.52c-0.54-0.14-1.09-0.28-1.63-0.46 c-1.89-0.41-3.75-0.94-5.67-1.2c1.91-4.31,0.95-8.86,0.51-13.3c-0.74-7.47-2.43-14.81-3.75-22.2 c-3.27-18.16-3.99-36.24,2.48-53.99c0.14-0.28,0.27-0.58,0.41-0.85c1.16,4.63,0.52,9.45,0.98,14.15 c2.45,25.22,4.75,50.46,7.16,75.69C175.36,279.26,175.19,279.94,174.8,280.52z"/><path d="M358.18,133.61c-5.32-1.25-8.7-4.32-9.99-9.76c-0.45-1.88-0.58-4.18-3.11-5.55 c-2.36,3.96-2.15,8.75-5.26,11.92c-3.13,3.21-7.94,3.01-12.22,5.58c1.81,2.28,3.81,2.67,5.56,3.12c5.63,1.44,8.8,4.96,10.09,10.52 c0.38,1.66,0.42,3.83,2.53,4.47c1.3-0.76,1.63-1.81,1.83-2.86c1.32-7.11,5.44-11.45,12.58-12.97c1.34-0.28,3.13-0.27,3.28-2.36 C362.07,134.12,360.04,134.05,358.18,133.61z"/><path d="M274.85,122.18c1.51-5.93,5.22-9.07,10.73-10.45c-1.8-3.11-5.2-2.77-7.14-4.77 c-1.97-1.99-1.66-5.25-3.92-7.14c-2.41,2.04-1.97,5.34-3.97,7.43c-1.87,1.97-5.31,1.42-7.07,4.72 C269.87,112.6,272.42,117.13,274.85,122.18z"/></g><g><g><path fill="#68a2ba" d="M310.41,159.43c7.54,0.93,14.72,3.04,21.46,6.6c4.67,2.47,6.84,6.7,6.14,12.2 c-1.54,12.14-2.11,24.39-3.15,36.59c-1.64,19.26-3.34,38.52-5.01,57.79c-1.45,16.7-2.85,33.4-4.38,50.08 c-1.93,21.18-3.98,42.34-5.96,63.51c-0.18,1.93-0.41,3.87-0.32,5.8c0.3,6.7-3.28,10.82-8.8,13.8c-8.27,4.47-17.28,6.77-26.44,7.99 c-24.47,3.25-48.93,3.22-73.16-2.26c-6.5-1.47-12.88-3.39-18.66-6.95c-4.81-2.97-6.97-7.02-7.39-12.71 c-1.41-19.06-3.15-38.1-4.94-57.13c-0.35-3.74,0.78-7.75-1.62-11.21c-1.71-5.79,0.57-11.17,1.78-16.65 c0.23-1.04,1.22-1.69,2.47-1.1c1.76,2.21,1.44,4.86,1.57,7.41c1.37,26.39,4.07,52.68,6.61,78.97c0.34,3.52,2.12,6,4.99,7.85 c2.91,1.89,6.08,3.25,9.4,4.21c30.73,8.94,61.56,8.6,92.47,1.02c1.67-0.41,3.24-1.18,4.87-1.7c7.64-2.44,11.42-7.48,11.99-15.61 c1.49-21.21,3.76-42.36,5.56-63.55c2.24-26.33,4.91-52.62,7.14-78.94c1.52-17.97,3.18-35.94,4.41-53.93 c0.43-6.23-0.13-6.53-5.98-4.5c-7.15,2.47-14.46,4.22-21.94,5.27c-1.79,0.16-3.55,0.45-5.28,0.97c-3.46,0.76-7.09,0.3-10.51,1.39 c-2.55,0.51-5.14,0.4-7.72,0.5c-12.97,3.03-25.99,1.27-39.02,0.53c-12.65-0.71-25.33-0.87-37.84-3.18 c-2.02-0.33-4.02-0.85-6.09-0.9c-9.04-2.62-18.89-3.03-26.51-9.59c-0.73-3.07,1.09-4.17,3.64-4.7c6.09,2.13,11.82,5.57,18.64,5.08 c2.2,0.75,4.31,1.78,6.69,1.96c23.53,4.71,47.34,4.69,71.16,4.43c4.01,0.11,8.03,0.44,11.99-0.56c5.55-0.68,11.09-1.43,16.57-2.51 c1.3-0.28,2.62-0.45,3.94-0.55c8.22-1.51,16.49-2.91,24.04-6.77c1.83-0.94,4.46-1.51,4.44-4.09c-0.02-2.74-2.56-3.78-4.63-4.84 c-3.83-1.96-7.92-3.27-12.14-4.17c-2.3-0.49-4.7-0.76-6.29-2.83C308.28,160.91,308.96,159.94,310.41,159.43z"/></g><g><path fill="#408922" d="M188.66,159.64c-0.89-1.95-1.84-3.87-2.65-5.85c-0.48-1.19-1.42-2.87-0.97-3.64 c3.05-5.23-0.06-10.23-0.24-15.31c-0.02-0.43-0.04-0.86-0.04-1.29c-0.07-5.51,0.78-6.38,6.38-6.02c1.91,0.12,3.8,0.65,5.7,0.97 c2.59,0.43,4.91,1.99,7.86-0.04c1.9-1.31,4.45,0.68,6.56,1.67c2.98,1.4,5.26,4.3,9.21,3.65c1.38-0.23,2.56,1.42,3.61,2.49 c2.09,2.14,4.13,4.32,6.32,6.61c1.64-1.06,3.84-1.72,4.68-3.17c3.6-6.16,10.22-8.31,15.53-12.14c3.92-2.82,5.35-2.38,7.6,1.78 c1.11,2.06,1.91,4.32,2.59,6.57c0.79,2.6,0.84,5.21,3.01,7.55c2.07,2.23,0.95,5.74,0.65,8.71c-0.65,1.9,0.67,3.76,0.14,5.66 c-0.42,9.18-5.34,15.58-12.8,20.31c-4.13,2.61-8.85,4.27-11.92,8.48c-1.32,1.82-3.8,1.91-5.96,1.83 c-7.46-0.28-14.98-0.15-22.27-2.02c-5.95-1.53-11.34-4.04-14.34-9.92c-2.24-4.4-7.04-7-8.48-11.98 C188.26,162.93,188.43,161.29,188.66,159.64z"/></g><g><path fill="#d75b3e" d="M310.41,159.43c-0.33,0.94-0.67,1.89-1,2.83c0.41,8.78-1.76,16.93-6.04,24.56 c-1.12,0.02-2.24,0.05-3.36,0.07c-2.3-2.62-0.66-5.36-0.08-7.95c5.62-25.21,12.23-50.18,17.91-75.37 c0.58-2.57,2.07-5.45-1.85-7.11c-4.68-1.99-6.67-1.08-8.08,4.63c-5.03,20.48-9.9,41-14.8,61.51c-1.7,7.12-3.41,14.24-5.4,21.28 c-0.65,2.31-0.89,5.51-4.83,4.53c-1.11-1.05-1.41-2.41-1.52-3.85c0.75-8.28,3.2-16.21,5.16-24.24c0.36-1.7,1.33-3.08,2.32-4.44 c3.9-12.5,6.38-25.36,9.53-38.05c2.22-8.95,4.39-17.91,6.67-26.85c1.7-6.67,3.81-7.88,10.73-6.46c0.84,0.17,1.7,0.28,2.52,0.52 c7.04,2.08,8.58,4.69,6.84,11.84c-4.36,17.92-8.81,35.82-13.13,53.75C311.31,153.52,310.01,156.33,310.41,159.43z"/></g><g><path fill="#41841c" d="M181.85,305.53c-2.13,5.82-1.81,12.13-3.67,18c-0.89,1.46-1.66,3.02-2.71,4.37 c-1.97,2.56-4.39,3.72-7.85,2.96c-7.75-1.71-15.59-3.01-23.36-4.63c-6.58-1.37-8.59-4.31-7.42-11.12 c1.53-8.87,3.28-17.71,5.06-26.53c1.29-6.39,8.29-11.09,14.73-10.06c2.33,0.38,4.64,0.83,6.97,1.24c0.84-0.55,1.71-1.02,2.75-1.04 c2.33,0.15,4.55,0.85,6.82,1.34c1.94,0.65,4.04,0.84,5.84,1.94C186.2,289.53,187.17,297.55,181.85,305.53z"/></g><g><path fill="#a76940" d="M166.92,280c-1.11-0.08-2.21-0.16-3.32-0.24c0.5-11.51-2.21-22.62-4.19-33.82 c-2.4-13.58-4.11-27.15-2.17-41.01c1.3-9.36,4.45-17.86,9.49-25.76c1.05-2.57,3.05-4.21,5.4-5.52c8.45-3.01,16.02-1.59,22.47,4.71 c1.96,1.91,4.04,3.97,3.13,7.22c-2.23,0.42-3.65-0.91-5.02-2.34c-6.02-2.37-11.7-5.95-18.59-5.18c-1.62,0.78-3.02,1.79-3.75,3.51 c-0.02,0.32-0.04,0.63-0.06,0.95c-0.85,2.46-2.55,4.48-3.57,6.86c-6.47,17.74-5.75,35.83-2.48,53.99 c1.33,7.39,3.01,14.73,3.75,22.2C168.49,270.39,169.6,275.37,166.92,280z"/></g><g><path fill="#7aba34" d="M327.6,135.82c4.28-2.57,9.09-2.38,12.22-5.59c3.1-3.17,2.89-7.95,5.26-11.92 c2.51,1.36,2.66,3.67,3.11,5.54c1.29,5.44,4.66,8.51,9.99,9.76c1.85,0.43,3.89,0.51,5.29,2.13c-0.16,2.09-1.95,2.08-3.28,2.36 c-7.14,1.52-11.25,5.86-12.59,12.97c-0.2,1.05-0.53,2.1-1.82,2.85c-2.11-0.64-2.15-2.8-2.53-4.46 c-1.29-5.56-4.46-9.09-10.09-10.53C331.41,138.49,329.41,138.09,327.6,135.82z"/></g><g><path fill="#fab620" d="M285.58,111.73c-5.51,1.38-9.22,4.53-10.73,10.45c-2.44-5.05-4.98-9.57-11.39-10.21 c1.76-3.29,5.21-2.75,7.08-4.71c2-2.1,1.55-5.39,3.97-7.43c2.26,1.89,1.95,5.14,3.92,7.15 C280.38,108.96,283.78,108.63,285.58,111.73z"/></g><g><path fill="#71a6bd" d="M171.44,175.44c-1.57,1.24-3.14,2.49-4.71,3.73c-1.63-6.98,1.62-11.24,7.61-14.3 c4.58-2.35,9.59-3.37,14.32-5.23c1.75,1.09,1.2,2.69,0.94,4.23c-1.84,2.55-4.93,2.3-7.45,3.32 C177.81,168.94,173.13,170.26,171.44,175.44z"/></g><g><path fill="#6aa6bd" d="M288.85,155.89c0.32,1.43-0.09,2.68-0.9,3.84c-8.36,1.08-16.74,2.41-24.45-2.63 c0.34-1.64-0.35-3.48,0.96-4.93c0.8,2.4,2.82,2.19,4.72,2.2C275.77,154.39,282.32,155.03,288.85,155.89z"/></g><g><path fill="#c5ecf7" d="M181.85,305.53c0.14-1.04,0.07-2.16,0.44-3.12c2.92-7.52,0.62-13.93-4.05-19.88 c-3.43-7.65-2.12-15.95-3.07-23.93c-2.02-16.96-3.53-33.99-4.68-51.02c-0.58-8.57-4.08-17.33-0.11-25.98c0,0,0-0.03,0-0.03 c8.57,4.32,18.12,5.73,27.01,9.11c2.89,2.2,4.38,4.81,2.47,8.41c-3.95,1.99-8.42,0.94-12.54,2.19c-3.75,1.13-6.15,3-5.63,7.22 c1.29,10.36,1.65,20.8,2.97,31.15c0.28,1.07,0.45,2.16,0.49,3.27c0.15,8.99,1.3,17.9,2.24,26.83c0.99,10.28,1.08,20.64,2.59,30.88 c1.38,15.32,2.64,30.65,3.76,45.98c0.86,11.57,2.55,23.08,3.22,34.67c0.65,11.23,2.13,13.5,12.87,16.24 c28.27,7.22,56.62,7.88,84.92,0.06c9.47-2.62,11.52-5.28,12.18-14.9c0.44-6.44,1.38-12.83,1.92-19.26 c1.49-10.58,2.19-21.25,2.97-31.88c1.35-18.37,3.22-36.69,4.62-55.05c1.52-9.33,1.88-18.78,2.76-28.18 c1.2-12.83,2.34-25.68,3.41-38.53c0.47-5.59-1.87-7.49-7.16-8.25c-5.25-0.76-11.42,0.86-15.39-4.5c-0.63-2.45,0.29-4.42,1.93-6.16 c7.07-1.77,14.38-2.47,21.28-5.04c3.37-1.26,6.77-2.5,10.01-4.14c0,5.09,0.33,9.73-0.06,14.31c-1.48,17.52-3.24,35.01-4.79,52.52 c-1.04,11.75-1.8,23.53-2.86,35.28c-1.06,11.74-2.44,23.45-3.48,35.2c-0.49,5.56-1.03,11.12-1.4,16.67 c-1.3,19.48-3.58,38.86-5.28,58.29c-0.34,3.88-2.18,6.26-5.41,8.12c-7.97,4.6-16.76,6.67-25.67,8.08 c-12.53,1.97-25.19,3.18-37.89,2.51c-16.09-0.85-32.14-2.18-47.28-8.51c-2.21-0.93-4.25-2.08-6.22-3.36 c-2.86-1.86-4.21-4.38-4.47-8.01c-0.91-12.4-2.33-24.75-3.42-37.14c-0.57-6.41-0.66-12.84-1.39-19.26 C182.47,326.14,181.52,315.86,181.85,305.53z"/></g><g><path fill="#c9eff8" d="M263.5,157.11c8.01,2.18,16.43,0.54,24.45,2.63c-1.73,8.24-3.46,16.49-5.19,24.74 c-0.51,2.3-1.8,3.7-4.28,3.89c-2.56,0.2-4.98,0.98-7.28,2.14c-11.16,0.04-22.34,0.63-33.46-0.01 c-13.41-0.78-26.91-1.41-40.01-4.91c-6.05-10.82-15.03-14.28-26.29-10.14c-2.19-2.74-0.14-4.11,1.78-5.52 c4.88-3.59,10.53-5.09,16.38-6.05c1.2,2.3,2.78,4.29,4.58,6.15c1.99,2.05,4.67,3.48,4.93,7.02c0.14,1.81,2.47,2.79,4.08,3.85 c6.11,4.01,13.04,5.28,20.14,5.8c3.41,0.25,6.85,0.13,10.28,0.03c2.91-0.08,6.13,0.49,6.71-4.01c0.23-1.81,2.61-1.91,4.17-2.54 c6.73-2.73,11.95-7.12,16.21-13.12C263.01,163.83,261.71,160.15,263.5,157.11z"/></g><g><path fill="#fda384" d="M283.02,188.4c3.8-0.92,2.91-4.57,3.51-6.91c4.2-16.17,7.99-32.44,11.93-48.67 c2.93-12.07,6.04-24.1,8.78-36.21c0.73-3.23,1.44-4.65,4.99-3.07c2.7,1.2,5.62,2.01,9.35,1.71c-7.3,30.99-14.44,61.32-21.58,91.64 c-5.39,2.11-11.04,2.51-16.74,2.59c-0.36-0.17-0.51-0.39-0.46-0.65C282.85,188.54,282.92,188.4,283.02,188.4z"/></g><g><path fill="#b16133" d="M301.97,190.87c-0.35,1.67-0.7,3.35-1.05,5.02c0.46,7.37-1.77,14.24-4.01,21.08 c-1.51,4.62-1.28,7.94,4.52,8.78c2.13,0.31,4.35,1.42,5.26,3.37c3.71,8,9.21,15.56,6.36,25.3c-1.32,4.5-2.25,9.12-3.01,13.76 c-2.03,7.89-3.55,15.9-5.42,23.83c-1.55,6.58-3.47,7.74-10.08,6.36c-3.99-0.83-8.03-1.51-11.98-2.51 c-4.52-1.15-6.96,0.27-7.61,4.98c-0.35,2.54-1.17,5.01-2.11,7.42c-0.89,1.91-2.04,3.57-4.21,4.21c-3.72-1.82-1.44-4.81-1.34-7.31 c0.16-4.01,3.95-8.35,1.69-11.58c-1.99-2.84-7.22-1.81-10.88-3.04c-1.68-0.35-3.28-0.94-4.83-1.66c-2.64-1.42-2.98-3.85-2.89-6.48 c2.9-13.54,6.21-26.99,9.24-40.5c1.15-7.93,7.53-12.15,12.44-17.42c2.28-2.25,5.07-3.19,8.22-3.14c9.2,0.81,9.81,0.38,8.56-9.02 c-0.75-5.63-1.43-11.5-5.94-15.81c-0.87-0.32-1.68-0.76-2.39-1.36c-0.44-0.5-0.56-1.07-0.41-1.7c2.71-0.11,5.42-0.22,8.13-0.33 c5.02,3.48,5.19,9.01,5.82,14c-0.27-5.5,1.21-10.71,4.44-15.46C299.47,190.65,300.77,190.99,301.97,190.87z"/></g><g><path fill="#cbeff7" d="M280.09,193.46c0.04,0.39,0.1,0.77,0.2,1.15c0.58,2.81,0.09,5.15-2.84,6.41 c-12.81,2.13-24.96,7.6-38.32,7.11c-11.27-0.41-21.89-3.57-32.56-6.64c-1.91-0.55-3.44-1.68-4.43-3.46 c-0.95-2.35-2.27-4.67-0.86-7.3c4.57-0.44,8.93,1.09,13.44,1.43c16.73,1.28,33.45,2.38,50.24,2.28c1.05-0.01,2.26,0.03,3.12,0.53 c1.91,1.11,3.48,1.32,5.21-0.35C275.23,192.76,277.78,193.61,280.09,193.46z"/></g><g><path fill="#c7eef7" d="M303.36,186.82c2.01-8.19,4.02-16.37,6.04-24.56c4.96,1.36,9.97,2.55,14.86,4.13 c3.26,1.05,6.45,2.48,8.81,5.15c2.14,2.43,2.07,4-0.54,5.9c-2.97,2.16-6.33,3.77-9.81,4.81 C316.37,184.14,310,186.09,303.36,186.82z"/></g><g><path fill="#f5a380" d="M298.48,191.67c-0.47,5.93-3.2,11.29-4.31,18.42c-1.93-6.61-3.48-11.96-5.96-16.97 C291.44,191.26,295.09,192.39,298.48,191.67z"/></g><g><path fill="#c9e7eb" d="M174.12,178.06c7.64-3.45,13.34,0.07,18.59,5.18c-0.57,0.68-1.3,1.23-2.19,1.04 C184.73,183.08,178.85,182.07,174.12,178.06z"/></g><g><path fill="#a3856d" d="M283.02,188.4c0.08,0.36,0.16,0.72,0.24,1.08c-3.87,2.13-8.02,0.9-12.06,1.02 c1.6-2.57,3.88-4.05,6.93-3.65c2.26,0.3,3.63-0.55,4.64-2.38C282.84,185.78,282.93,187.09,283.02,188.4z"/></g><g><path fill="#a17047" d="M201.27,190.73c0.66,2.18,1.32,4.35,1.99,6.53c0.17,1.06,0.28,2.29-0.95,2.61 c-1.06,0.27-1.95-0.5-2.44-1.53c-0.83-2.55-1.66-5.09-2.49-7.64C198.7,188.87,199.98,190.09,201.27,190.73z"/></g><g><path fill="#73b121" d="M198.45,141.23c3.77,4.49,7.54,8.99,11.39,13.58c-2.33,2.14-5.27-0.08-7.72,1.94 c3.75,2.92,8.97,1.36,12.36,4.05c3.27,2.59,6.76,5.28,8.41,10.06c-4.29,1.23-8.6-0.26-13.77,1.26c4.42,2.19,7.94,3.05,11.75,3.12 c5.3,0.11,9.44,2.32,12.16,6.91c-0.69,1.14-1.82,1.83-2.73,1.69c-7.96-1.22-16.38-0.25-23.67-4.74c-1.45-0.89-3.99-1.07-2.26-4.02 c0.7-1.2-1.22-1.44-1.87-2.18c-2.99-3.36-7.66-5.51-7.26-11.22c0.11-1.61-1.9-2.74-2.97-4.08c-1.89-2.37-5.06-4.52-1.58-8.08 c0.75-0.77-0.04-2.02-0.26-3.06c-0.67-3.13-1.44-6.28-1.75-9.46c-0.53-5.5,0.66-6.37,6.28-5.1c1.46,0.33,2.93,0.65,4.39,1.01 c2.41,0.61,4.94,3.1,6.95-0.88c0.47-0.92,2.01,0.05,2.87,0.59c2.17,1.37,4.26,2.89,6.38,4.34c0.87,0.59,2,1.87,2.58,1.66 c4.73-1.73,5.69,2.3,7.87,4.69c2.04,2.23,3.95,4.43,6.68,6.26c3.5,2.35,4.7,7.6,4.95,12.15c0.32,5.77,0.08,11.58,0.08,18.15 c-4.88-3.03-8.2-5.95-7.8-11.8c0.29-4.15,0.7-8.51-1.84-12.38c-2.81,3.74-1.98,7.71-0.56,12.09c-3.94-0.7-4.78-3.81-6.47-5.97 c-2.05-2.64-2.04-6.04-3.17-8.99c-1.06-2.78,0.03-6.15-3.11-9.1c-0.5,4.09-0.58,7.57,1.03,12.15 C209.17,150.67,204.92,144.69,198.45,141.23z"/></g><g><path fill="#78b120" d="M241.7,177.01c2.11-10.27,6.15-19.28,7.29-29.03c-3.66,4.33-3.39,10.43-7.4,15.62 c-1.61-6.04-3.15-11.29-5.51-16.23c-0.54-1.14-0.05-2.02,0.62-2.93c2.86-3.89,4.59-8.84,10.17-10.12 c1.36-0.31,2.47-1.66,3.74-2.46c3.44-2.17,3.58-1.96,5.38,1.9c2.06,4.43,2.14,9.39,4.61,13.82c1.76,3.17-0.14,7.11-1.42,10.56 c-0.72,1.93-2.43,3.61-1.24,6.02c0.53,1.08-0.28,2.03-1.02,2.84C252.83,171.44,248.47,175.51,241.7,177.01z"/></g><g><path fill="#fcd257" d="M180.29,294.74c-2.2,9.18-2.58,18.93-5.69,28.09c-1.55,4.58-3.38,5.53-7.76,4.65 c-7.35-1.48-14.68-3.05-21.99-4.72c-4.74-1.08-5.55-2.38-4.69-7.2c1.43-8,2.9-16,4.46-23.98c1.42-7.25,6.07-10.41,13.24-9.17 c4.85,0.84,9.72,1.63,14.55,2.57C176.46,285.76,180.28,290.51,180.29,294.74z"/></g><g><path fill="#6ba5bd" d="M173.7,281.56c1.22-0.73,1.72-1.69,1.57-3.19c-2.4-25.23-4.71-50.47-7.16-75.7 c-0.51-5.3,0.38-10.74-1.51-15.91c0.85-2.01,1.79-3.95,3.76-5.15c0.58,14.53,2.21,28.96,3.69,43.41 c1.19,11.69,1.9,23.42,2.95,35.13c0.66,7.45,1.84,14.87,1.23,22.39C176.74,282.16,175,282.89,173.7,281.56z"/></g><g><path fill="#fd8168" d="M310.19,363.92c0.22,8.2-1.67,16.23-1.95,24.38c-0.17,5.08-2.91,7.6-7.42,9.26 c-8.53,3.14-17.34,5.01-26.3,6.16c-19.59,2.51-39.06,1.22-58.38-2.55c-5.26-1.03-10.46-2.43-15.37-4.74 c-2.75-1.29-4.43-3.07-4.7-6.29c-1.19-14.32-3.32-28.57-3.71-42.96c-1.17-4.39-0.56-8.87-0.45-13.29 c0.12-4.91,3.72-7.61,10.08-8.35c2.83,1.72,1.58,4.22,0.9,6.3c-10.18,30.96,17.17,66.68,52.98,63.84 c12.25-0.97,22.07-6.33,29.88-15.72c1.83-2.2,1.26-3.7-0.43-5.52c-4.68-5.05-9.75-9.66-15.17-13.92 c-2.06-1.62-4.46-1.35-6.76-1.63c-3.73-0.46-5.5-2.32-4.48-6.1c1.1-4.1,1.19-8.54,3.98-12.09c2.35-1.41,4.03,0.34,5.75,1.38 c2.72,1.65,5.54,3.12,8.28,4.73c5.05,2.97,9.27,1.98,13.1-2.13c1.43-1.54,2.64-3.36,4.82-4.03c2.72-0.66,5.44-0.54,8.18-0.11 c0.72,0.13,1.4,0.36,2.07,0.66c4.67,1.77,6.55,4.94,5.73,10.01C310.15,355.4,311.41,359.73,310.19,363.92z"/></g><g><path fill="#febb77" d="M199.87,198.33c1.52,0.87,2.86,1.17,3.39-1.07c0.72,0.77,1.32,2.01,2.17,2.22 c11.63,2.81,23,6.85,35.23,6.85c6.77,0,13.17-1.47,19.62-3.09c5.8-1.45,11.45-3.73,17.6-3.38c2.33,9.38-1.03,17.64-5.11,25.76 c-1.44,1.57-2.77,3.27-4.36,4.68c-3.39,3.01-6.24,6.33-7.33,10.86c-7.08,2.71-14.24,4.53-21.54,0.95 c-2.3-1.13-4.58-0.58-6.88-0.67c-3.68-3.65-3.21-8.69-4.28-13.17c-2.32-9.72-9.59-14.19-19.2-11.37 c-3.7,1.08-7.36,2.31-10.97,3.67c-5.95,2.25-7.09,4.34-6.31,10.82c0.92,7.66,2.17,15.19,7.61,21.23c-0.09,0.86-0.3,1.9-1.08,2.15 c-7.35,2.35-10.7,8-12.55,14.93c-0.29-0.57-0.82-1.14-0.82-1.71c-0.01-8.58-2.12-17.02-1.72-25.62c3.83,0.26,2.06,3.84,3.81,6.3 c-0.41-3.84,2.33-8.15-3.9-8.6c-2.13-6.16-1.08-12.7-2.27-19.01c-0.75-3.96-0.56-8.09-1.18-12.14c-0.97-6.35,0.02-7.34,6.01-9.16 C190.45,198.35,195.17,198.66,199.87,198.33z"/></g><g><path fill="#fd966d" d="M202.71,326.32c-7.5,1.62-10.23,4.8-10.25,11.9c-0.01,2.99-0.06,5.98-0.09,8.97 c-0.27-0.57-0.76-1.14-0.78-1.72c-0.43-14.95-2.98-29.76-3.12-44.73c-1.11-3.99-0.45-8.06-0.47-12.09 c-0.02-4.37,2.64-6.03,6.62-4.44c1.63,0.65,3.08,1.73,3.87,3.25c3.28,6.28,8.84,9,15.43,10.21c8.79,6.1,17.61,2.66,26.29-0.2 c4.08-1.35,6.25-4.97,7.85-8.82c1.43-1.91,0.21-5.38,3.6-6.13c0.28,2.1-0.39,4.7,2.78,5.29c2,2.4,1.73,5.09,1.13,7.89 c-3.32,15.39-7.21,30.64-10.84,45.96c-0.46,1.94-0.48,4.54-3.7,4.07c-2.49-1.1-3.53-3.33-3.38-5.74 c0.35-5.41-2.69-8.85-6.38-11.96c-4.27-3.6-8.69-7.04-12.85-10.73c-3.57-3.17-5.86-1.97-8.57,1.02 C207.44,320.94,206.49,324.9,202.71,326.32z"/></g><g><path fill="#fca972" d="M251.67,282.5c-2.02,1.72-0.05,4.69-2.02,6.42c-3.3-4.94-2.95-11-5.07-16.37 c-3.66-9.24-5.88-10.55-15.56-8.06c-18.4,4.74-23.19,9.12-15.32,27.93c0.88,2.09,1.98,4.39,0.66,6.8c-2.7-0.55-5.47-0.88-8.1-1.69 c-3.89-1.2-6.47-4-8.15-7.66c-1-2.18-2.25-4.15-4.83-4.75c-2.89-0.66-4.52,0.42-4.65,3.42c-0.18,4.05-0.12,8.11-0.16,12.17 c-2.12-6.57-1.05-13.49-2.24-20.18c-0.63-3.53-0.26-7.23-0.34-10.85c0.45-3.65-0.82-7.55,2.56-10.72c1.9-1.78,3.36-3.64,6.23-3.86 c1.66-0.12,3.26-0.94,4.25-2.51c0.9-0.75,2.04-0.97,2.99-0.47c5.29,2.78,10.66,2.16,16.07,0.55c3.57,0.23,7.05,1.32,10.7,0.94 c5.68-0.58,8.98-3.57,4.63-8.54c-0.55-0.63-0.86-1.45-1.14-2.26c-0.11-0.63,0.01-1.21,0.39-1.73c2-2.31,4.38-3.95,6.99-1.22 c3.19,3.35,7.13,2.98,10.75,2.18c3.62-0.8,7.16-0.96,10.78-0.92C258.73,255.11,255.44,268.86,251.67,282.5z"/></g><g><path fill="#fd9c6e" d="M310.19,363.92c-0.03-3.66-0.33-7.34-0.02-10.96c0.47-5.39-1.62-9.02-6.53-11.13 c1.35-2.19,5.7-2.17,4.74-5.94c-0.64-2.51-3.06-0.61-4.03,3.54c-0.19,0.82-0.24,1.67-0.7,2.41c-2.96,0.01-5.93,0.03-8.89,0.04 c-1.21-2.83,1.24-4.29,2.45-6.09c4.43-6.57,4.08-13.09-1.75-18.25c-4.33-3.83-9.43-6.63-14.62-9.25c-3.3-1.67-6.27,0.45-9.4,0.15 c0.84-4.17,1.66-8.34,2.52-12.5c0.55-2.63,2.1-3.36,4.74-2.74c5.82,1.37,11.69,2.51,17.54,3.77c4.8,1.03,5.07,0.99,6.16-3.58 c1.79-7.47,3.42-14.98,5.07-22.48c0.23-1.06,0.38-2.1,1.23-2.88c1.04,0.08,2.08,0.22,3.13,0.29c7.13,0.46,7.13,0.46,6.1,7.73 c0.24,9.64-1.38,19.15-2.11,28.72c-0.54,7.02-1.19,14.03-1.77,21.05c-0.98,11.92-1.92,23.83-2.94,35.75 C311.05,362.39,310.51,363.14,310.19,363.92z"/></g><g><path fill="#fdb976" d="M317.93,276.07c-0.03-1.04-0.1-2.08-0.1-3.12c0.01-2.77-1.11-3.84-3.9-2.79 c-2.32,0.87-4.58,1.28-5.23-2.12c-0.22-6.08,2.72-11.59,3.18-17.55c0.02-0.2,0.22-0.4,0.23-0.59c0.15-8-4-14.52-7.71-21.07 c-0.94-1.65-3.76-1.68-5.9-2.09c-5.14-0.99-5.38-1.34-4.13-6.23c2.09-8.23,4.35-16.41,6.54-24.61c0.21,2.7,2.14,2.63,4.17,2.8 c4.91,0.41,9.85,0.76,14.7,1.62c5.21,0.93,5.26,1.37,4.79,6.84c-1.44,16.86-2.57,33.76-4.42,50.57 C319.49,263.83,320.12,270.14,317.93,276.07z"/></g><g><path fill="#fca972" d="M183.26,240.07c0.68-2.75,1.83-3.94,4.12-1.2c3.37,4.03,1.02,8.41,0.71,12.65c-0.02,0.33-1,0.85-1.51,0.83 c-0.52-0.02-1.34-0.52-1.45-0.96c-0.3-1.21-0.31-2.49-0.42-3.75c-0.16-1.84,0.51-3.88-1.36-5.27 C183.32,241.6,183.29,240.84,183.26,240.07z"/></g><g><path fill="#fde0c3" d="M254.93,284.49c3.47-15.12,6.83-29.74,10.17-44.36c0.5-2.19,1.65-3.92,3.32-5.38 c1.62-1.41,3.56-2.64,4.71-4.37c3.17-4.77,7.16-5.25,12.21-3.51c2.33,0.81,4.07,1.25,3.06,4.23c-0.29,0.84,0.11,1.7,1.11,1.97 c1.06,0.29,1.69-0.47,1.97-1.23c0.69-1.89,1.84-3.03,3.85-2.31c2.89,1.04,6.83,0.15,8.36,3.82c3.02,7.24,6.65,14.04,4.05,22.72 c-3.37,11.27-5.3,22.97-7.77,34.5c-0.44,2.03-0.76,3.98-3.51,3.36C282.68,290.82,268.91,287.67,254.93,284.49z"/></g><g><path fill="#fbd1c3" d="M271.46,308.45c3.65-3.58,7.54-3.5,11.68-0.86c3.99,2.54,8.09,4.9,12.07,7.46 c4.99,3.22,6.22,8.5,7.2,13.83c0.38,2.04-0.64,3.69-1.91,5.27c-2,2.51-3.83,5.15-5.73,7.74c-10.6,12.15-12.26,9.85-24.3,3.29 c-2.42-1.32-4.7-2.92-7.04-4.39c-1.17,0.06-1.94-0.6-2.58-1.46c-5.38-13.21-3.15-20.98,7.84-27.3 C269.61,310.83,270.53,309.64,271.46,308.45z"/></g><g><path fill="#fc966d" d="M268.69,312.02c-0.84,2.35-2.83,3.8-4.58,5.29c-4.51,3.84-5.22,8.67-4.14,14.01 c0.55,2.71,1.48,5.35,2.24,8.02c-0.75,3.54-1.61,7.05-2.5,10.56c-2.05,8.02-6,9.47-12.81,4.64c-1.79-1.27-3.3-2.73-3.64-5.05 c3.54-18.6,8.48-36.89,12.77-55.33c0.43-1.87,0.85-3.77,2.56-5c4.19,0.83,8.37,1.67,13.02,2.59c0.16,6.09-2.77,11.54-3.37,17.38 C268.12,310.22,267.67,311.19,268.69,312.02z"/></g><g><path fill="#fba582" d="M283.11,194.72c2.58-0.08,3.04,2.07,3.8,3.76c3.27,7.21,4.17,14.8,3.64,22.64 c-0.17,2.55-1.37,3.57-3.75,2.89c-2.08-0.6-4.16-1.08-6.32-1.16c-2.57-0.58-4.59-1.86-3.97-4.8 C278.16,210.12,278.76,201.88,283.11,194.72z"/></g><g><path fill="#e97048" d="M258.59,289.16c-1.03,7.66-3.57,14.97-5.31,22.47c-2.65,11.45-5.23,22.92-7.88,34.37 c-0.29,1.24-0.85,2.41-1.29,3.61c-3.53-0.11-5.25-1.52-3.78-5.23c0.93,0.23,2.16,1.15,2.47-0.59c3.01-16.5,7.75-32.61,11.26-49 c0.5-2.34,0.45-4.66,0.36-7C255.83,288.25,257.21,288.71,258.59,289.16z"/></g><g><path fill="#e4683b" d="M283.11,194.72c-0.74,7.22-3.12,14.07-4.89,21.05c-0.74,2.92-0.86,5.46,2.26,7.07 c-2.98-0.23-5.5,0.82-7.7,2.77c1.59-8.61,4.42-16.97,5.11-25.76c1.62-1.37,0.87-3.82,2.4-5.24 C281.23,194.65,282.17,194.68,283.11,194.72z"/></g><g><path fill="#d14b18" d="M170.59,301.87c2.42,4.53,1.02,8.37-2.41,11.58c-3.68,3.45-8.05,4.94-13.04,3.22 c-4.36-1.5-6.79-5.84-6.63-11.41c0.16-5.55,2.41-8.75,7-10.38c1.9-0.67,3.79-0.62,5.72-0.6c1.54,0.92,2.36,2.11,1.44,3.93 c-0.95,0.6-2.02,0.61-3.1,0.6c-4.67-0.06-6.62,2.71-6.65,6.91c-0.02,3.48,1.32,6.58,5.21,7.06c4.36,0.53,7.42-1.57,8.87-5.81 c0.62-1.81-0.37-3.92,1.08-5.56C169.02,301.01,169.88,301.04,170.59,301.87z"/></g><g><path fill="#4e8514" d="M162.15,298.03c-0.3-1.25-0.61-2.51-0.91-3.76c0.26-0.31,0.73-0.9,0.75-0.89 c3.28,2.5,7.71-0.09,10.98,2.53c1.74,1.39,1.84,2.7,0.12,4.1c-0.8,0.66-1.66,1.24-2.49,1.86c-0.85,0.01-1.71,0.03-2.57,0.04 C164.76,302.59,162.82,301.27,162.15,298.03z"/></g><g><path fill="#d94434" d="M240.34,344.38c0,2.65,1.81,4,3.78,5.23c0.99,1.11,1.82,2.44,3,3.29c7.11,5.13,9.18,4.21,11.54-4.2 c0.89-3.17,0.5-6.97,3.55-9.36c0.41,0.48,0.81,0.96,1.22,1.44c-1.09,4.36-2.1,8.74-3.28,13.07c-0.6,2.19,0.09,3.79,2.28,3.35 c6.91-1.41,10.66,3.5,14.97,7.13c3.45,2.9,6.55,6.23,9.69,9.48c3.08,3.18,3,3.7,0.28,6.97c-13.01,15.6-29.72,19.79-48.78,14.9 c-19.59-5.03-31.69-18.33-37.62-37.23c-2.74-8.72-2.86-17.72,0.22-26.56c0.63-1.81,1.01-3.71,1.51-5.57 c2.46-4.3,5.06-8.47,8.64-11.99c1.79-1.76,3.19-2.48,5.42-0.52c5.95,5.26,12.03,10.38,18.15,15.45c2.86,2.37,4.44,5.11,4.02,8.92 C238.7,340.36,239.28,342.45,240.34,344.38z"/></g><g><path fill="#fddebe" d="M232.57,241.1c-0.04,0.43-0.04,0.86,0,1.29c0.36,6.23-4.29,8.19-8.77,10.34 c-1.77,0.85-3.87,0.09-5.56,1.23c-6.72,3.59-13.05,1.65-19.31-1.35c-4.29-2.59-6.85-6.07-7.14-11.35 c-0.23-4.24-1.55-8.41-1.91-12.65c-0.45-5.35,0.65-7.09,5.45-8.9c5.21-1.97,10.49-3.86,15.87-5.28 c7.91-2.09,16.99,3.69,18.58,11.55C230.8,231,231.64,236.06,232.57,241.1z"/></g><g><path fill="#fcd0b9" d="M214.35,299.24c-1.8-5.26-3.69-10.48-5.38-15.77c-2.21-6.93-0.15-13.02,6.41-16.22 c6.31-3.08,13.17-4.85,20.25-5.63c4.62-0.51,7.25,1.51,8.77,5.68c2.55,7.02,5.64,13.9,5.24,21.63c-2.13,6.7-6.5,10.76-13.61,11.76 c-2.52,0.35-5.1,0.68-7.47,1.52C223.14,304.12,218.55,302.79,214.35,299.24z"/></g><g><path fill="#febb77" d="M218.24,253.96c1.14-1.4,2.77-1.94,4.39-2.41c4.85-1.41,8.05-4.56,9.93-9.16 c1.23,0.55,1.93,1.58,2.65,2.67c3.82,5.81,2.65,8.82-4.35,10.04C226.64,255.84,222.35,255.41,218.24,253.96z"/></g><g><path fill="#fd8168" d="M303.66,341.84c-1.42-2.17-1.45-4.31,0.02-6.5c1.06-1.57,1.94-3.59,4.19-3.31 c2.06,0.25,1.91,2.47,2.64,3.92c1.29,2.56-0.74,3.26-2.13,4.47c-1.4,1.21-2.98,1.49-4.72,1.41 C303.65,341.83,303.66,341.84,303.66,341.84z"/></g><g><path fill="#d17139" d="M302.17,268.55c-1.15,6.59-2.75,13.47-4.8,20.23c-0.64,2.12-2.26,2.18-4.16,1.7 c-4.15-1.05-8.33-2-12.51-2.93c-6.06-1.36-12.14-2.63-18.2-4.01c-2.92-0.66-4.44-2.04-3.43-5.49c1.61-5.54,2.89-11.19,4.12-16.83 c0.78-3.55,2.75-4.97,6.36-4.88c4.2,0.11,8.27,0.75,11.53,3.39c3.99,3.23,8.3,4.21,13.23,3.46c1.26-0.19,2.6-0.2,3.85,0.02 C300.85,263.68,302.22,265.39,302.17,268.55z"/></g><g><path fill="#fb915f" d="M162.15,298.03c1.31,2.27,3.77,2.81,5.88,3.88c2.31,4.09,0.8,7.42-2.25,10.28 c-3.32,3.12-8.87,3.43-11.73,0.85c-3.5-3.15-4.11-9.94-1.14-13.49C155.52,296.43,158.73,296.48,162.15,298.03z"/></g><g><path fill="#fec552" d="M211.72,319.82c1.54-2.93,3.39-3.35,5.97-1.03c4.86,4.36,9.86,8.58,14.8,12.85 c1.06,1.24,1.01,2.66,0.92,4.21c-1.22,22.08,12.79,32.53,34.09,25.46c3.02,0.02,4.29,2.62,6.14,4.28c3.2,2.86,6.28,5.87,9.32,8.9 c3.18,3.18,3.15,3.24-0.1,6.58c-0.74,0.76-1.64,1.37-2.47,2.05c-18.53,12.41-40.29,10.11-56.49-5.32 c-11.71-11.15-17.98-24.25-17.74-40.5C206.26,330.82,208.56,325.23,211.72,319.82z"/></g><g><path fill="#f98361" d="M211.72,319.82c-2.46,7.11-4.4,14.25-3.8,21.94c0.91,11.49,4.63,21.74,12.68,30.16 c4.89,5.12,9.85,10.02,16.57,13.06c12.71,5.73,25.19,6.14,37.84,0.21c1.74-0.81,3.34-2,5.37-2.07 c-4.58,5.93-11.25,8.52-18.04,10.26c-24.32,6.24-54.99-11.9-59.18-39.95C201.38,341.4,202.66,329.44,211.72,319.82z"/></g><g><path fill="#f88a62" d="M267.5,361.31c-5.93,4.89-16.91,5.39-24.07,1.1c-9.56-5.73-14.04-16.2-11.56-26.99 c0.29-1.24,0.42-2.52,0.62-3.78c1.78,0.7,2.69,2,2.7,3.91c0.05,14.41,14.25,27.52,29.76,25.64 C265.79,361.1,266.65,361.27,267.5,361.31z"/></g></g></g></svg>