<?xml version="1.0" encoding="UTF-8" standalone="no"?><svg xmlns="http://www.w3.org/2000/svg" xmlns:xlink="http://www.w3.org/1999/xlink" contentScriptType="text/ecmascript" fill="#000000" width="271" zoomAndPan="magnify" contentStyleType="text/css" viewBox="114.7 81.0 270.7 338.0" height="338" preserveAspectRatio="xMidYMid meet" version="1"><g><g><path fill="#371331" d="M250.56,419c-15.24-0.45-30.08-1.46-44.46-5.84c-6.15-1.87-12.07-4.26-17.38-7.99 c-5.17-3.63-8.33-8.26-8.86-14.84c-1.63-20.19-3.52-40.36-5.34-60.54c-2.3-25.53-4.62-51.05-6.93-76.58 c-0.89-9.88-1.89-19.76-2.62-29.65c-0.21-2.82-1.02-3.82-4.02-3.95c-23.81-1.04-44.05-19.6-46.1-44.58 c-2.16-26.23,13.61-48.08,38.49-54.04c20.79-4.98,42.47,4.28,53.61,23.33c2.16,3.7,4.22,4.46,8.3,3.92 c7.98-1.05,16.03-1.72,24.12-1.85c5.67-0.09,5.67-0.24,7-5.45c2.47-9.72,4.83-10.52,12.81-4.41c2.17,1.66,3.68,4.26,7.31,3.73 c2.07-0.3,3.29,2.29,4.38,3.98c1.49,2.32,3.37,3.33,6.13,3.37c2.88,0.05,5.76,0.53,8.63,0.87c4.6,0.55,4.66,0.58,5.8-3.9 c4.8-18.81,9.55-37.64,14.33-56.45c1.57-6.17,3.79-7.72,10.04-6.97c1.64,0.2,3.28,0.5,4.87,0.95c7.84,2.2,9.54,5.26,7.55,13.02 c-4.6,18.01-9.04,36.06-13.79,54.02c-0.87,3.29-0.22,4.26,3,5.02c5.63,1.33,11.01,3.52,15.93,6.68c5.13,3.3,7.44,7.5,6.83,14.01 c-2.95,31.28-5.39,62.6-8.17,93.9c-3.06,34.59-6.29,69.17-9.43,103.75c-0.54,5.97-1.24,11.94-1.43,17.92 c-0.18,5.64-2.66,9.84-6.81,13.33c-5.66,4.76-12.36,7.4-19.34,9.44C280.39,417.48,265.38,418.78,250.56,419z"/></g><g><path fill="#8cc343" d="M148.19,327.28c0.78,1.18,1.29,1.63,1.41,2.16c1.33,6.38,4.25,11.16,11.46,11.89 c0.79,0.08,1.63,0.54,1.85,1.44c0.25,0.99-0.49,1.65-1.25,1.76c-7.42,1.14-10.58,6.37-12.53,12.83c-0.09,0.3-0.62,0.47-1.26,0.93 c-2.96-2.65-2.39-7.28-5.38-9.94c-2.75-2.44-6.71-2.79-9.89-5.59c3.53-2.3,7.41-2.72,10.2-5.28 C145.69,334.83,145.38,330.61,148.19,327.28z"/></g><g><path fill="#fce123" d="M351,210.11c8.14-1.86,11.92-7.43,13.75-15.13c3.76,2.92,3.35,7.32,5.97,9.95 c2.69,2.69,6.62,3.17,10.04,5.53c-2.9,2.96-7.05,2.99-9.71,5.57c-2.65,2.57-2.86,6.32-4.91,9.56c-3.78-1.93-3-6.49-5.45-9.09 C358.07,213.71,354.15,213.22,351,210.11z"/></g><g><path fill="#8fc351" d="M231.64,115.01c-0.15,4.03-3.19,6.85-7.3,6.78c-4.2-0.08-6.76-2.89-6.61-7.27c0.14-4.2,3.07-7,7.14-6.86 C228.77,107.8,231.79,111.08,231.64,115.01z"/></g><g><path fill="#fce324" d="M357.03,254.12c3.91,0.03,7.08,3.12,7.15,6.96c0.07,3.85-3.1,7.07-6.95,7.07c-3.85,0-7.12-3.18-7.17-6.95 C350.02,257.36,353.25,254.09,357.03,254.12z"/></g><g><path fill="#a4cc54" d="M138.93,304.25c-4.27,2.12-7.82,3.84-8.73,9.44c-2.59-4.47-4.74-7.83-8.9-8.92 c1.03-2.59,3.67-2.25,5.06-3.78c1.37-1.5,1.33-3.84,3.55-5.37C131.23,299.91,134.27,302.44,138.93,304.25z"/></g><g><path fill="#cadc5b" d="M149.7,283.14c-2.38-0.12-4.49-2.11-4.46-4.21c0.03-2.31,2.63-4.61,5.01-4.45 c2.16,0.15,4.09,2.42,4.01,4.71C154.18,281.55,152.2,283.27,149.7,283.14z"/></g><g><path fill="#fae436" d="M385.34,240.62c-0.08,2.37-1.96,4.14-4.39,4.1c-2.57-0.04-4.26-1.74-4.18-4.21 c0.08-2.38,2.06-4.31,4.32-4.23C383.43,236.36,385.42,238.38,385.34,240.62z"/></g><g><path fill="#caebfa" d="M180.85,357.36c-1.67-17.48-3.38-34.96-5.01-52.44c-2.4-25.72-4.75-51.44-7.1-77.16 c-1.34-14.61-2.65-29.22-3.93-43.84c-0.13-1.43-0.02-2.88-0.02-4.79c12.71,6.94,26.41,9.74,40.21,12.15 c16.77,2.93,33.71,3.79,50.69,3.12c17.97-0.7,35.96-1.54,53.55-5.81c4.61-1.12,9.19-2.37,13.75-3.68 c4.36-1.25,8.34-3.37,12.84-6.12c0.33,8.73-1,16.8-1.65,24.88c-1.73,21.42-3.8,42.81-5.71,64.22c-1.78,19.97-3.53,39.94-5.32,59.9 c-0.07,0.8-0.45,1.56-0.69,2.34c-5.03-0.32-6.02-4.17-6.65-7.99c-0.59-3.61-0.06-7.31-0.37-10.96c-0.29-8.62,1.35-17.11,1.74-25.69 c1.18-9.16,1.71-18.38,2.5-27.56c1.42-16.58,3.49-33.1,4.56-49.7c-0.15-1.65,0.09-3.32-0.04-4.97c-2.51-6.16-6.39-8.49-12.71-7.51 c-3.01,0.47-5.98,1.17-8.97,1.8c-1.59,0.15-3.1,0.67-4.65,1.01c-5.38,0.53-10.66,1.97-16.12,1.69c-1.36,0.05-2.71,0.17-4.06,0.3 c-5.03,1.47-10.22,0.8-15.33,1.07c-3.46,0.02-4.96,2.64-6.41,5.08c-2.75,4.65-6.29,6.22-11.83,5.13 c-8.23-1.62-16.46-3.57-24.83-4.25c-5.26-0.43-6.92-4.28-9.28-7.71c-7.28-2.04-14.77-2.92-22.19-4.15 c-5.15-0.86-9.08,1.56-11.31,6.4c-0.48,1.97-0.07,3.96-0.22,5.94c3.24,24.47,4.57,49.12,7.23,73.64 c1.36,18.85,3.03,37.68,4.89,56.49c0.37,3.7,0.45,7.39,0.42,11.09c-0.31,2.83-0.09,5.68-0.32,8.51c-0.15,1.87-0.68,3.59-1.97,5 c-1.13,1.23-2.48,2.54-4.16,1.92c-1.62-0.6-0.88-2.46-1-3.8C181.28,359.72,181.55,358.47,180.85,357.36z"/></g><g><path fill="#bde6f8" d="M180.85,357.36c2.02,1.71,0.56,4.29,1.61,6.61c3.24-1.35,4.61-3.6,4.5-6.95c-0.08-2.43,0.03-4.87,0.06-7.31 c3.21,0.83,2.72,3.59,2.86,5.84c0.17,2.59-0.09,5.21,0.75,7.73c0.28,1.21,0.39,2.44,0.46,3.68c0.66,11.85,1.64,13.63,12.86,17.27 c29.9,9.69,60.03,10.1,90.26,1.41c2.39-0.69,4.56-1.92,6.85-2.87c5.54-2.3,8.68-6.14,8.38-12.35c1.23-10.12,1.95-20.29,2.78-30.44 c0.74-7.36,1.52-14.71,2.04-22.09c0.17-2.49-0.53-5.56,2.96-6.65c0.03,2.65,0.24,5.31,0.05,7.95c-0.33,4.69,1.43,8.26,5.19,10.94 c-0.23,14.18-2.15,28.24-3.32,42.35c-0.51,6.13-0.47,12.33-1.89,18.37c-5.09,6.33-11.75,10.45-19.32,12.94 c-19.7,6.49-39.9,8.7-60.58,6.58c-7-0.72-13.96-1.48-20.88-2.84c-11.79-2.32-22.16-7.73-32.21-13.95 c-1.67-4.75-1.1-9.78-1.63-14.66C181.86,371.76,180.67,364.61,180.85,357.36z"/></g><g><path fill="#fdfba5" d="M202.26,186.92c-1.95,0.48-3.58-0.62-5.35-1.06c-0.36-0.79-0.33-1.6-0.12-2.41 c2.3-9.32,2.31-9.32-7.03-9.35c-3.71-0.01-7.45,0.27-11.13-0.08c-3.79-0.36-5.12,1.47-5.48,4.74c-4.32-0.93-7.14-3.78-9.38-7.36 c-0.58-0.92-1.19-1.79-2.37-1.35c-1.16,0.43-1.12,1.6-1.12,2.62c0,1.63,0.07,3.26,0.1,4.89c-3.94,5.29-9.15,9.37-13.59,14.19 c-4.49,4.87-4.01,7.04,1.89,10.18c4.55,2.42,9.42,2.44,14.32,2.56c0.54,2.13,0.72,4.28,0.39,6.47c-1.87,1.83-4.16,1.52-6.42,1.23 c-19.55-2.57-34.09-19.95-35.22-39.73c-1.36-23.69,16.4-44.01,37.24-45.85c34.69-3.06,54.74,27.89,46.38,55.85 C204.82,184.29,204.05,185.97,202.26,186.92z"/></g><g><path fill="#fde71f" d="M284.23,188.38c8.27-33,16.43-65.59,24.7-98.61c4.95,2.19,9.67,4.1,14.65,3.68 c1.59,1.63,0.43,2.97,0.11,4.24c-6.97,28.05-13.98,56.08-20.98,84.12c-1.23,4.92-1.24,4.91-6.39,5.69 C292.68,188.05,289.05,188.99,284.23,188.38z"/></g><g><path fill="#fae21e" d="M202.26,186.92c5.13-13.06,4.5-25.79-2.13-38.2c-5.88-11.02-15.66-16.79-27.29-19.63 c-27.01-6.59-49.08,16.32-49.67,39.93c-0.54,21.61,16.57,42.39,40.21,41.96c0.99,5.28,0.97,5.48-3.95,5.04 c-17.36-1.56-29.62-10.65-37.04-26.15c-8.19-17.12-4.6-38.04,8.43-51.76c13.26-13.97,32.43-18.46,49.89-11.7 c22.67,8.79,35.24,34.72,27.72,57.19C207.09,187.57,207.09,187.57,202.26,186.92z"/></g><g><path fill="#7caf34" d="M245.26,177.41c1.38-1.25,2.83-2.35,1.22-4.56c-1.07-1.47-1.75-3.25-2.46-4.95 c-0.38-0.91-1.12-2.36-0.27-2.88c3.87-2.37,1.31-5.37,1.03-8.14c-0.12-1.22-0.5-2.42-0.57-3.64c-0.04-0.78,0.16-2.22,0.45-2.27 c6.11-1.16,3.79-6.8,5.51-10.25c0.63-1.27,0.9-2.73,2.14-3.93c2.75,0.83,4.87,2.71,7.06,4.6c1.84,1.59,2.87,4.37,6.57,3.27 c1.84-0.55,2.97,2.47,4.02,4.2c1.8,2.97,1.78,6.97,6.35,8.3c1.8,0.53,2.18,4.07,0.15,5.91c-3.64,3.3-5.43,7.71-7.77,11.81 c-3.93,1.4-3.8-2.1-4.47-4.03c-2.55-7.28-4.98-14.6-7.64-21.84c1.1,2.85,2.02,5.77,2.92,8.69c0.49,1.6,0.6,3.12-0.42,4.72 c-0.31,0.48-2.75-0.52-0.89,0.78c3.51,2.47,4.92,5.94,6.01,9.73c0.39,1.37,1,2.94-0.18,4.09c-1.51,1.46-3.08,0.24-4.52-0.43 c-1.47-0.68-2.75-1.74-4.89-2.49c0.6,0.36,0.6,0.49,0.64,0.51c6.06,2.92,11.12,6.47,9.16,14.46c-0.21,0.86-0.82,1.38-1.63,1.69 c-1.29,0-2.58,0.01-3.87,0.01C253.42,187.28,248.23,183.48,245.26,177.41z"/></g><g><path fill="#e0f3fc" d="M184.27,393.57c0.37-1.16,0.48-2.53,2.33-1.29c3.75,2.51,7.25,5.38,11.45,7.27 c11.39,5.13,23.33,7.63,35.73,8.79c7.19,0.67,14.36,1.52,21.55,1.06c12.9-0.84,25.75-2.06,38.25-5.85 c7.46-2.26,14.03-5.84,19.93-10.8c1.13-0.95,2.18-1.91,3.76-1.89c0.82,3.71-1.09,6.34-3.5,8.75c-4.18,4.19-9.42,6.61-14.86,8.63 c-11.52,4.28-23.54,5.98-35.72,6.83c-19.3,1.36-38.35-0.06-56.97-5.59c-5.35-1.59-10.58-3.59-15.11-6.91 C187.99,400.27,184.52,398.1,184.27,393.57z"/></g><g><path fill="#cdecfb" d="M211.71,184.88c2.68-9.69,3.31-19.41,0.28-29.14c-0.84-2.7,0.08-3.84,2.72-4.02 c7.79-0.51,15.58-1.02,23.36-1.55c2.04-0.14,3.05,0.65,2.99,2.79c-0.09,3.33,1.32,6.55-0.77,10.03c-1.26,2.11,0.12,5.16,1.06,7.71 c0.5,1.35,2.23,2.8,0.26,4.36c-10.12-2.88-15.84,3.31-21.29,10.21c-1.76,2.23-4.21,3.21-7.14,2.63 C211.36,187.53,210.72,186.62,211.71,184.88z"/></g><g><path fill="#ceebfa" d="M305.41,185.91c2.59-10.42,4.9-19.72,7.25-29.19c7.42,1.61,14.05,3.74,19.82,7.87 c5.52,3.95,5.56,7.77,0,11.68C324.73,181.72,315.58,183.42,305.41,185.91z"/></g><g><path fill="#fbe214" d="M162.99,204.5c-1.26,1.2-2.74,1.74-4.49,1.67c-5.78-0.22-10.76-2.51-15.27-5.94 c-1.89-1.44-2.67-3.46-0.93-5.33c5.69-6.11,10.85-12.8,18.07-17.33C161.24,186.55,162.12,195.52,162.99,204.5z"/></g><g><path fill="#ceeefc" d="M255.07,190.81c-11.92,0.78-23.8,0.19-35.65-1.26c1.54-6.35,6.07-10.4,11.04-13.99 c1.72-1.24,4.02-1.01,5.98-0.25c7.21,2.84,13.05,7.64,18.33,13.18C255.36,189.12,255.35,189.99,255.07,190.81z"/></g><g><path fill="#fce317" d="M173.14,178.77c-0.51-0.88-1.06-1.73-1.51-2.64c-1.08-2.18-0.5-3.81,2.01-3.84 c7.61-0.09,15.24-0.1,22.84,0.17c3.34,0.12,4.54,2.08,3.91,5.55c-0.52,2.87-2.01,5.37-3.48,7.85 C188.62,184.71,180.57,182.77,173.14,178.77z"/></g><g><path fill="#6fa732" d="M286.88,162.1c-1.95,8.33-3.9,16.67-5.87,25c-0.37,1.54-1.32,2.51-3,2.59c-1.02,0.05-2.07,0.26-3.07,0.15 c-2.28-0.26-5.33,1.6-6.66-1.31c-1.24-2.71-0.49-6.06,1.25-8.19c1.9-2.31,2.77-4.97,4.22-7.4c1.74-2.91,3.01-6.13,7.02-7.19 c1.93-0.51,3.4-2.73,5.08-4.17C286.2,161.75,286.54,161.93,286.88,162.1z"/></g><g><path fill="#548824" d="M262.77,190.77c2.32-7.24,1.87-8.04-3.95-12.25c-2.72-1.96-6.38-2.76-8.78-6.49 c5.57-0.6,8.85,2.92,13.21,4.9c-0.35-8.25-5.02-13.21-11.87-16.99c3.81-2.08,4.68,1.47,7.23,1.72c0.17-6.05-4.65-11-4.4-18.1 c3.29,2.35,3.92,4.95,4.75,7.36c2.35,6.8,4.6,13.64,6.96,20.44c0.5,1.45,0.43,3.48,2.77,3.53c-3.41,2.79-3.67,6.57-3.64,10.61 C265.06,187.38,266.43,190.29,262.77,190.77z"/></g><g><path fill="#6a99b3" d="M255.07,190.81c-4.36-4.95-9.54-8.94-15.14-12.34c-6.24-3.79-7.82-3.56-12.66,1.68 c-2.76,2.99-5.24,6.25-7.84,9.39c-2.29,0.32-4.4-0.65-6.61-0.9c-3.21-0.37-2.32-2.04-1.1-3.76c1.2,3.9,3.69,2.68,5.62,1.04 c2.47-2.1,4.51-4.71,6.74-7.09c1.11-1.19,2.12-2.52,3.4-3.49c3.25-2.49,6.72-3.86,10.74-1.52c1.03,0.6,2.28,0.84,3.43,1.24 c0.75,1.49,2,2.22,3.63,2.35c4.44,4.56,9.91,8.07,13.64,13.36C257.62,190.79,256.34,190.8,255.07,190.81z"/></g><g><path fill="#c4e0f4" d="M281.87,160.12c-1.27-2.94-2.44-5.66-3.65-8.48c2.96-0.64,5.71,0.13,8.47,0.61 c0.92,0.16,2.18,0.03,2.24,1.47c0.05,1.04-0.22,1.98-1.21,2.6C285.85,157.51,283.99,158.74,281.87,160.12z"/></g><g><path fill="#d9ca38" d="M325.82,89.02c-6.31,1.36-10.64,0.31-15.35-3.31C316.37,83.67,320.51,85.46,325.82,89.02z"/></g><g><path fill="#faed4f" d="M181.88,281.61c-1.89-5.74-1.29-11.78-2.01-17.66c-1.43-11.8-1.94-23.7-2.97-35.55 c-0.41-4.69-1.11-9.36-1.81-14.02c-0.34-2.25-0.6-4.47-0.27-6.73c2.23-0.96,4,0.35,5.81,1.24c13.98,6.87,29.12,8.64,44.33,10.14 c15.03,1.48,30.07,1.8,45.13,0.7c0.83-0.06,1.62,0.24,2.37,0.63c2.3,2.4,1.04,5.13,0.43,7.6c-3.37,13.58-6.76,27.16-10.18,40.73 c-0.64,2.52-0.96,5.4-3.89,6.65c-4.66,0.78-9.34,1.78-13.68-1.13c-0.42-8.14-0.67-16.28-2.87-24.26 c-1.57-5.71-4.59-8.62-10.47-10.56c-9.69-3.2-17.65-1.05-25.51,4.41c-2.61,1.81-5.1,4.38-8.85,3.59c-2.85-2.03-2.22-5.13-2.31-7.93 c-0.11-3.53-0.55-7-1.31-10.43c-0.41-1.87-1.04-3.85-3.36-3.82c-2.5,0.03-3.37,2.03-3.84,4.15c-0.32,1.43-0.2,2.88-0.02,4.31 c2.17,16.78,3.25,33.68,5.44,50.45c0.32,2.47,0.56,4.95-0.89,7.21c-6.38,1.02-8.22-0.34-8.56-6.3 C182.55,283.86,182.95,282.58,181.88,281.61z"/></g><g><path fill="#c3e84e" d="M302.41,196.2c3.4-0.8,6.77-1.79,10.2-2.36c5.57-0.93,11.07,2.57,13.44,8.26 c-2.01,5.08-6.31,7.39-11.07,9.15c-11.7,4.34-23.92,6.42-36.23,7.47c-24.07,2.04-48.15,1.73-72.05-2.32 c-8.76-1.49-17.36-3.59-25.4-7.57c-3.3-1.63-5.95-3.72-6.4-7.69c3.8-6.4,8.02-8.53,14.72-6.9c6.99,1.7,14.26,1.87,21.11,4.19 c1.16,7.58,1.18,7.5,9.79,9.08c8.53,1.57,17.1,2.97,25.6,4.74c3.87,0.81,6.32-0.33,8.34-3.47c2-3.12,3.84-6.4,6.88-8.71 c5.45-0.29,10.9-0.58,16.35-0.88c1.79,2.55,0.34,5.13-0.11,7.6c-0.72,3.94,2.27,0.32,2.8,1.51c5.58,4.43,10.42,0.99,15.35-1.44 c2.43,1.02,2.61-0.73,3.05-2.38C299.55,201.55,299.62,198.27,302.41,196.2z"/></g><g><path fill="#f9ed4c" d="M325.88,207.41c0.62,7.26-0.94,14.38-1.46,21.56c-0.86,11.91-2.06,23.8-3.43,35.66 c-0.8,6.93-0.58,13.97-2.23,20.81c-5.05,1.35-3.62-3.18-4.84-5.3c-1.77-7.45-3.84-14.82-8.05-21.35c-3.92-6.08-5.35-6.2-10.93-2.01 c-2.19,1.65-3.95,4.42-7.37,3.84c-1.51-1.55-1.16-3.38-0.81-5.21c2.31-11.86,5.69-23.47,8.47-35.22c0.19-0.8,0.77-1.44,1.31-2.05 c1.71-1.58,3.86-2.3,6.05-2.67C310.83,214.1,318.06,209.93,325.88,207.41z"/></g><g><path fill="#c7e246" d="M315.06,279.14c1.16,1.04,1.02,2.45,1.08,3.79c0.07,1.71,1.1,2.35,2.63,2.5c0.49,8.66-2.02,17.14-1.54,25.8 c-1.83,7.1-1.3,14.46-2.36,21.65c-0.35,2.38,0.27,4.91-1.09,7.13c-4.06,2.13-8.27,2.86-12.73,1.47c-0.9-0.87-1.11-2.14-1.77-3.13 c-2.4-3.61-5.34-3.5-7.29,0.29c-0.89,1.74-0.85,4.04-3.12,4.92c-4.26,1.17-8.59,0.85-12.87,0.53c-6.44-0.49-9.44-2.88-9.78-7.33 c-0.51-6.78,1.94-9.92,8.89-11.41c13.06-2.43,24.06-8.11,31.29-19.78c3.97-6.4,6.36-13.31,6.82-20.86 C313.34,282.74,313.05,280.55,315.06,279.14z"/></g><g><path fill="#87c632" d="M325.88,207.41c-6.32,5.43-14.15,7.36-21.92,9.41c-2.19,0.58-4.4,1.05-6.61,1.57 c-1.71,1.1-3.49,2.05-5.51,2.47c-5.11,0.75-10.16,2.11-15.4,1.64c-1.47,0.01-2.76-0.55-3.98-1.3c-11.28,1.34-22.64,1.33-33.92,0.66 c-15.16-0.9-30.35-2.15-45.12-6.14c-6.59-1.78-12.92-4.19-18.59-8.08c-0.69-2.17-0.79-4.35,0.06-6.51 c2.8,4.86,7.71,6.72,12.56,8.45c9.92,3.54,20.16,5.54,30.7,6.5c12.11,1.1,24.22,2.76,36.36,2.08c17.42-0.99,35-1.04,51.99-6.04 c7.18-2.11,14.25-4.3,19.54-10.03C326.43,203.88,326.42,205.66,325.88,207.41z"/></g><g><path fill="#c3e04a" d="M181.88,281.61c0.28,0.28,0.82,0.57,0.8,0.83c-0.35,5.69,3.12,8.01,7.98,9.13 c4.41,7.34,2.92,15.75,4.24,23.65c0.36,2.17-0.17,4.46,0.44,6.65c0.56,5.91-2.12,11.49-1.15,17.62c1.39,8.74,4.15,16.6,9.91,23.36 c1.06,1.24,2.07,2.56,2.1,4.32c-4.09,4.01-7.81,3.18-10.54-2.34c-2.77-5.62-2.77-5.62-6.4-0.97c-1.41-2.2-0.73-4.72-1.06-7.08 c-0.32-2.36,0.29-4.88-1.18-7.05c0.38-8.25-1.07-16.39-1.82-24.54c-0.53-5.71-0.91-11.46-1.38-17.17 C183.12,299.21,181.58,290.47,181.88,281.61z"/></g><g><path fill="#f8e116" d="M295.92,207.37c-1.25,0.93-0.72,3.39-2.89,3.49c-3.97,0.18-7.83,2.3-11.86,0.78 c-1.34-0.5-1.05-2.03-1.29-3.17c-2.08-3.65-1.02-6.75,1.71-9.54c5.53-0.3,10.9-2.19,16.52-1.6 C300.14,201.29,298.72,204.48,295.92,207.37z"/></g><g><path fill="#6d9ba5" d="M261.34,200.07c-0.07,0.4-0.05,0.86-0.24,1.2c-7.47,13.52-7.76,13.67-23.11,10.95 c-6.91-1.22-13.79-2.58-20.7-3.73c-8.06-1.33-8.78-2.33-6.55-10.07c1.64,0.02,3.78-0.17,2.81,2.43c-1.22,3.26,0.62,3.96,3.08,4.4 c8.04,1.45,16.18,2.48,24.09,4.45c7.26,1.8,12.65,0.87,15.82-6.61C257.3,201.28,258.79,199.57,261.34,200.07z"/></g><g><path fill="#452c25" d="M295.92,207.37c0.73-3.34,1.46-6.69,2.2-10.03c1.14-1.48,2.7-1.37,4.29-1.14 c-0.9,3.99-1.77,7.99-2.73,11.96c-0.29,1.22-0.95,2.51-2.43,2.25C295.61,210.12,296.17,208.48,295.92,207.37z"/></g><g><path fill="#442927" d="M281.6,198.94c-0.57,3.18-1.14,6.35-1.71,9.53c-0.44,0.91-0.82,1.86-1.32,2.73 c-0.47,0.81-1.29,0.9-2.13,0.71c-1.06-0.24-1.17-1.14-1.01-1.91c0.71-3.61,1.51-7.2,2.27-10.8 C278.96,198.73,280.26,198.49,281.6,198.94z"/></g><g><path fill="#97d447" d="M189.26,363.84c0.06-1.02,0.16-2.04,0.17-3.06c0.03-1.78,0.36-3.2,2.58-3.4c2.25-0.2,3.45,0.73,3.9,2.88 c0.25,1.19,0.61,2.36,0.95,3.52c1.39,4.63,3.5,5.47,8.76,3.51c0.54-0.43,1.15-0.53,1.8-0.33c4.93,2.43,9.07,6.12,14.42,8.05 c13.08,4.73,25.32,3.44,37.15-3.53c1.93-1.14,3.77-2.53,6.23-2.24c4.69,1.75,9.6,2.41,14.55,2.84c2.52,0.64,5.02,0.37,7.53-0.16 c6.43-0.42,12.93-0.03,19.23-1.84c1.59-0.46,3.21-0.25,4.57,0.89c0.9,6.28-2.1,10.04-7.58,12.69c-8.86,4.28-18.26,6.75-27.88,8.07 c-23.4,3.22-46.6,2.17-69.34-4.75c-3.95-1.2-7.84-2.63-11.41-4.78c-3.44-2.08-5.47-4.89-5.39-9.09 C189.57,370.04,189.36,366.94,189.26,363.84z"/></g><g><path fill="#abda46" d="M279.91,373.52c-4.32,0.55-8.37-1.34-12.63-1.41c-1.5-0.02-1.96-1.2-2.17-2.49 c3.72-5.9,0.79-9.86-3.77-13.52c-1.71-1.38-3.24-3.15-2.97-5.71c2.1-8.1,4.12-16.23,5.65-24.46c4.17-0.98,8.36-2.58,12.34,0.58 c-0.73,0.34-1.49,1.03-2.18,0.96c-3.94-0.39-5.1,1.32-5.69,5.2c-1.12,7.44-0.16,9.33,7.36,9.72c4.74,0.25,9.5,0.03,14.26,0.02 c3.8,0.62,7.57,0.98,11.07-1.19c4.16-0.73,8.31-1.51,12.57-1.19c-0.13,10.39-1.26,20.69-2.66,30.97 c-8.21,2.06-16.52,3.12-24.99,2.43c-1.42-1.36-0.03-4.65-2.82-4.82C279.96,368.4,281.42,372.1,279.91,373.52z"/></g><g><path fill="#fce313" d="M183.83,168.66c-3.49,0-6.98,0.01-10.48-0.01c-1.03-0.01-2.13-0.06-2.7-1.09 c-0.64-1.15,0.21-1.94,0.92-2.63c5.29-5.17,10.46-10.46,15.95-15.4c3.2-2.88,5.17-2.53,7.77,0.75c2.73,3.44,4.36,7.46,5.12,11.74 c0.67,3.78-0.88,5.9-4.89,6.28c-3.86,0.37-7.79,0.08-11.69,0.08C183.83,168.47,183.83,168.57,183.83,168.66z"/></g><g><path fill="#fce415" d="M144.09,168.45c-3.7,0-7.42,0.22-11.1-0.06c-3.6-0.27-4.71-1.67-4.49-5.23c0.29-4.83,2.13-9.22,4.79-13.16 c2.02-3,4.58-3.3,7.3-0.72c5.52,5.23,10.84,10.68,16.11,16.16c1.6,1.66,0.97,2.97-1.51,3.09c-3.69,0.18-7.4,0.05-11.1,0.05 C144.09,168.52,144.09,168.48,144.09,168.45z"/></g><g><path fill="#fce215" d="M165.85,149.7c0-3.7-0.15-7.41,0.04-11.1c0.19-3.78,1.32-4.92,4.87-4.82c5.79,0.16,10.76,2.39,14.9,6.47 c1.84,1.81,1.69,3.77,0.08,5.45c-5.42,5.63-10.94,11.16-16.48,16.67c-0.52,0.52-1.49,1.01-2.15,0.9c-1.24-0.2-1.23-1.45-1.24-2.47 c-0.02-3.7-0.01-7.4-0.01-11.1C165.86,149.7,165.86,149.7,165.85,149.7z"/></g><g><path fill="#fce417" d="M162.13,150c0,3.71,0.12,7.42-0.04,11.12c-0.1,2.38-1.44,3.02-3.12,1.39 c-5.62-5.45-11.12-11.03-16.58-16.64c-1.73-1.78-1.54-3.8,0.28-5.44c4.23-3.81,9.02-6.47,14.89-6.62c3.02-0.08,4.64,1.42,4.68,4.45 c0.05,3.91,0.01,7.83,0.01,11.74C162.22,150,162.17,150,162.13,150z"/></g><g><path fill="#fde417" d="M128.41,177.93c-0.07-4.63,0.56-5.58,4.08-5.64c7.19-0.14,14.39-0.1,21.59,0.05 c2.73,0.06,3.4,1.51,1.63,3.47c-4.69,5.17-9.42,10.32-14.42,15.18c-3.32,3.23-5.44,2.89-8.01-0.93 C130.63,186.09,128.89,181.7,128.41,177.93z"/></g><g><path fill="#dae645" d="M263.9,326.54c0.62,1.05,1.54,2.14,1.19,3.37c-2.02,7.15-2.6,14.71-6.17,21.42 c-5.2-0.56-7.93-4.93-11.18-7.99c-12.1-11.36-24.54-22.35-36.6-33.74c-2.85-2.69-6.97-2.41-9.36-5.44 c-2.14-9.11-3.25-18.3-2.2-27.66c1.36-2.33,2.8-1.02,3.96,0.1c2.45,2.36,5.44,3.65,8.53,4.9c9.11,3.67,17.3,2.63,24.69-4.16 c2.36-2.17,4.66-4.84,8.44-4.56c1.64,2.15,4,1.3,6.09,1.4c2.58,0.13,5.17,0.06,7.76,0.08c2.9,5.35-1.38,10.15-1.16,15.3 c-2.99,7.09-9.37,11.24-14.54,16.4c-5.02,5.01-5.11,5.75,0.59,10.29c4.4,3.51,9.24,6.04,14.68,7.5 C260.57,324.26,262.71,324.55,263.9,326.54z"/></g><g><path fill="#f5f59e" d="M200.72,275.38c0.11,10.07,0.78,20.1,2.6,30.02c0.25,0.55,0.3,1.12,0.17,1.71 c-3.19,5.09-4.84,11.1-9.29,15.44c-0.22-0.34-0.62-0.68-0.63-1.03c-0.37-10.04-2.05-19.95-2.91-29.95 c0.24-6.8-1.14-13.46-2.01-20.14c-0.67-5.08-0.78-10.19-1.41-15.29c-0.92-7.5-1.6-15.04-2.56-22.56c-0.4-3.13-1.16-6.62,1.82-9.26 c1.42-1.26,2.76-2.58,4.87-1.77c2.19,0.83,4.05,1.89,4.31,4.64c0.47,5.1,1.58,10.13,1.29,15.3c-0.09,1.61-0.27,3.35,1.35,4.49 c0.17,8.23,1.46,16.3,3.23,24.32C201.87,272.73,201.83,274.19,200.72,275.38z"/></g><g><path fill="#a0b188" d="M200.72,275.38c-1.02-5.23-1.91-10.5-3.11-15.69c-1.01-4.35-0.98-8.55,0.7-12.7 c5.26-3.2,10.29-6.76,15.86-9.46c2.9-1.41,5.86-2.15,8.93-1.56c4.42,0.85,8.76,2.11,13.14,3.15c2.84,0.67,4.85,2.41,5.77,5.06 c2.62,7.57,4.69,15.27,4.73,23.37c0.01,1.93-0.52,3.63-1.55,5.22c-4.24,3.18-8.44,6.43-12.74,9.53c-4.42,3.19-9.33,3.88-14.57,2.4 c-2.55-0.72-5.14-1.31-7.67-2.12C206.24,281.3,202.85,279.15,200.72,275.38z"/></g><g><path fill="#c2a95a" d="M256.46,290.42c-0.41-3.75,0.86-7.25,1.79-10.76c0.48-1.8,0.74-3.57,0.8-5.4 c3.78-10.44,5.68-21.39,8.5-32.09c1.83-6.93,4.03-13.8,4.9-20.97c1.34-0.04,2.68-0.07,4.02-0.11c1.96,2.82,0.42,5.6-0.23,8.29 c-4.58,19-9.7,37.88-13.96,56.96C261.33,289.1,259.61,290.78,256.46,290.42z"/></g><g><path fill="#fdf9b8" d="M251.95,233.14c2.99-0.15,4.62,1.36,4.65,4.31c0.03,2.78-1.39,4.42-3.87,4.46 c-2.46,0.05-4.69-2.02-4.86-4.52C247.71,234.9,249.26,233.28,251.95,233.14z"/></g><g><path fill="#7e5c31" d="M256.46,290.42c1.8-1.1,3.6-2.19,4.88-3.94c-0.06-2.31,1.44-3.82,3.02-5.03 c6.38-4.89,11.53-11.04,17.31-16.54c1.95-2.1,4.17-3.78,7.02-4.46c2.69-2.54,5.34-5.12,8.09-7.6c2.95-2.65,3.92-2.68,6.64,0.25 c4.86,5.22,7.76,11.58,9.94,18.27c0.81,2.51,1.15,5.17,1.7,7.76c0.06,8.34-1.21,16.34-5.19,23.85 c-7.19,13.58-18.39,21.28-33.49,23.51c-4.16,0.01-8.31,0.02-12.47,0.03c-8.76-1.4-16.58-4.8-23.19-10.82 c-4.15-3.79-4.1-5.58-0.02-9.56C246,300.96,251.8,296.26,256.46,290.42z"/></g><g><path fill="#c3a85a" d="M288.68,260.46c-2.02,1.71-4.04,3.43-6.06,5.14c-1.79-1.67-1.48-3.76-1.01-5.76 c2.96-12.63,6.3-25.17,9.35-37.77c0.25-1.02,0.9-1.84,1.53-2.66c1.39-1.45,3.19-0.9,4.85-1.01c-3.19,13.13-6.38,26.25-9.57,39.38 C287.51,258.85,287.67,259.8,288.68,260.46z"/></g><g><path fill="#fdfac8" d="M303.49,233.55c0.15-2.37,1.1-3.8,3.37-3.74c1.62,0.05,2.68,1.15,2.77,2.73c0.11,2.11-1.17,3.61-3.15,3.88 C304.46,236.69,303.8,235.02,303.49,233.55z"/></g><g><path fill="#eef9bf" d="M301.2,341.22c-4.33,5-5.5,5.12-11.08,1.19c-0.04-0.82-0.18-1.64-0.12-2.45c0.29-4.06,1.99-6.02,5.26-6.19 c3.32-0.17,5.06,1.49,5.83,5.62C301.2,339.99,301.17,340.61,301.2,341.22z"/></g><g><path fill="#fee747" d="M292.49,219.41c0.13,7.33-2.86,14.02-4.35,21.02c-1.45,6.82-3.28,13.55-5.05,20.29 c-0.43,1.63-0.56,3.23-0.47,4.88c-6.69,7.37-14.16,13.96-21.28,20.89c-1.78-2.47,0.17-4.74,0.68-6.9 c4.68-19.53,9.6-39.01,14.46-58.5C281.82,220.53,287.16,219.97,292.49,219.41z"/></g><g><path fill="#a59574" d="M194.21,322.54c2.2-5.77,4.75-11.35,8.83-16.08c1.46,1.21,1.55,2.88,1.52,4.58 c-1.43,6-5.2,11.14-6.01,17.45c-1.65,12.82,1.42,24.13,9.74,34.03c0.32,0.57,0.51,1.18,0.56,1.83c-0.07,1.42-0.67,2.46-2.11,2.89 c-0.37,0-0.74,0.02-1.1,0.06c-4.89-5.82-9.35-11.81-11.46-19.39C191.79,339.37,191.98,331,194.21,322.54z"/></g><g><path fill="#7e6c35" d="M206.74,367.24c0.44-0.85,0.88-1.7,1.32-2.55c3.35-0.53,5.18,2.21,7.52,3.67 c13.13,8.21,30.71,8.09,42.76-0.63c1.75-1.26,4.96-2.02,3.59-5.49c-1.04-1.66-2.47-2.97-3.86-4.32 c-5.76-6.09-12.8-10.79-18.35-17.09c-2.7-2.76-5.23-5.7-8.61-7.71c-6.42-6.17-12.86-12.32-19.64-18.09 c-0.95-0.96-1.86-1.97-2.99-2.75c-1.65-1.31-3.66-0.03-5.38-0.75c-0.02-1.69-0.04-3.38-0.06-5.07c0.09-0.36,0.18-0.71,0.28-1.06 c3.21-1.71,5.43,0,7.67,2.06c8.82,8.11,17.7,16.17,26.54,24.25c7.14,6.53,14.26,13.07,21.39,19.61c2.8,2.9,5.63,5.78,8.4,8.7 c3.18,3.34,3.15,3.36,0.1,6.82c-0.79,0.9-1.54,1.85-2.3,2.78c-6.95,4.38-13.93,8.24-22.46,9.28 C228.67,380.62,216.86,376.81,206.74,367.24z"/></g><g><path fill="#e5f7bb" d="M279.91,373.52c-0.14-0.39-0.25-0.79-0.42-1.15c-1.09-2.27-0.22-3.97,1.61-5.34c1.28-0.95,2.62-1.06,4-0.14 c2.06,1.38,2.38,3.19,1.37,5.35c-0.17,0.37-0.24,0.78-0.35,1.18C284.07,374.81,282,374.76,279.91,373.52z"/></g><g><path fill="#f5f9b6" d="M229.69,301.31c-2.1-0.24-3.67-1.46-3.94-3.73c-0.27-2.23,1.23-3.3,3.28-3.55c2.26-0.28,3.9,1.23,3.98,3.53 C233.08,299.63,231.73,301.24,229.69,301.31z"/></g><g><path fill="#deebb9" d="M221.54,239.21c2.49,0.34,4.35,0.46,6.15,0.86c11.07,2.48,11.15,2.56,13.79,13.63 c0.76,3.2,1.24,6.48,2.17,9.62c1.1,3.7,0.03,6.51-2.97,8.64c-4.2,2.99-8.48,5.87-12.74,8.78c-2.04,1.4-4.41,1.12-6.63,0.88 c-4.31-0.47-8.43-1.81-12.5-3.33c-2.16-0.81-3.42-2.38-4.02-4.41c-1.83-6.11-3.56-12.25-5.2-18.41c-0.48-1.8-0.63-3.88,0.92-5.26 C206.74,244.69,213.57,240.27,221.54,239.21z"/></g><g><path fill="#fefbb1" d="M265.42,287.87c2.73-3.65,5.95-6.79,9.7-9.39c6.41,0.76,12.69-0.87,19.04-1.22 c4.88-0.27,5.87-2.47,4.28-7.17c-1.13-3.33-3.79-5.89-4.6-9.36c1.09-1.86,2.5-3.36,4.58-4.11c10.4,10.63,12.41,23.36,8.46,37.08 c-7.36,25.54-39.19,35.65-60.22,19.37c-1.45-1.12-3.15-2.07-3.2-4.25c1.07-1.67,2.46-2.99,4.29-3.79c3.31,0.8,5.46,3.61,8.51,4.86 c4.2,1.72,6.17,0.75,7.05-3.69C264.5,300.15,264.5,293.95,265.42,287.87z"/></g><g><path fill="#f9df21" d="M243.45,308.82c1.67,1.21,3.34,2.41,5.01,3.62c21.67,15.67,56.03,3.66,58.52-28.02 c0.62-7.89-1.45-15.51-5.67-22.4c-1.07-1.74-2.58-3.25-2.89-5.4c1.27-1.79,2.44-1.06,3.44,0.23c7.16,9.22,10.69,19.6,8.79,31.24 c-3.25,19.89-16.82,33.08-36.84,35.24c-11.31,1.22-21.59-2.53-30.42-9.81C241.61,312.05,240.39,310.34,243.45,308.82z"/></g><g><path fill="#fce615" d="M293.83,260.73c4.11,2.9,5.94,7.3,7.27,11.84c1.13,3.87,0.16,5.4-3.83,5.96 c-5.68,0.81-11.42,1.19-17.14,1.7c-1.9,0.17-3.71-0.09-5.01-1.75C281.2,272.4,287.06,266.08,293.83,260.73z"/></g><g><path fill="#fce612" d="M265.42,287.87c1.56,1.23,1.28,2.97,1.12,4.57c-0.5,5.13-0.91,10.28-1.74,15.36 c-0.83,5.06-3.08,6.24-7.88,4.26c-3.63-1.5-7.05-3.47-9.18-7.04C253.28,298.94,259.03,293.07,265.42,287.87z"/></g><g><path fill="#f9e22a" d="M263.1,361.17c1.76,1.12,3.03,2.38,0.98,4.32c-1.04,0.98-2.14,1.92-3.31,2.74 c-15.72,11.01-35.27,10.33-50.26-1.72c-0.79-0.64-1.63-1.22-2.45-1.83c-0.08-0.44-0.16-0.88-0.24-1.33 c-0.76-1.7-0.9-3.21,1.18-4.09c2.58-0.22,4.06,1.67,5.79,3.06c12.82,10.21,27.48,10.96,41.17,2.15 C258.18,363.05,260.18,361.11,263.1,361.17z"/></g><g><path fill="#faed7d" d="M209.37,359.59c-1.6,0.82-1.33,2.4-1.55,3.78c-8.43-7.94-11.55-17.85-11.38-29.23 c0.12-8.25,3.11-15.47,6.67-22.61c2.02-1.26,4.02-3.51,6.2-0.21c0.16,2.71-1.57,4.62-2.88,6.69c-7.54,11.91-7,23.74,0.24,35.55 C207.82,355.45,209.76,357,209.37,359.59z"/></g><g><path fill="#fdfab4" d="M209.37,359.59c-6.96-7.38-10.41-16.13-9.95-26.28c0.39-8.6,4.43-15.63,9.89-21.99 c1.34,0.53,2.23,1.54,2.93,2.75c-0.16,3.86-3,6.66-4,10.22c-1.19,4.22,0.16,6.57,4.53,6.44c6.39-0.19,12.63,1.28,18.99,1.35 c3.59,2.09,6.38,5.06,8.96,8.25c2.19,5.39,2.39,11.2,3.51,16.81c1.41,7.06,3.13,7.84,9.42,4.17c1.95-1.14,3.32-3.09,5.58-3.75 c1.68,0.79,2.91,2.06,3.88,3.61c-6.91,6.17-14.76,10.31-24.16,10.89c-10.4,0.65-19.24-3.06-26.84-9.99 C211.19,361.24,210.28,360.41,209.37,359.59z"/></g><g><path fill="#fce812" d="M231.75,332.08c-1.05,1.77-2.83,1.64-4.4,1.4c-5.51-0.83-11.07-0.73-16.59-1.14 c-4.63-0.34-5.9-2.03-4.8-6.45c1.09-4.42,2.87-8.58,6.27-11.83C219.1,319.68,225.77,325.5,231.75,332.08z"/></g><g><path fill="#fcea17" d="M259.22,357.56c-1.88,4.72-6.3,6.16-10.41,7.87c-2.6,1.08-4.68-0.26-5.1-2.81 c-1.23-7.39-3.79-14.62-3-22.29C246.97,345.97,253.67,351.14,259.22,357.56z"/></g><g><path fill="#f6faed" d="M236.55,246.83c-3.3,3.15-7.11,4.38-10.5,6.14c-5.41,2.83-6.31,7.08-5.44,12.38 c0.24,1.45,1.75,2.91-0.35,4.83c-2.17-4.03-1.73-9.2-5.48-12.05c-3.52-2.68-8.42-2.6-12.46-5.22c3.23-2.15,5.8-0.53,8.08,0.3 c4.31,1.56,7.96,0.73,11.72-1.45c3.2-1.86,6.61-3.37,9.92-5.04C233.32,246.08,234.59,245.31,236.55,246.83z"/></g><g><path fill="#fde619" d="M296.93,281.93c4.06-0.09,5.52,0.89,5.31,4c-0.39,5.66-2.23,10.87-6.09,15.2c-1.83,2.05-3.74,2.36-5.8,0.24 c-4.6-4.74-9.31-9.36-13.8-14.2c-1.96-2.11-1.24-3.74,1.77-4.03C284.67,282.53,291.12,283.22,296.93,281.93z"/></g><g><path fill="#fde50f" d="M273.98,314.9c-4.74-0.11-6.51-1.76-6.09-5.74c0.67-6.31,1.6-12.6,2.59-18.87c0.35-2.22,1.81-2.63,3.4-1 c4.44,4.56,8.87,9.14,13.12,13.88c2.76,3.07,2.42,5.26-0.99,7.61C282.21,313.41,277.83,314.46,273.98,314.9z"/></g><g><path fill="#fee713" d="M218.83,336.46c3.49,0,6.99-0.16,10.47,0.05c2.91,0.18,3.56,1.36,1.88,3.39 c-4.45,5.37-9.06,10.6-13.69,15.82c-1.96,2.21-3.95,1.69-5.77-0.31c-4.25-4.68-5.3-10.51-5.84-16.49 c-0.19-2.08,1.15-2.91,3.09-2.92c3.29-0.01,6.57,0,9.86,0C218.83,336.16,218.83,336.31,218.83,336.46z"/></g><g><path fill="#fee70b" d="M233.49,367.17c-4.48-0.03-8.52-1.56-12.25-3.89c-2.32-1.45-2.92-3.59-1.07-5.77 c4.27-5.05,8.6-10.05,13.09-14.9c1.91-2.07,3.32-1.73,3.81,0.97c1.18,6.49,2.17,13.02,2.83,19.58 C240.18,366.05,237.96,367.19,233.49,367.17z"/></g></g></svg>