<?xml version="1.0" encoding="UTF-8" standalone="no"?><svg xmlns="http://www.w3.org/2000/svg" xmlns:xlink="http://www.w3.org/1999/xlink" contentScriptType="text/ecmascript" fill="#000000" width="1258" zoomAndPan="magnify" contentStyleType="text/css" viewBox="553.4 195.4 1258.4 1114.1" height="1114" data-name="Layer 16" preserveAspectRatio="xMidYMid meet" version="1"><defs><clipPath id="a"><path fill="#f9f5e1" d="M1805.3,974.34c0,181.53-278.78,328.69-622.69,328.69-20.46,0-40.68-.52-60.63-1.54-77.03-3.92-149.95-15.26-216.18-32.64-50.89-13.36-97.83-30.28-139.64-50.15-89.6-42.57-155.67-98.68-186.63-162.22-12.8-26.25-19.61-53.78-19.61-82.14,0-127.45,137.42-237.96,338.33-292.49,85.24-23.14,181.91-36.2,284.36-36.2,41.89,0,82.82,2.19,122.39,6.35h0c43.08,4.53,84.54,11.41,123.92,20.37,98.09,22.32,183.14,57.57,247.46,101.68,80.85,55.45,128.92,124.91,128.92,200.28Z"/></clipPath><clipPath id="e"><path fill="#d3b4a5" d="M1182.61,1309.52c-20.42,0-40.93-.52-60.97-1.55-76.01-3.87-149.19-14.92-217.5-32.84-50.95-13.37-98.32-30.39-140.78-50.56-92.93-44.15-158.52-101.29-189.68-165.25-13.44-27.58-20.26-56.17-20.26-84.99,0-63.54,33.24-125.28,96.12-178.55,60.43-51.18,145.84-92.75,247-120.21,89.04-24.17,185.29-36.42,286.06-36.42,41.28,0,82.57,2.14,122.73,6.35l.35.04c42.7,4.49,84.65,11.39,124.68,20.49,97.92,22.28,184.26,57.78,249.69,102.66,41.69,28.59,74.17,60.38,96.54,94.46,23.36,35.6,35.21,73.01,35.21,111.18,0,45.89-16.94,90.3-50.36,132-31.92,39.84-77.51,75.56-135.49,106.16-118.53,62.56-275.98,97.02-443.35,97.02ZM1182.61,652.15c-99.62,0-194.72,12.1-282.66,35.97-99.34,26.96-183.02,67.62-242,117.58-59.88,50.72-91.53,109.03-91.53,168.63,0,26.82,6.38,53.5,18.95,79.29,29.86,61.28,93.34,116.33,183.58,159.2,41.73,19.83,88.33,36.56,138.5,49.73,67.45,17.69,139.74,28.6,214.86,32.43,19.82,1.02,40.11,1.53,60.3,1.53,165.29,0,320.59-33.92,437.28-95.52,115.38-60.9,178.92-141.4,178.92-226.67,0-70.94-43.6-138.34-126.1-194.92-64.1-43.96-148.89-78.79-245.22-100.71-39.42-8.97-80.74-15.77-122.81-20.21l-.35-.04c-39.82-4.19-80.77-6.31-121.71-6.31Z" clip-path="url(#a)"/></clipPath><clipPath id="b"><path fill="#f9f5e1" d="M1805.3,950.18c0,181.53-278.78,328.69-622.69,328.69-20.46,0-40.68-.52-60.63-1.54-77.03-3.92-149.95-15.26-216.18-32.64-50.89-13.36-97.83-30.28-139.64-50.15-89.6-42.57-155.67-98.68-186.63-162.22-12.8-26.25-19.61-53.78-19.61-82.14,0-127.45,137.42-237.96,338.33-292.49,85.24-23.14,181.91-36.2,284.36-36.2,41.89,0,82.82,2.19,122.39,6.35h0c43.08,4.53,84.54,11.41,123.92,20.37,98.09,22.32,183.14,57.57,247.46,101.68,80.85,55.45,128.92,124.91,128.92,200.28Z"/></clipPath><clipPath id="f"><path fill="#d3b4a5" d="M1182.61,1285.37c-20.4,0-40.92-.52-60.97-1.55-76.01-3.87-149.19-14.92-217.5-32.84-50.95-13.37-98.32-30.39-140.78-50.56-92.93-44.15-158.52-101.29-189.68-165.25-13.44-27.58-20.26-56.17-20.26-84.99,0-63.54,33.24-125.28,96.12-178.55,60.43-51.18,145.84-92.75,247-120.21,89.05-24.17,185.29-36.42,286.06-36.42,41.28,0,82.57,2.14,122.73,6.35l.35.04c42.71,4.49,84.66,11.39,124.68,20.49,97.92,22.28,184.26,57.78,249.69,102.66,41.69,28.59,74.17,60.38,96.53,94.46,23.36,35.6,35.21,73.01,35.21,111.18,0,45.89-16.94,90.3-50.36,132-31.92,39.84-77.51,75.56-135.49,106.16-118.53,62.56-275.98,97.02-443.35,97.02ZM1182.61,628c-99.62,0-194.72,12.1-282.66,35.97-99.34,26.96-183.02,67.62-242,117.58-59.88,50.72-91.53,109.03-91.53,168.63,0,26.82,6.38,53.5,18.95,79.29,29.86,61.28,93.34,116.33,183.58,159.2,41.73,19.83,88.33,36.56,138.5,49.73,67.44,17.69,139.73,28.6,214.86,32.43,19.83,1.02,40.12,1.53,60.3,1.53,165.29,0,320.59-33.92,437.28-95.52,115.38-60.9,178.92-141.4,178.92-226.67,0-70.94-43.6-138.34-126.1-194.92-64.09-43.96-148.89-78.79-245.22-100.71-39.43-8.97-80.76-15.77-122.85-20.21l-.31-.03c-39.82-4.19-80.77-6.31-121.71-6.31Z" clip-path="url(#b)"/></clipPath><clipPath id="g"><path fill="#f9f5e1" d="M1535.69,538.75c0-6.16-.54-12.25-1.61-18.26-.96-5.45-2.33-10.82-4.12-16.13-12.5-37.15-44.92-70.65-91.17-97.24-66.79-38.43-162.44-62.49-268.66-62.49s-195.13,22.39-261.5,58.47c0,.01-.01.01-.01.01-59.53,32.34-97.93,75.71-103.38,123.78-.45,3.93-.68,7.89-.68,11.87,0,3.11.14,6.21.42,9.28,0,0-50.79,518.35,342.81,533.82,0,0,408.38,64.09,387.9-543.1Z"/></clipPath><clipPath id="c"><path fill="#f9f5e1" d="M1538.51,573.96c14.8-.98,29.46-4.13,36.03-20.64,171.42-292.43,400.48,388.98-114.77,375.07,6.63-6.9,34.55-48.2,40.58-74.02,16.46-5.53,153.08-6.53,194.01-144.12,25.57-85.96-14.76-197.4-52.84-120.92-7.15,18.49-15.75,37.02-31.6,49.58-13.72,12.4-45.58,20-69.91,16.94-5.2-13.25.25-58.19-1.49-81.87Z"/></clipPath><clipPath id="h"><path fill="#d3b4a5" d="M1475.27,933.1c-5.16,0-10.37-.07-15.64-.21l-10.17-.27,7.05-7.34c5.99-6.24,33.61-46.96,39.44-71.93l.57-2.44,2.38-.8c2.54-.85,6.7-1.49,13-2.45,39.22-6,143.4-21.93,178.13-138.69,18.21-61.21,1.66-131.98-18.64-139.98-10.65-4.2-20.68,11.99-25.77,22.17-7.3,18.86-16.34,38.09-32.82,51.2-14.68,13.16-47.54,21.21-73.38,17.97l-2.65-.33-.98-2.49c-3.45-8.77-2.76-27.88-2.03-48.11.46-12.67.93-25.77.24-35.08l-.33-4.52,4.52-.3c15.45-1.02,26.83-4.45,32.14-17.82l.13-.32.17-.29c48.51-82.75,96.09-79.81,120.13-70.69,30.51,11.57,57.47,44.92,73.96,91.49,16.94,47.82,20.73,102.18,10.7,153.07-11.98,60.74-42.89,111.71-89.38,147.4-52.57,40.36-123.42,60.78-210.78,60.78ZM1468.89,924.06c2.14.02,4.3.04,6.41.04,226.81,0,279.25-139.78,291.31-200.93,9.59-48.61,5.81-102.68-10.35-148.33-15.61-44.08-40.64-75.45-68.67-86.08-36.87-13.98-75.57,9.65-109,66.54-6.84,16.8-21.23,21.31-35.35,22.77.34,9.19-.06,20.56-.46,31.61-.57,15.78-1.2,33.46.68,41.98,22.81,2.01,51.24-5.1,63.44-16.12l.22-.19c14.08-11.16,22.26-27.13,30.2-47.68l.17-.38c14.24-28.59,28.1-30.31,37.22-26.71,13.34,5.26,24.31,26.46,29.36,56.7,5.17,30.97,3.2,65.31-5.4,94.22-15.54,52.24-46.47,91.33-91.92,116.19-36.88,20.17-73.7,25.8-93.47,28.83-3.66.56-6.97,1.07-9.23,1.53-5.99,21.66-24.71,51.61-35.15,66Z" clip-path="url(#c)"/></clipPath><radialGradient gradientTransform="translate(.38 14.62)" gradientUnits="userSpaceOnUse" xlink:type="simple" r="223.84" xlink:actuate="onLoad" cx="1370.6" id="d" cy="530.4" xlink:show="other" fx="1370.6" fy="530.4"><stop stop-color="#fcf8db" offset="0"/><stop stop-opacity="0" stop-color="#ffe6d9" offset="1"/></radialGradient><radialGradient xlink:href="#d" xlink:type="simple" r="220.24" xlink:actuate="onLoad" cx="1008.65" id="i" cy="430.63" xlink:show="other" fx="1008.65" fy="430.63"/></defs><g><g><g id="change1_1"><path fill="#f9f5e1" d="M1805.3,974.34c0,181.53-278.78,328.69-622.69,328.69-20.46,0-40.68-.52-60.63-1.54-77.03-3.92-149.95-15.26-216.18-32.64-50.89-13.36-97.83-30.28-139.64-50.15-89.6-42.57-155.67-98.68-186.63-162.22-12.8-26.25-19.61-53.78-19.61-82.14,0-127.45,137.42-237.96,338.33-292.49,85.24-23.14,181.91-36.2,284.36-36.2,41.89,0,82.82,2.19,122.39,6.35h0c43.08,4.53,84.54,11.41,123.92,20.37,98.09,22.32,183.14,57.57,247.46,101.68,80.85,55.45,128.92,124.91,128.92,200.28Z"/></g><g id="change2_1"><path fill="#d3b4a5" d="M1182.61,1309.52c-20.42,0-40.93-.52-60.97-1.55-76.01-3.87-149.19-14.92-217.5-32.84-50.95-13.37-98.32-30.39-140.78-50.56-92.93-44.15-158.52-101.29-189.68-165.25-13.44-27.58-20.26-56.17-20.26-84.99,0-63.54,33.24-125.28,96.12-178.55,60.43-51.18,145.84-92.75,247-120.21,89.04-24.17,185.29-36.42,286.06-36.42,41.28,0,82.57,2.14,122.73,6.35l.35.04c42.7,4.49,84.65,11.39,124.68,20.49,97.92,22.28,184.26,57.78,249.69,102.66,41.69,28.59,74.17,60.38,96.54,94.46,23.36,35.6,35.21,73.01,35.21,111.18,0,45.89-16.94,90.3-50.36,132-31.92,39.84-77.51,75.56-135.49,106.16-118.53,62.56-275.98,97.02-443.35,97.02ZM1182.61,652.15c-99.62,0-194.72,12.1-282.66,35.97-99.34,26.96-183.02,67.62-242,117.58-59.88,50.72-91.53,109.03-91.53,168.63,0,26.82,6.38,53.5,18.95,79.29,29.86,61.28,93.34,116.33,183.58,159.2,41.73,19.83,88.33,36.56,138.5,49.73,67.45,17.69,139.74,28.6,214.86,32.43,19.82,1.02,40.11,1.53,60.3,1.53,165.29,0,320.59-33.92,437.28-95.52,115.38-60.9,178.92-141.4,178.92-226.67,0-70.94-43.6-138.34-126.1-194.92-64.1-43.96-148.89-78.79-245.22-100.71-39.42-8.97-80.74-15.77-122.81-20.21l-.35-.04c-39.82-4.19-80.77-6.31-121.71-6.31Z"/></g><g clip-path="url(#e)"><g opacity="0.44" id="change3_7"><path fill="#efd1b9" d="M1428.92,672.37h-.02s-200.05,15.81-200.8,69.32c-.14,9.49,5.99,20.17,20.62,32.15,1.21.99,2.42,2,3.64,3.01,96.59,80.83,217.79,250,50.32,268.01-97.65,10.5-245.69,57.17-331.42,116.39h0c-48.22,33.3-76.73,70.57-65.46,107.6,66.23,17.37,139.15,28.71,216.18,32.64-9.41-23.8-7.66-52.27,20.24-83.4,11.4-12.72,27.24-23.29,46.04-32.39,111.43-53.96,326.94-56.34,339.94-149.96,15.2-109.41-153.22-185.65-96.37-223.51,0,0,0,0,0,0,10.3-6.85,25.38-12.48,43.2-17.1,64.05-16.63,163.28-20.27,201.36-21.07"/></g><g opacity="0.44" id="change3_5"><path fill="#efd1b9" d="M1084.56,778.57c33.68,38,74.35,85.46,66.54,141.68-13.75,99.05-254.17,95.98-358.21,159.89-10.89,6.68-20.28,14.1-27.76,22.45-42.22,47.09-24.57,88.11,1.03,116.1-89.6-42.57-155.67-98.68-186.63-162.22,37.32-29.05,90.48-55.53,147.08-76.86h0s.04-.02.06-.02c68.59-25.85,142.24-44.13,198.91-50.22,96.07-10.33,97.14-70.42,62.35-135.03-5.21-9.68-11.23-19.47-17.85-29.2-20.19-29.67-46.01-58.86-71.83-83.29,85.24-23.14,181.91-36.2,284.36-36.2,41.89,0,82.82,2.19,122.39,6.35h0c6.37,4,9.89,6.35,9.89,6.35,0,0-203.3.54-260.16,38.4-19.24,12.81-12.69,30,3.81,51.4,7.21,9.35,16.32,19.5,26.01,30.43Z"/></g></g></g><g><g id="change1_3"><path fill="#f9f5e1" d="M1805.3,950.18c0,181.53-278.78,328.69-622.69,328.69-20.46,0-40.68-.52-60.63-1.54-77.03-3.92-149.95-15.26-216.18-32.64-50.89-13.36-97.83-30.28-139.64-50.15-89.6-42.57-155.67-98.68-186.63-162.22-12.8-26.25-19.61-53.78-19.61-82.14,0-127.45,137.42-237.96,338.33-292.49,85.24-23.14,181.91-36.2,284.36-36.2,41.89,0,82.82,2.19,122.39,6.35h0c43.08,4.53,84.54,11.41,123.92,20.37,98.09,22.32,183.14,57.57,247.46,101.68,80.85,55.45,128.92,124.91,128.92,200.28Z"/></g><g id="change2_3"><path fill="#d3b4a5" d="M1182.61,1285.37c-20.4,0-40.92-.52-60.97-1.55-76.01-3.87-149.19-14.92-217.5-32.84-50.95-13.37-98.32-30.39-140.78-50.56-92.93-44.15-158.52-101.29-189.68-165.25-13.44-27.58-20.26-56.17-20.26-84.99,0-63.54,33.24-125.28,96.12-178.55,60.43-51.18,145.84-92.75,247-120.21,89.05-24.17,185.29-36.42,286.06-36.42,41.28,0,82.57,2.14,122.73,6.35l.35.04c42.71,4.49,84.66,11.39,124.68,20.49,97.92,22.28,184.26,57.78,249.69,102.66,41.69,28.59,74.17,60.38,96.53,94.46,23.36,35.6,35.21,73.01,35.21,111.18,0,45.89-16.94,90.3-50.36,132-31.92,39.84-77.51,75.56-135.49,106.16-118.53,62.56-275.98,97.02-443.35,97.02ZM1182.61,628c-99.62,0-194.72,12.1-282.66,35.97-99.34,26.96-183.02,67.62-242,117.58-59.88,50.72-91.53,109.03-91.53,168.63,0,26.82,6.38,53.5,18.95,79.29,29.86,61.28,93.34,116.33,183.58,159.2,41.73,19.83,88.33,36.56,138.5,49.73,67.44,17.69,139.73,28.6,214.86,32.43,19.83,1.02,40.12,1.53,60.3,1.53,165.29,0,320.59-33.92,437.28-95.52,115.38-60.9,178.92-141.4,178.92-226.67,0-70.94-43.6-138.34-126.1-194.92-64.09-43.96-148.89-78.79-245.22-100.71-39.43-8.97-80.76-15.77-122.85-20.21l-.31-.03c-39.82-4.19-80.77-6.31-121.71-6.31Z"/></g><g clip-path="url(#f)"><g opacity="0.44" id="change3_2"><path fill="#efd1b9" d="M1428.92,648.22h-.02s-200.05,15.81-200.8,69.32c-.14,9.49,5.99,20.17,20.62,32.15,1.21.99,2.42,2,3.64,3.01,96.59,80.83,217.79,250,50.32,268.01-97.65,10.5-245.69,57.17-331.42,116.39h0c-48.22,33.3-76.73,70.57-65.46,107.6,66.23,17.37,139.15,28.71,216.18,32.64-9.41-23.8-7.66-52.27,20.24-83.4,11.4-12.72,27.24-23.29,46.04-32.39,111.43-53.96,326.94-56.34,339.94-149.96,15.2-109.41-153.22-185.65-96.37-223.51,0,0,0,0,0,0,10.3-6.85,25.38-12.48,43.2-17.1,64.05-16.63,163.28-20.27,201.36-21.07"/></g><g opacity="0.44" id="change3_3"><path fill="#efd1b9" d="M1084.56,754.42c33.68,38,74.35,85.46,66.54,141.68-13.75,99.05-254.17,95.98-358.21,159.89-10.89,6.68-20.28,14.1-27.76,22.45-42.22,47.09-24.57,88.11,1.03,116.1-89.6-42.57-155.67-98.68-186.63-162.22,37.32-29.05,90.48-55.53,147.08-76.86h0s.04-.02.06-.02c68.59-25.85,142.24-44.13,198.91-50.22,96.07-10.33,97.14-70.42,62.35-135.03-5.21-9.68-11.23-19.47-17.85-29.2-20.19-29.67-46.01-58.86-71.83-83.29,85.24-23.14,181.91-36.2,284.36-36.2,41.89,0,82.82,2.19,122.39,6.35h0c6.37,4,9.89,6.35,9.89,6.35,0,0-203.3.54-260.16,38.4-19.24,12.81-12.69,30,3.81,51.4,7.21,9.35,16.32,19.5,26.01,30.43Z"/></g></g></g><g id="change4_1"><path fill="#dbc8af" d="M1630.23,938.89c0,5.64-.42,11.23-1.26,16.76-17.41,115.17-212.75,205.96-451.16,205.96s-433.76-90.79-451.17-205.96c-.84-5.53-1.26-11.12-1.26-16.76,0-123.01,202.56-222.72,452.43-222.72s452.43,99.72,452.43,222.72Z"/></g><g id="change5_1"><path fill="#fffae9" d="M1628.97,955.65c-17.41,115.17-212.75,205.96-451.16,205.96s-433.76-90.79-451.17-205.96c17.41-115.18,212.75-205.97,451.17-205.97s433.76,90.79,451.16,205.97Z"/></g></g><g><g id="change1_4"><path fill="#f9f5e1" d="M1535.69,538.75c0-6.16-.54-12.25-1.61-18.26-.96-5.45-2.33-10.82-4.12-16.13-12.5-37.15-44.92-70.65-91.17-97.24-66.79-38.43-162.44-62.49-268.66-62.49s-195.13,22.39-261.5,58.47c0,.01-.01.01-.01.01-59.53,32.34-97.93,75.71-103.38,123.78-.45,3.93-.68,7.89-.68,11.87,0,3.11.14,6.21.42,9.28,0,0-50.79,518.35,342.81,533.82,0,0,408.38,64.09,387.9-543.1Z"/></g><g clip-path="url(#g)"><g opacity="0.44" id="change3_6"><path fill="#efd1b9" d="M1042.2,508.23c16.95,17.91,43.01,27.19,54.83,48.83,16.94,31.04-3.72,68.05-19.14,99.87-41.67,86.03-44.89,189.85-8.61,278.29,36.28,88.45,111.45,160.11,201.54,192.1-123.91,40.38-264.77,18.59-375.26-50.53-110.49-69.12-190.4-182.85-226.19-308.16-23.74-83.12-28.28-174.95,6.65-254.02,30.64-69.36,88.54-122.79,148.85-168.74,43.2-32.91,198.62-134.45,238.31-47.83,32.4,70.68-90.9,136.31-20.99,210.18Z"/></g><g opacity="0.44" id="change3_4"><path fill="#efd1b9" d="M1267.84,495.43c-6.37,13.6-3.36,29.52-.32,44.22,20.93,101.48,36.78,206.67,16.28,308.23-18.57,91.98-66.64,176.56-129.89,245.88-7.43,8.15-15.33,16.52-18.45,27.1-5.83,19.7,7.65,41.24,26.06,50.37,18.4,9.13,40.15,8.36,60.39,4.85,77.06-13.37,144.17-63.14,192.79-124.4,48.62-61.26,80.87-133.69,110.24-206.17,21.22-52.38,41.39-105.88,48.43-161.96,4.92-39.15,3.34-78.82.51-118.17-3.77-52.37-9.89-105.25-28.64-154.3-24.08-63.02-127.24-187.08-208.26-135.18-32.53,20.83-24.76,66.54-21.33,98.54,2.61,24.3,6.63,46.7-4.69,69.92-10.2,20.92-33.5,30.59-43.1,51.09Z"/></g></g></g><g id="change2_4"><path fill="#d3b4a5" d="M1182.24,1088.33c-18.94,0-31.05-1.67-33.12-1.98-98.84-3.94-178.52-39.86-236.83-106.75-31.33-35.94-56.61-81.07-75.13-134.12-14.77-42.32-25.31-89.75-31.31-140.99-10.22-87.16-3.67-156.19-3.6-156.88l8.96.88c-.07.68-6.52,68.92,3.61,155.17,9.32,79.32,34.97,190.56,104.28,270.06,56.67,65,134.26,99.87,230.63,103.66l.52.05c.33.05,34.07,5.15,80.75-1.7,42.94-6.3,105.97-24.3,162.4-74.28,99.97-88.55,146.92-244.17,139.55-462.54l8.99-.3c4.03,119.52-8.41,221.82-36.99,304.08-23.98,69.03-59.55,124.75-105.71,165.6-58.18,51.49-123.11,69.97-167.32,76.41-19.23,2.8-36.19,3.65-49.68,3.65Z"/></g><g><g id="change1_2"><path fill="#f9f5e1" d="M1538.51,573.96c14.8-.98,29.46-4.13,36.03-20.64,171.42-292.43,400.48,388.98-114.77,375.07,6.63-6.9,34.55-48.2,40.58-74.02,16.46-5.53,153.08-6.53,194.01-144.12,25.57-85.96-14.76-197.4-52.84-120.92-7.15,18.49-15.75,37.02-31.6,49.58-13.72,12.4-45.58,20-69.91,16.94-5.2-13.25.25-58.19-1.49-81.87Z"/></g><g id="change2_2"><path fill="#d3b4a5" d="M1475.27,933.1c-5.16,0-10.37-.07-15.64-.21l-10.17-.27,7.05-7.34c5.99-6.24,33.61-46.96,39.44-71.93l.57-2.44,2.38-.8c2.54-.85,6.7-1.49,13-2.45,39.22-6,143.4-21.93,178.13-138.69,18.21-61.21,1.66-131.98-18.64-139.98-10.65-4.2-20.68,11.99-25.77,22.17-7.3,18.86-16.34,38.09-32.82,51.2-14.68,13.16-47.54,21.21-73.38,17.97l-2.65-.33-.98-2.49c-3.45-8.77-2.76-27.88-2.03-48.11.46-12.67.93-25.77.24-35.08l-.33-4.52,4.52-.3c15.45-1.02,26.83-4.45,32.14-17.82l.13-.32.17-.29c48.51-82.75,96.09-79.81,120.13-70.69,30.51,11.57,57.47,44.92,73.96,91.49,16.94,47.82,20.73,102.18,10.7,153.07-11.98,60.74-42.89,111.71-89.38,147.4-52.57,40.36-123.42,60.78-210.78,60.78ZM1468.89,924.06c2.14.02,4.3.04,6.41.04,226.81,0,279.25-139.78,291.31-200.93,9.59-48.61,5.81-102.68-10.35-148.33-15.61-44.08-40.64-75.45-68.67-86.08-36.87-13.98-75.57,9.65-109,66.54-6.84,16.8-21.23,21.31-35.35,22.77.34,9.19-.06,20.56-.46,31.61-.57,15.78-1.2,33.46.68,41.98,22.81,2.01,51.24-5.1,63.44-16.12l.22-.19c14.08-11.16,22.26-27.13,30.2-47.68l.17-.38c14.24-28.59,28.1-30.31,37.22-26.71,13.34,5.26,24.31,26.46,29.36,56.7,5.17,30.97,3.2,65.31-5.4,94.22-15.54,52.24-46.47,91.33-91.92,116.19-36.88,20.17-73.7,25.8-93.47,28.83-3.66.56-6.97,1.07-9.23,1.53-5.99,21.66-24.71,51.61-35.15,66Z"/></g><g clip-path="url(#h)"><g opacity="0.44" id="change3_8"><path fill="#efd1b9" d="M1583.15,587.38c18.11-8.25,30.22-25.34,43.76-39.93,13.53-14.59,31.87-28.02,51.55-25.02,16.16,2.46,28.62,15.44,37.8,28.96,37.82,55.69,39.78,130.38,17.42,193.88-15.67,44.51-43.8,86.26-84.92,109.4-21.49,12.09-45.56,18.66-68.42,27.88-40.47,16.33-78.35,42.2-101.55,79.16-2.91,4.63-5.66,9.52-9.84,13.04-5.95,5.01-14.11,6.63-21.88,6.42-23.82-.65-45.16-17.1-57.04-37.76-11.88-20.66-15.64-44.98-16.86-68.77-6.04-117.7,51.34-239.52,152.51-299.98,9.56-5.72,19.96-9.87,31-6.03.01-.18,1.38-4.27,1.58-4.81-12.85,15.14,9.81,30.43,24.9,23.55Z"/></g><g id="change3_1"><path fill="#efd1b9" d="M1615.07,665.47c5,56.72-24.59,110.59-57.99,156.71-12.9,17.82-26.7,35.41-34.68,55.91-7.98,20.5-9.35,44.91,2.26,63.59,5.86,9.43,15.02,20.79,8.75,29.96-4.97,7.26-15.78,6.34-24.4,4.61-25.54-5.14-51.4-10.39-74.82-21.8-23.42-11.41-44.53-29.85-53.56-54.28-6.04-16.33-6.35-34.17-5.6-51.56,3.67-85.35,31.49-174.85,83.04-243.71,28.57-38.17,50.58-46.59,82.38-8.72,13.5,16.07,22.64,31,41.55,41.39,15.56,8.54,31.17,6.3,33.07,27.92Z"/></g><g id="change6_1"><path fill="#ffffff" d="M1644.05,531.24c12.69-6.6,27.27-11.72,41.14-8.21,10.06,2.54,18.62,9.47,24.76,17.84,6.14,8.37,10.07,18.14,13.29,28.01,2.42-21.95-8.43-44.84-26.96-56.86-7.82-5.08-16.71-8.25-25.56-11.19-12.64-4.2-31.99-6.66-40.53,6.88-6.85,10.87-1.75,31.66,13.85,23.54Z"/></g></g></g><g><g id="change7_1"><ellipse rx="339.84" ry="169.43" fill="#421e08" cx="1169.64" cy="574.59"/></g><g id="change8_1"><path fill="#2d1107" d="M1169.64,748.02c-91.38,0-177.36-17.77-242.09-50.04-65.62-32.71-101.75-76.53-101.75-123.38s36.14-90.67,101.75-123.38c64.73-32.27,150.71-50.04,242.09-50.04s177.36,17.77,242.09,50.04c65.62,32.71,101.75,76.53,101.75,123.38s-36.14,90.67-101.75,123.38c-64.73,32.27-150.71,50.04-242.09,50.04ZM1169.64,409.16c-90.17,0-174.88,17.47-238.52,49.2-62.76,31.29-97.32,72.56-97.32,116.22s34.56,84.94,97.32,116.22c63.64,31.73,148.35,49.2,238.52,49.2s174.88-17.47,238.52-49.2c62.76-31.29,97.32-72.57,97.32-116.22s-34.56-84.94-97.32-116.22c-63.64-31.73-148.35-49.2-238.52-49.2Z"/></g></g><g id="change2_5"><path fill="#d3b4a5" d="M1171.87,754.26c-84.63,0-164.25-15.49-230.24-44.79-64.56-28.67-110.61-69.06-129.66-113.74-5.35-12.54-8.63-25.49-9.73-38.48-.29-3.32-.44-6.71-.44-10.07,0-4.27.24-8.6.71-12.88,5.36-49.35,42.04-95.89,103.36-131.27v-.02l2.28-1.29c70.02-39.72,163.68-61.6,263.72-61.6,52.29,0,102.83,5.95,150.2,17.7,45.86,11.37,86.5,27.57,120.78,48.15,48.36,29.01,80.56,64.95,93.14,103.94,1.84,5.7,3.28,11.58,4.27,17.47,1.11,6.5,1.67,13.17,1.67,19.79,0,5.67-.41,11.4-1.23,17.03-1.59,11.06-4.8,22.13-9.52,32.89-19.49,44.35-65.66,84.41-130.02,112.79-65.81,29.03-145.1,44.37-229.29,44.37ZM911.56,410.15c-59.49,34-95.02,78.4-100.1,125.14-.43,3.95-.65,7.96-.65,11.9,0,3.1.14,6.23.4,9.3,1.02,12.05,4.07,24.06,9.05,35.72,18.16,42.58,62.56,81.31,125.04,109.04,63.92,28.38,144.39,44.01,226.59,44.01s160.98-15.08,225.66-43.61c62.29-27.47,106.83-65.89,125.41-108.18,4.4-10.02,7.38-20.29,8.86-30.55.75-5.21,1.13-10.5,1.13-15.74,0-6.12-.52-12.27-1.55-18.29-.92-5.48-2.26-10.93-3.97-16.21-11.9-36.89-42.74-71.12-89.2-98.99-68.34-41.03-165.42-64.56-266.34-64.56s-188.56,20.99-257,59.14v1.87h-3.31Z"/></g><g id="change9_1"><path fill="#7d4828" d="M876.27,552.92c-9.34,15.52-13.69,35.08-7.19,51.99,7.91,20.59,29.52,32.49,50.59,39.02,21.07,6.54,43.56,9.64,62.64,20.73,8.9,5.17,16.8,11.96,25.75,17.03,24.25,13.74,53.73,13.72,81.53,11.68,25.1-1.84,50.11-5.03,74.87-9.56,24.47-4.47,49.91-10.86,68.09-27.84-46.5,5.88-93.8,5.36-140.17-1.51-22.59-3.35-45.8-8.58-63.9-22.5-6.01-4.62-11.38-10.15-18.04-13.77-8.92-4.84-19.33-5.85-29.25-7.96-22.51-4.8-44.09-16.25-58.28-34.37-13.52-17.25-14.47-35.24-16.18-55.67-12.11,7.37-23.06,20.46-30.44,32.72Z"/></g><g id="change9_2"><path fill="#7d4828" d="M1211.99,448.46c14.87,7.62,28.78,17.57,44.88,22.05,9.82,2.73,20.09,3.32,30.23,4.31,18.63,1.82,37.12,5.08,55.24,9.78,31.02,8.04,61.87,20.96,83.97,44.16,22.1,23.2,33.7,58.39,22.34,88.35,2.74-24.81-20.77-43.83-41.98-56.98-48.25-29.92-103.42-57.65-159.38-48.02-3.25.56-6.67,1.23-9.78.13-4.05-1.44-6.48-5.46-8.82-9.06-16.34-25.12-43.48-41.86-72.23-50.29-25.85-7.58-58.53-.81-82.19-9.89,39.41-22.31,99.09-14.34,137.74,5.46Z"/></g><g id="change9_3"><path fill="#7d4828" d="M958.17,485.59c20.49-15.94,46.78-22.96,72.71-24.34,25.92-1.38,51.8,2.5,77.47,6.37-34.66,15.42-75.71,8.99-111.07,22.73-17.59,6.83-33.39,18.81-43.4,34.81-10,16-13.83,36.07-8.91,54.29-1.26-4.68-12.86-12.11-15.5-18.72-3.32-8.3-3.58-16.35-2.26-25.11,2.96-19.69,15.46-37.96,30.97-50.02Z"/></g><g id="change9_4"><path fill="#7d4828" d="M1308.02,677.06c12.37-3.1,24.9-6.26,36.01-12.51,11.11-6.26,20.81-16.09,24.02-28.43.69-2.65,1.25-5.65,3.5-7.2,2.13-1.47,4.98-1.07,7.54-1.42,7.74-1.05,12.53-8.75,16.07-15.71,2.76-5.43,5.5-11.28,4.82-17.33-1.25-11.17-13-17.61-23.35-21.98-31.61-13.32-66.12-25.11-99.65-17.89,22.45-2.17,45.7,5.97,61.89,21.67,10.15,9.85,17.79,24.78,12.64,37.95-3.45,8.84-12.05,14.86-21.15,17.58-9.09,2.72-18.75,2.64-28.24,2.53,5.8,2.7,7.31,10.78,4.81,16.67-2.5,5.89-7.82,10.03-13,13.8-8.92,6.48-19.79,11.31-28.29,17.19,13.26,4.44,29.39-1.67,42.38-4.92Z"/></g><g id="change9_5"><path fill="#7d4828" d="M1028.2,597.24c12.82,3.92,26.9,5.94,39.49,1.32-.78,11.78,13.76,17.69,25.37,19.8,29.2,5.32,59.16,9.36,88.47,4.73,29.31-4.63,58.26-19.04,74.49-43.88-50.9,29.52-117.34,30.15-168.79,1.61-19.99-11.09-36.44-4.53-56.85-10.38-14.97-4.29-22.13-23.79-35.11-27.44-14.78-4.15-11.24,16.26-6.02,26.51,7.42,14.57,23.95,23.15,38.95,27.73Z"/></g><g id="change6_2"><path fill="#ffffff" opacity="0.31" d="M893.55,859.69c24.72,57.32,60.6,115.27,118.42,138.81-44.22-69.74-63.83-154.76-54.61-236.82-.18,1.57-86.29-41.11-98.18-20.12-13.86,24.5,24.18,94.51,34.36,118.14Z"/></g><g id="change6_3"><path fill="#ffffff" opacity="0.31" d="M1453.18,892.1c-16.92,30.84-37.7,61.05-67.8,79.26,48.73-86.09,74.9-184.83,75.19-283.76,9.31-7.46,41.76-43.15,52.13-25.04,4.56,7.97-.05,29.05-.69,38.12-.96,13.47-2.61,26.88-4.89,40.19-9.08,53.02-28.1,104.15-53.93,151.25Z"/></g><g><path fill="url(#d)" opacity="0.43" d="M1485.59,323.99s-160.22-100.16-210.9,23.89c-50.68,124.06,56.05,134.58,56.05,134.58,0,0-113.49,152.7-57.96,155.79,58.83,3.28,53.82,66.56,202.73-19.73,55.94-32.41,19.98-85.4,19.98-85.4,0,0,109.3,24.49,98.15-39.88-11.15-64.37-57.13-113.05-74.54-109.02-17.41,4.03,37.87-73.74-33.53-60.25Z"/><path fill="url(#i)" opacity="0.43" d="M1121.72,233.59s-160.22-100.16-210.9,23.89c-50.68,124.06,56.05,134.58,56.05,134.58,0,0-69.71,99.14-14.43,140.41,47.21,35.24,118.07,37.28,159.21-4.34,45.45-45.98,19.98-85.4,19.98-85.4,0,0,109.3,24.49,98.15-39.88-11.15-64.37-57.13-113.05-74.54-109.02-17.41,4.03,37.87-73.74-33.53-60.25Z"/></g></svg>