<?xml version="1.0" encoding="UTF-8" standalone="no"?><svg xmlns="http://www.w3.org/2000/svg" xmlns:xlink="http://www.w3.org/1999/xlink" contentScriptType="text/ecmascript" fill="#000000" width="3807.4" zoomAndPan="magnify" contentStyleType="text/css" viewBox="-7.3 -4.2 3807.4 2268.5" height="2268.5" preserveAspectRatio="xMidYMid meet" version="1"><g><g><path fill="#3c170e" d="M3.8,1281.5c-8.8-16.8-0.4-31,6.1-46.1c39.2-90.8,78.6-181.6,116.6-272.9c16.5-39.7,42.5-67.3,82.6-84.1 c197.8-82.7,401-149.6,606-211.6c35.6-10.8,71,16.2,99.3,2c26.8-13.4,26.5-58,66.2-70.5c95.8-30.2,189.6-66.9,284.6-99.7 c69-23.8,139.2-44.1,207.9-68.7c55.2-19.8,122,3.3,166.1-66.4c20.6-32.5,86.8-37,132.9-52.4c107.7-36,215.8-71.1,323.8-106.4 c30.2-9.9,60.8-12.9,90.4,0.8c24.9,11.6,34.5,2.6,38.6-22.1c5.1-30.4,26.8-46.1,54.3-56.8c115-44.7,231.8-84.2,349.7-120.8 c32.2-10,63.9-6.7,95.2,6.6c119.5,50.9,236.1,107.9,352.6,165.3c45.7,22.5,53.8,86.2,90.8,93.2c40.3,7.6,84.6-2,123.2,23.4 c8.1,5.4,16.9,9.8,25.7,13.8c158.2,71.2,288.2,172.3,367.5,332.3c25,50.4,61.9,95.3,96.2,140.7c20,26.5,12.4,39.7-14.3,50.1 c-83.9,47.2-175,77.5-264.8,110c-512.3,185.4-1025.4,368.8-1539.7,548.6c-334.8,117-671.3,229.1-1004.2,351.2 c-76.1,27.9-138.1,21.9-205.3-24.8c-227-157.8-458.2-309.7-682.9-470.9C44.1,1327.7,15.8,1312.6,3.8,1281.5z"/></g><g><path fill="#4b1d12" d="M1586.6,2000.4c-35.4-46.7-47-105-74.9-155.3c-11.3-20.5-15.3-41.7-13.8-64.7c4.4-68,50.3-113.2,119.1-110.7 c59.4,2.1,118.5,10.8,168.4,48.2c15.7,11.7,34.4,12.1,52.5,14.7c41.2,6,82,15.2,123.9,15.5c16.7,0.1,25.9,8.8,27.8,24.1 c2.1,17.5,5.2,35.8,2,52.7c-7.2,38.6-2.4,76.8-1.2,115.2c9,15.7,10.4,33.3,3.6,48.8c-31,70.6-73,105.5-146.2,100.6 c-65.3-4.4-127.7-22.7-191.2-35.7C1626,2047.5,1600.6,2030.6,1586.6,2000.4z"/></g><g><path fill="#341109" d="M1463.9,2093.8c-6.4,8.1-6.2,17.9-7.5,27.4c-8.2,21.6-27.9,29.2-46.8,36.5c-30.4,11.8-60.7,23.5-91.2,35 c-32.8,12.3-64.1,28-95.3,43.9c-28.6,14.5-54.7,15.8-83.2-3.1c-30.7-20.3-66.9-26.3-103.3-29.8c-14.9-1.4-25.5,10.8-39.7,9.6 c-8.4-7.9-2.6-14,2.7-19.9c15.3-17.1,35-20.1,56.3-16.6c31.8,5.2,61.7,16,90.2,30.9c10.5,6.1,17.5,20.5,33.3,14.2 c10.5,4.1,18-3.3,26.5-6.9c24.4-6.4,46-19.4,68.9-29.4c40.1-20,83.9-30.1,124.9-47.8c14.1-6.1,27.1-13.1,37.6-24.2 c20.9-49.5,21.1-100.3,10.2-151.8c-19.3-12.5-14.5-29.9-10.2-47.7c2.8-11.9,1-24.1,0.6-36.2c-0.9-26.2,1.7-51.9,11.3-76.5 c1.9-5,4.4-10.6-0.5-15.2c-5.3-5-11.4-3.4-16.7,0c-13.3,8.5-27.7,14.8-41.4,22.6c-10.5,6-17,14.6-20.3,26.5 c-4.6,16.9-8.1,34.1-13.7,50.7c-8.9,26.8-22.3,50.8-43.1,70.3c-8.7,8.3-18.9,14.1-30.3,18c-26,6.2-50.3,15.9-69.7,35.2 c-1.7,1.7-3.2,3.9-5.3,4.8c-32,12.9-34,38.1-27.6,66.9c3.5,25.5-3.2,50.5-2.9,75.8c0.1,4.2-0.1,8.4-1.3,12.4 c-2.2,5.3-5.2,9.1-11.8,7c-7.2-5.9-6.8-13.9-6-22c3.4-13.7-3.2-26.8-2.4-40.3c0.3-6.4,1.2-12.8,1.5-19.2c0.2-15.3-1.8-30.6-0.9-46 c0.6-9.8-3.7-17-11.3-22.7c-9.2-7.8-19.6-12.9-31.8-13.6c-11.4-0.9-22.7-3.1-34.1-3.5c-8.3,0.4-16.4,5.5-24.9,1 c-6.8-4.2-14.2-7.3-21.6-10.3c-11.6-8.8-24.2-11.1-36.6-2.8c-7.2,4.8-11.8,2.4-17.5-1.8c-14.3-10.3-28.8-20.3-47-7.1 c-3.7,2.7-8,0-11-3.5c-0.9-1.3-1.6-2.8-2.2-4.3c-1.2-10-9.2-8.7-15.9-9.7c-6.1-0.7-12.3-1.4-18.4-2.1c-8.1-1.5-16.9,0.6-24.5-4.1 c-13.9-3.9-28.3-3.2-42.4-4c-18.1-1-11.4,15.6-14.8,24.9c-1.9,15.4,4.1,31.3-2.5,46.4c-5.9,4.2-9.3,1.6-11.5-4.2 c-4-10.7-1.8-21.5-0.4-32.2c-0.2-17.7,2.3-35,6.6-52.2c3.9-12,14.3-15,24.9-17.6c5.5-0.4,4.7,3.4,4.5,6.8c0.3,2.4-6.9,5.6,0.5,7.2 c5.1,1.1,10.5,0.9,15.8,1.7c13.9,1.7,27.7,3.7,41.5,5.1c7.6,0.4,14.5,3.6,21.5,6.1c72.2,19.4,145.8,30.7,219.8,39.8 c6.6,0.8,12.9,2.9,18.8,6c13.4,10.9,24.6,12.2,38.5-2.1c18.8-19.2,43.2-31.1,69.1-38.1c46.6-12.6,73.6-43.6,87.5-88.1 c4.5-14.4,10.3-28.3,13.4-43.1c5.2-24.4,23.3-37.1,43.8-47.4c9.8-5.2,20.5-8.2,30-14.1c3.5-1.3,3.4-9,9.7-5.6 c4.2,3.8,7.3,7.8,14.1,9.2c16.8,3.2,25.1,16,19.9,32.3c-17.9,56.6-10.5,113.2-2.6,170c2.6,18.7,4.5,37.6,6.7,56.4 C1471.9,2049.8,1468.9,2071.9,1463.9,2093.8z"/></g><g><path fill="#aa918f" d="M3.8,1281.5C248,1460.1,501,1625.8,749.1,1798.8c69.6,48.5,130.2,54.6,211,26.4 c857.2-299.2,1714.4-598.3,2568-907.9c79.2-28.7,158.4-57.3,237.6-85.9c-17.8,30.9-51,38.7-80.2,51.1 c-248.3,105.7-503.9,192.2-757.1,284.9c-483.5,177-967.6,352.3-1452.3,526.1c-168.1,60.3-339.2,112-507.4,171.9 c-85.9,30.5-160.8,14.6-237.4-27.6c-167-92-323.1-200.5-479.3-309c-65.4-45.4-129.8-92.3-192-142C27.8,1361-7.3,1332.4,3.8,1281.5z"/></g><g><path fill="#af9695" d="M998.6,2212.1c26.8-23.7,57.1-11.8,85.5-6.2c25.2,4.9,49.7,14.4,70.9,30.1c15.3,11.4,32.1,11,47.8,3.3 c70.2-34.6,143-63,216-91c14.8-5.7,26.5-16.2,37.6-27.1c13.1,14.8,4.6,27.2-5.7,37.7c-11.8,12.1-26.6,20.6-42.4,27.1 c-60.7,25.1-122.8,46.3-185.5,66c-39.1,12.3-76,6.8-113.5-4.1c-33.2-9.6-67.2-14.3-101.8-12.8c-55.4,2.4-107-13.9-158.8-30.1 c-17.8-5.6-35.4-11.8-51.1-22.2c-22.5-15-23.9-23.1-8.3-44.8c2.3-3.2,3.1-7.6,4.7-11.4c5.5,0.9,6.5,5.4,6.3,9.5 c-0.9,17.8,10.2,25.6,24.6,31.1c24.7,9.4,49.9,17.1,75.7,23c18.2,4.2,36.1,8.4,51.4,20.2c8.9,6.9,19.4,9.2,30.6,4.9 C987.8,2213,993.3,2213.1,998.6,2212.1z"/></g><g><path fill="#441a11" d="M2116.5,1692.2c-63.9-39.6-64.2-109.3,1.6-150.5c55.1-34.5,114.6-60.7,175.8-82.9c4.6-1.7,9.5-4.8,13.8-4.3 c74.8,9.3,134.5,53.4,198,88c37.2,20.2,36.9,62.1,47.1,97.7c10,35-22.1,42.4-36.7,61.3C2384.3,1816.9,2232.8,1814.1,2116.5,1692.2z"/></g><g><path fill="#44190f" d="M822.3,1933.3c0.3-2.9,0-5.7-2.5-7.7c72.3-28.5,140.7-65.3,210.1-100c37.5-18.7,77.2-29.6,119.1-33.3 c22.2-2,45-4.7,62.1-21.1c49.8-47.9,107.6-51.7,169.6-31.5c18.1,5.9,37.5,8.5,53.6,19.8c-2.1,2.4-4.1,4.8-6.2,7.1 c-20.7,3.9-38-8.7-57.2-12.2c-19.4-3.6-37.6-12.4-58.1-11.2c-28,1.7-53.1,9.6-74.2,28.8c-25.9,23.7-57,35.1-91.8,37.8 c-61.7,4.8-115.6,31.7-169.1,60c-42.6,22.5-85.8,43.9-130.2,62.6C839.6,1935.8,831,1941.2,822.3,1933.3z"/></g><g><path fill="#ae9693" d="M1586.6,2000.4c27.1,31.9,61.3,48.4,103,54.1c49.6,6.8,97.6,22,148.1,26.9c91.2,8.7,156.5-49.7,152.8-141.2 c9.6,3.9,19.6,7.1,28.8,11.7c28.6,14.3,33.8,32.2,11.4,54.5c-58.5,58.1-124,101.1-212.8,90.8c-52.5-6.1-104.7-12.4-155.9-25.6 C1609.5,2058,1591.8,2041.4,1586.6,2000.4z"/></g><g><path fill="#44190f" d="M988.4,2218.5c-16.2,7.3-30.9,6.5-44.1-6.8c-10.4-10.4-24.9-11.4-38.1-14.6c-23.3-5.7-46.2-12.8-69.2-19.8 c-25.8-7.8-47.6-17.8-42.9-50.8c1.5-33.2-3.8-66-5.3-99.1c3.2,1.6,6.4,3.2,9.7,4.8c8.2,4.3,8.2,12.6,9.4,20.1 c3.1,19.6,2.4,39.3,3.1,59c1.3,36.9,2.4,38.4,38.1,50.5c23.4,7.5,47.3,13.3,71.2,19.2c13,3.2,25.1,7.8,36.1,15.5 c3.9,2.7,7.7,5.6,11.8,8C974,2210.6,984,2210.4,988.4,2218.5z"/></g><g><path fill="#b29995" d="M2116.5,1692.2c10.7,6.8,21.4,13.5,31.9,20.6c104.3,69.8,210.7,82.2,320.7,12.5c14.8-9.4,31.4-15.9,47.1-23.8 c-13.2,50-59.7,60.1-97.7,76.2c-96,40.6-188.8,26.4-277.7-25.7C2116,1737.5,2108.1,1718.9,2116.5,1692.2z"/></g><g><path fill="#532114" d="M1463.9,2093.8c2.8-22.1,5.7-44.3,8.5-66.4C1474.8,2050.1,1471.4,2072.2,1463.9,2093.8z"/></g><g><path fill="#44190f" d="M795,1943.1c-2.2,17.4-4.4,34.8-6.6,52.2C786.2,1977.3,787.1,1959.8,795,1943.1z"/></g><g><path fill="#8c4c38" d="M613.7,1191.6c11.2-21.2,33.7-20,52.2-26.6c13,7.6,28.6-5.9,41.2,4.8c71.3,65.6,160.8,103.9,239.2,158.9 c17.8,12.5,37.6,3.8,56.2-2.8c102.6-36.6,206.6-68.6,294.9-95.1c-99.5,18-205.8,77.2-326.5,83.8c51.9-43.9,112.7-70.5,162.8-102.6 c-49.4,28.1-104.7,58.1-159.9,88.5c-19.5,10.7-37.1,14-54.7,2.6c-60.1-38.9-124.3-70.9-183.2-111.6c-8-5.6-14.9-12.8-15.8-23.6 c8.5-19.5,28.1-20.9,44.4-26c156.1-49.4,310.8-103.3,464.8-158.8c47.4-17.1,90.3-15.5,135.2,1.7c66.5,34.4,133.2,68.4,199.4,103.5 c18.1,9.6,39.8,14.3,55.9,38.2c-58.3-9-103.5-44.5-158.1-51.9c4.3,49.8,51.7,38.1,78.2,58.9c-28.5,32.6-77.1,25.5-102.6,64.2 c58.7-15.9,118.6-28.4,175.6-49c28.8-10.4,38.5-2.3,45.6,21c10.5,34,20,68.3,29.9,102.5c5.5,19-0.5,21.3-15.4,10.6 c-12-9.2-24.5-17.9-29.3-33.4c-20.8-60.7-22.9-60.8-82.9-42.7c-180.5,54.6-358.2,117.8-537.2,177.1c-24.9,8.2-50.2,13.6-76.2,15.5 c-15.5,0.8-28.1-7.4-41.3-13.7c-94-51.4-183.2-110.8-275.8-164.6C621.4,1213,610,1206.6,613.7,1191.6z"/></g><g><path fill="#874734" d="M2062.4,738.6c53.5,27.5,106.9,55,160.4,82.4c2.6,12.4,12,25.2-2.8,36.3c-12.2,8.1-27.6,8-43.2,17.8 c39.5,18.9,76.3,11.5,113.1-0.2c27.5,8.1,23.5,30.8,24,51.5c-35.1,33-82.7,36.4-125.3,49.7c-116.5,36.5-228.7,85.9-347.4,115.4 c-56.2,14-47.6,62.2-57.8,105.4c192.3-57.7,383-110.8,569.1-178.6c6.8-3.3,13.9-4.8,21.4-5c12.2,15,20.6,31.8,26.7,58.7 c-23.5-19-44.1-19.5-66.8-12.2c-171.5,54.4-343.1,108.4-515,161.4c-36.3,11.2-64.9,27.3-76,66.4c-3.6,12.7-12,23.5-34.9,19.3 c14.1-54,21.9-108.9,28.5-164.1c4.2-34.8-4.4-56.7-32-73.6c-87-53.3-174.2-106.3-262-159.9c17.6-13,39.2-17.2,60.2-22.8 c50.7,4.7,94.1-21.1,139.2-36.5c107.1-36.5,214.6-71.4,321.5-108.4C1995.8,730.3,2028.9,724.8,2062.4,738.6z"/></g><g><path fill="#874735" d="M1161.8,890.3c19.7,5.2,38.4,12.1,56,30.1c-172.3,43-331.1,112.7-496.4,162.6c-7.3-8.4-23.8-9.1-21.5-25.6 c7.7-14.4,22.3-18.4,36.1-22.6c119.6-36.2,237.3-78.2,354.8-121.5c-19.3-0.4-37.1,7-54.7,14.1c-153.7,61.8-312.9,107.7-469,162.5 c-43.7,15.3-78.9,8.3-117.3-20.4c-75.9-56.8-158.2-104.1-250.4-131.3c19.8-37.8,62.2-36.7,94.1-48.1 c160.2-57.4,322.4-109.4,484.7-160.8c42-13.3,77.1-9.2,115.4,13.5C981.5,794.5,1069.3,846.7,1161.8,890.3z"/></g><g><path fill="#8a4937" d="M997.2,639.6c-0.5-14.2,6.3-20.6,20.5-18.9c64.7-2.2,119.6-37.1,179.6-55c92.6-27.7,184.6-58.4,275-92.9 c33.3-12.7,61.7-8.9,92.6,6.9c87.7,44.7,176.9,86.2,271.2,115.8c24.6,11.6,49.1,23.2,78.7,37.3c-187,51-361.8,116.4-538.5,176.2 c-27,9.2-47.8,8.4-72.5-7.2c-75.4-47.7-152.4-92.7-228.9-138.6c-24-14.4-50.3-22-78.3-24L997.2,639.6z"/></g><g><path fill="#884936" d="M2380.4,398c-4.7,9.5-23.2,17.7-0.8,29.1c12.1,6.1,28.6,5.4,37.7,23.1c-123.9,39.3-246.7,78-369.2,117.4 c-16.2,5.2-23.2-2.2-31.5-13.9c-48.3-68.5-114.2-107-197.4-118.7c-45.2-6.4-86.6-25-123.4-52.8c28.3-24.5,65.3-27.6,98.8-38.5 c101.6-33,201.7-70.6,305.1-98.2c17.7-4.7,34.4-10.9,50.9,1.7c57.6,43.5,127.9,63.7,187.6,103.2 C2356.3,362.2,2381.8,368.6,2380.4,398z"/></g><g><path fill="#874836" d="M3082.1,219.5c-30.4,19.5-67.1,16-99.9,27.3c-102.2,35.3-205.3,68.3-307.4,104c-11.5,4-16.5,7.6-28.2-1.1 c-95.2-71.1-203.5-118.9-309.6-170.5c-7.1-3.4-13.2-8.8-19.8-13.3c-4.7-21.8,12.7-22.3,25.9-26.9 c101.2-34.7,202.9-67.9,304.4-101.7c19.6-6.5,37.6-4.1,56.4,5c83.2,40.3,168.4,76.4,249.9,120.8 C2994.6,185.3,3037.3,205.5,3082.1,219.5z"/></g><g><path fill="#894835" d="M3346.4,362.5c51.7,29.7,103.4,59.4,161.2,92.6c-98,32.8-190.1,63.5-282.1,94.2c-1.5,0.5-3.5,0-4.8,0.8 c-95.9,60-180.5,24.6-261.7-32.1c-39.1-27.4-88.4-30.8-127.9-57c-5.1-3.4-14.6-0.2-22.4-0.1c2.1,15.6,13.3,15.5,22,18.6 c-22.4,39-45.1,4.2-67.7,0.4c-11.4-2.6-22.1-15.3-34.7-2c-17.5,18.5-17.6,18.4-38.8-3.2c28.6-19.4,62.7-22.3,93.9-33.1 c68.1,2.2,126.4-33.3,189.5-50.1c59.1-15.7,116.1-39.5,173-61.8c55.9-21.9,103.9-14.1,151.7,15.7 C3312.9,354.9,3326.9,366,3346.4,362.5z"/></g><g><path fill="#784133" d="M613.7,1191.6c7.5,6.7,15,13.4,22.5,20.2c-0.1,3.2-0.1,6.6-1.2,9.6c-32.8,88.7-32.6,88.4,52.1,138.7 c62.5,37.2,122.2,78.7,185.5,121.5c4.3-23.7-10.3-36.5-22.5-50.4c-8.5-9.7-20.9-20.6-14.8-33.5c6.9-14.3,23.9-10.8,34.6-4.6 c24,14.1,30.4-5.7,41.1-18.2c10.3,6,20.6,11.9,30.9,17.9c15.4,32.1-2.7,63.6-1.8,99.1c162.7-58.3,325.7-111.1,487.2-168.7 c74.9-26.7,149.5-54.8,227.8-70.8c6,10.1,12,20.2,18,30.3c-33.6-3.8-64.1,8.3-94.7,18.8c-208.7,71.5-417.3,143.2-625.8,215 c-25.7,8.8-53.5,67-42.1,90.3c9.3,19.1,24.8,8.8,38,4.5c67.9-22,135.7-44.7,203.7-66.5c160.6-51.4,327.2-82.9,484.9-144.2 c78.4-30.5,151.1-75.8,235.9-89.6c59.1-9.6,118.2-19.4,177.2-29.5c100.9-17.3,191.3-61.3,279.3-110.9 c99.8-56.1,200.9-100.6,320-106.1c96.9-4.5,191.5-37,275.9-88.5c166-101.1,352.1-148.8,534.7-206.3 c58.8-18.5,116.7-40.2,175.1-60.1c11.3-3.8,22-7.1,21.6-21.9l-0.4,0.5c42.2,14.7,54.9,54.6,80.3,88.8c-18.8-0.5-24-11.5-28.9-20.5 c-16.3-29.7-39.6-34.8-70.1-24.5c-185.9,62.9-375.3,115.2-559.1,184.4c-97.5,36.7-182.1,100.6-281.6,133.7 c-55.8,18.6-113.1,35-170.6,35.6c-76.5,0.8-145.7,23.6-207.8,60.6c-166.8,99.4-343,167.3-536.7,190 c-81.6,9.5-154.2,47.9-228.2,81.5c-150.1,68.3-313,93.7-470.6,136.9c-78.1,21.4-154.7,48.1-230.3,77.6 c-19.6,7.6-32.6,19.4-44.5,34.6c-50.5-4.6-25.8-43-30.6-68.2c11.1-52.5-22.7-82.8-58.8-107.1c-80.2-53.9-156.1-115.1-247.1-151.7 c-12.5-5-29-13.8-15.6-27C590.6,1279,588.7,1229.2,613.7,1191.6z"/></g><g><path fill="#8a4f3d" d="M877.6,1599c23.6,16.7-5.8,57.2,30.6,68.2c-0.3,9.6-0.6,19.2-0.9,28.7c-22.4,10.7-40.6,10.3-48-18.4 c2.3-22.8-5-38-25.8-52.2c-111.4-76.2-228.1-143.9-342.9-214.8c-63.6-39.2-117.4-91.3-178.4-134.4c-63.7-45-129.8-86.4-193.5-131.3 c-13-9.2-28.3-15.7-38.2-42.3c127.1,73.4,241.7,150.7,356.1,230.2c32.2-60.7-37.3-64.6-49.1-103.1c23.6,2.3,32.7,29.5,58.9,27.2 c19.8-25.7,11.3-61.8,20-93.3c4.8-17.2-14.3-23.1-26.5-30.7c-72.8-45.8-145.6-91.6-218.3-137.3c2.3-13.8,10.5-22.2,23.6-26.1 c28-1.3,47.7,17.7,70.3,29.3c14.3,7.4,28.7,15.5,40.8,26c89.7,77.4,185.5,104.3,294.8,40.1c14.4-8.5,33.3-14.5,50-0.2 c11.9,0.5,19.6,5.6,20.4,18.3c-72,18.3-137.1,58.7-212.5,66.4c-10.8,1.1-17.2,9.5-18.6,19.9c-7.2,51.2-23.8,101.1-18.7,154.2 c2.1,21.5,10.9,37.7,26.8,49.7C616.5,1462.2,744.1,1535.5,877.6,1599z"/></g><g><path fill="#39170e" d="M3380.1,564.2c19.9,21.7,46.5,4.8,68.9,12c18.7,6,39.9,12.7,45.1,32.9c5.3,20.9-18,23.3-30.4,31.9 c-30,20.7-60.3,40.9-90.4,61.3c-5.4,21.8-26.2,22.9-41.9,28.3c-50.3,17.5-100.8,34.7-151.6,50.8c-41.5,13.1-50.6,6.4-54.4-38.8 c-1.7-20.9-2.4-42-0.7-63.1c0.6-22.8,9-42.3,30.6-51.4c64.3-27,130.1-50.3,197.2-69.6C3362.1,555.8,3371.9,557.5,3380.1,564.2z"/></g><g><path fill="#7e402f" d="M2537.7,434.9c11.9,5.7,25.8,12.3,22.2,27.5c-3.3,13.9-19.3,17-31.5,19.8c-123.1,29.1-243,68.8-363.2,107.5 c-38.5,12.4-83,14.4-109.7,53.5c-8.7,12.7-21.3,2.2-30.1-3.2c-123.6-77.7-247.8-154.2-378.9-218.9c-12.2-6-24.1-14.9-14.8-30.1 c7-11.4,21.6-11.5,30.4-3.9c58.1,50.2,133.9,54.2,201.6,78.9c55.1,20.1,100.1,54.9,135.6,99.8c21.6,27.3,43.2,28.5,71.9,19.5 c97.4-30.4,195.7-57.9,292.1-91.1c42-14.5,85.5-17.4,127.7-28.4c14.3-3.7,29.3-3.3,36-19.8C2527.5,439.4,2533.6,438.1,2537.7,434.9 z"/></g><g><path fill="#8a4937" d="M996.6,639c15.8,27.7,46,34.5,70.9,49.2c75.4,44.7,152.1,87.5,225.3,135.8c34.3,22.6,62.5,21.6,99.1,8.7 c160.4-56.4,321.6-110.6,483.3-163.5c25.3-8.3,53.3-24.3,82.6-6.2c-4.9,22-23.2,15.4-35.4,19.5c-189,63.2-378.5,125.2-567,190 c-37,12.7-67.5,12-100.8-8.1c-96-57.8-185.8-125.5-285.8-176.6c-14.8-7.5-23.4-19-15.2-35.6c9.5-19.3,24.2-25.6,43.7-12.7 C997.2,639.6,996.6,639,996.6,639z"/></g><g><path fill="#864634" d="M2856.3,732.6c-92.4,44.1-192.7,66-287.9,102c-21.2,8-42.9,15.1-64.8,20.7c-33.3,8.5-48.3,26.7-46.1,62.9 c1.7,27-4.8,54.5-7,81.9c-0.9,10.3-1.8,21.1-14.7,20.4c-12.2-0.6-14.1-11.8-14.3-21.8c-1-32.5-2.9-65.1-1.9-97.5 c0.8-26.3-10.2-41.7-32.7-54.1c-76.6-42.1-152.1-86.1-228.6-128.4c-18.7-10.3-35.7-30.3-62-15c-7.1,4.1-16.4-2.4-18.2-11.4 c-2.3-11.4,7.5-13.7,15.3-13.3c22.7,1.3,40-11.2,58.7-20.5c9.5,6.8,27.5-3.9,31.1,15.1c44.6,40.3,102.4,58.5,152.1,90.2 c9.5,6.1,22.2,8.2,30.1,15.6c57,53.6,116.5,37,179.4,11.8c94.7-38,191.8-69.4,290.7-94.9C2854.6,701.5,2853.7,718,2856.3,732.6z"/></g><g><path fill="#7d4130" d="M2646.5,424.1c-8.3-3.2-18.3-4.9-25.8-10.2c-100.4-72.6-213.4-123.4-320.2-184.8 c-9.8-5.7-19.6-11.7-28.5-18.7c-8.6-6.7-23.4-14.1-17.4-26c8.6-16.9,22.7-4.1,33.4,0.7c102.4,45.9,203.2,95.8,296.1,158.4 c57.1,38.5,108.8,38.6,167.5,13.2c107.3-46.5,220.4-76.2,331.2-112.7c13.8-4.5,28-6.9,32.5,9.1c5.1,18-13.4,20-24.4,23.7 c-115.2,38.7-230.6,76.7-346,114.9C2712.6,402.4,2680.4,412.9,2646.5,424.1z"/></g><g><path fill="#784133" d="M3136.9,677.4c0.6,33.4,1.2,66.8,2,106.5c83.1-28.9,158.7-55.2,234.4-81.6c59.1-20.8,118.9-39.7,177-62.9 c78.2-31.2,79-32,106,48.9c0,0,0.4-0.5,0.4-0.5c-11.5,0.9-27.2,2.4-31.4-8c-17.7-43.6-46.3-25.2-73.9-15.6 c-130,45.2-260.1,90.4-390.1,135.7c-54.9,19.1-65.3,16.2-59-38.2c8.9-76.8-28.1-115.7-90.8-145c-68.5-32-135.7-67-202.5-102.4 c-16.6-8.8-36-15.9-46.1-34.3c22.5-6.7,45.3,22,67.8-0.4c85.6,46.8,178.8,79.5,257.6,139C3120.1,625.3,3125,654.3,3136.9,677.4z"/></g><g><path fill="#c08672" d="M240.8,975.4c-6.5,6.7-12.9,13.4-19.4,20.1c-19.3-12.9-57.3-12.9-54.8-39.4c2.8-29.2,36.7-44.3,63.4-54.3 c127.5-47.4,255.6-93.3,384.1-138c64.2-22.3,129.7-40.7,194.3-61.7c15.9-5.2,30.6-9.9,46.4-0.1c101.9,63.2,209.6,117.1,306.7,188.2 c-67.5-14.7-124.2-53.2-184.9-83.1c-21.8-10.7-45-20.6-63.1-36c-50.4-43-100.6-42.4-162-20.6c-173.9,61.5-350.2,116.2-525.6,173.6 c-9.1,3-19.5,3.6-24.7,13.7C215.4,949.5,241.8,948.1,240.8,975.4z"/></g><g><path fill="#ac715e" d="M2181.1,675.1c-9.7-5.5-19.4-10.9-29.1-16.4c156.7-52.1,313.4-104.1,470-156.5c15.8-5.3,30.1-7.9,46.4-0.3 c94,43.8,187.4,88.6,278,139.1c30.2,16.8,47.3,40.4,59.2,72.9c14.2,38.7,18.6,84.2,59,109.2c-19.5,7.6-39,15.4-60.5,15.2 c-2.3-2.4-3-4.7-2-7c0.9-2.2,1.8-3.3,2.6-3.3c20.1-48.1-17.1-84.6-26.9-126.6c-2.6-11-20.6-0.6-30.3,2.1 c-30.8,8.4-60.9,19.2-91.3,29c-13-5.9-20.7-13.6-9.6-27.9c6.1-16.8,22.2-19.4,35.7-26.2c6-3,21.8-2.2,10.3-16.9 c-3.6-2.1-6.9-4.4-10.3-6.7c-50.3-34.5-108.4-55.1-157.9-90.5c-40.7-27.9-82-25.6-129-13.3c-136.2,35.6-266.6,88.3-400.8,129.6 C2189.3,680.8,2184.8,678.9,2181.1,675.1z"/></g><g><path fill="#ae6f59" d="M2537.7,434.9c-3.5,3.8-7.1,7.5-10.6,11.3c-51.3-8.7-97.3-33.9-146.7-48.2c-33.3-34.7-77.9-51.6-118.4-74.9 c-37.8-21.8-81.6-33-113.6-65.4c-15-15.2-32.2-8.9-50-3.2c-134,43-268.3,85.2-402.5,127.7c-21.3-22.5,8.3-17.1,12.6-18.6 c91.8-32.2,186.4-57.7,275.7-95.6c101.1-43,189-34.8,281.9,24.3C2352,346.9,2446.8,387.9,2537.7,434.9z"/></g><g><path fill="#af7362" d="M1836,595.4c-50.9,3.6-93.1-25.2-138.3-40.5c-48.5-16.4-93.3-44.4-139.1-68.6c-26-13.7-51.2-17.4-79.2-6.5 c-132.5,51.5-270.9,86.4-402.3,141.2c-19.5,8.1-39.8,14.5-59.6-0.3c126.5-54.1,261.3-85,388.4-136.5 c73.7-29.8,138.9-35.1,210.8,6.9C1686.5,531.6,1762.7,561.1,1836,595.4z"/></g><g><path fill="#915542" d="M3136.9,677.4c-27.7-10.1-24.4-45.9-48.6-58.9c64.8-7.6,122.9-37.6,184.2-56.6c83.3-25.7,164.3-58.6,249-79.9 c12.2-3.1,27.3-12.3,31,7.4c3.1,16.6-14.5,12.7-24,16.4c-49.5,19.3-99,38.9-148.5,58.4c-71.8,24.6-143.5,49.6-215.6,73.4 C3144.1,644.4,3136,657.2,3136.9,677.4z"/></g><g><path fill="#a56857" d="M3082.1,219.5c-48.5-3.8-94.3-21.7-133.9-45.9c-77.5-47.3-161.9-79.5-241.2-122.5 c-19.5-10.6-40.5-13.5-61.2-6.7c-101.3,33.1-202.3,67.2-303.6,100.5c-11.6,3.8-20.1,9.8-25,21c-7.7-1.9-18.9-1.3-22.3-6.2 c-7.7-10.9,4.8-12.2,11.4-14.5c118.1-40.3,236.3-80.2,354.5-120.5c12.3-4.2,22.4,1.3,32.6,5.8 C2825.3,88.7,2958.3,144.8,3082.1,219.5z"/></g><g><path fill="#b07766" d="M1364.6,984.7c-174.6-19.4-316.5,85.5-475,127.3c-56.2,14.8-118.1,20.8-166.8,59.6c-5.8,5.7-12,6.7-18.6,1.3 c-12.5-3.7-27.7,5.4-38.3-7.9c190.5-63.1,381.6-124.4,571-190.7C1284.5,957.7,1323.9,957.9,1364.6,984.7z"/></g><g><path fill="#b0715d" d="M3346.4,362.5c-17.3,17.8-31.9,6.4-47.1-3.9c-54.1-36.5-108.6-40.7-170.5-14.5 c-92.6,39.2-187.6,73.2-285.2,98.8c-20.3,5.3-40.4,13.6-60.2-1.3c120.3-39.5,242-75,360.3-119.9c64-24.3,116.3-15.1,169.2,20.9 C3323.6,349.8,3335.2,355.9,3346.4,362.5z"/></g><g><path fill="#bc8473" d="M2062.4,738.6c-94.2-0.6-177.2,42.4-264.2,68.9c-80.7,24.6-160.1,53.5-240.2,80.1 c-18.3,6.1-37.2,13.1-55.4-1.2c156.4-52.7,313.1-104.6,469.1-158.6C2005.4,716.2,2034.4,716.1,2062.4,738.6z"/></g><g><path fill="#814c3e" d="M3004.8,828.1c-0.2,3.4-0.4,6.8-0.6,10.2c-149.3,64.2-306.7,103.8-461,152.8c-24.3,7.7-49,14.1-73.5,21.1 c-1.4-4.4-2.8-8.8-4.2-13.2C2645.3,942,2825.1,885.1,3004.8,828.1z"/></g><g><path fill="#784133" d="M859.2,1677.5c13.4,12.9,31,14.8,48,18.4c-8,39.4-15.6,78.8-24,118.1c-2.7,12.6-6.4,27.8-23.2,26 c-16.4-1.8-17.2-17-17.7-30C840.7,1764.9,847,1720.8,859.2,1677.5z"/></g><g><path fill="#a26655" d="M2312.7,918.8c-25.7-3-4.5-31.5-21.3-39.3c-28.4,4.1-54,1.3-68.6-28.2c2.6-10.1-12.8-20.2,0.1-30.2 c93.9,29.9,134.6,101.6,151.2,192.3c-3.3,3.6-6.5,7.2-9.8,10.7C2328.2,998.2,2325,956.3,2312.7,918.8z"/></g><g><path fill="#8f5240" d="M1420.5,973.7c-10-3.7-20.9-6.3-30.3-11.6c-12-6.8-29.2-8-33-24.5c-1.5-6.7,6-9.8,12.7-11.1 c18.7-3.7,35.2-0.5,46.4,16.3C1422,951.4,1431.3,960.2,1420.5,973.7z"/></g><g><path fill="#7c473a" d="M252.3,1141.9c-41.5-25.1-83.1-50.1-124.6-75.2c51.1,8.8,89.6,39.3,131.5,63.6 C256.9,1134.3,254.6,1138.1,252.3,1141.9z"/></g><g><path fill="#784133" d="M3507.2,564.7c21.3-10.6,42.5-21.1,68.5-34.1C3574.7,585.6,3536,569.6,3507.2,564.7z"/></g><g><path fill="#935240" d="M1597.6,1811.9c-21.8-27.8-55.5-45.1-69.9-79.4c32.7-37.1,73.7-45.5,121.2-38.4c46.9,7,93.1,14.1,132.6,43.1 c12.5,9.2,30.1,4.4,41.9,15.3c-0.9,7.6-7.3,8.9-12.4,8.2c-27.3-4.1-56.4,2.6-71.4-7.7c22.3,12.7,60,6.6,94.4,16.3 c10.2,2.9,4.6-7.9,8.3-10.9c21.1-4.9,40.2,7.2,60.7,7.1c7.1,0,14.1,2.4,21.4,2.7c21.4,1.1,25.3,6.4,17.1,26.9 c-8.9,22.2-17.4,45-35.5,62c-3.3,3.2-7.2,5.8-5.6,12c11.7,44.7-1.7,84.6-24.5,122.5c-22.8,4.5-44.2,9.6-69.1,2.6 c-23.5-6.6-50.5-1.1-76-1c2.8-12.6-8-30.3,6-37.5c27-14,54.4-29.3,85.7-31.6c10.5-0.8,19.2,7.5,28.5,12.1c9.5,4.7,19.9,11.1,26-3.7 c5.5-13.4,3.5-25.4-11.4-32.1c-9.8-4.4-22.2-0.6-30.4-5.8c-29.2-18.6-51.8-4.8-77,9.8c-37.9,21.9-87.3-1.3-99-43 c-5.4-19.3-22.1-28.8-38.8-36.6C1612.3,1821.1,1604,1818.4,1597.6,1811.9z"/></g><g><path fill="#662d1f" d="M1597.6,1811.9c23.7,3.2,42.8,14.2,59.8,31.2c6.2,6.3,10.8,9.8,8.5,19.2c-2.6,10.5,3.4,18.2,11,24.9 c21.8,19.1,61.3,22.2,86,6.9c8.2-5.1,17-9,25.2-14c11.2-6.9,20.8-9.7,31.7,1.9c8.7,9.2,21.9,7.8,34,8.8 c14.6,1.2,30.1,4.3,32.8,22.1c1.8,12.4,0.8,25.9-9.9,35.1c-10.9,9.5-19.2-0.9-28-5.2c-19.3-9.4-36.9-25.8-58.3-0.3 c-6.4,7.6-24.1,5.6-36.6,8.2c-9.5,2-16,8.5-18.9,16.9c-3.8,11.1,11.7,1.9,11.7,10.5c-0.9,9.1-12.6,7.9-16,15.2 c-40.3-1.2-75.5-17.6-109.1-38c-4.5-2.7-6.8-8.6-10.7-12.5c-6.9-7-7.2-14.6-0.3-20.9c7.5-7,12.7,0.4,18.3,4.6 c4.7,3.5,8.6,12.6,15.3,7.5c6.6-4.9-0.1-11.8-2.7-17.1c-5.7-11.4-12.2-22.4-18.3-33.6c-1.9-3.4-6.1-8.3-5-10.3 C1632.8,1845.1,1603.1,1832.7,1597.6,1811.9z"/></g><g><path fill="#b87c68" d="M1875.8,1991.8c-4.4-1.5-10.9-2.6-4.8-8.9c26.9-28.1,23.3-65,28.9-99.2c1.9-11.4-7.5-12.2-17.1-16.7 c31.6-17.5,40.8-48.2,53.9-76.3c6-12.9,3.2-18.7-12.5-17.7c-28.3,1.9-55-8.9-82.6-12.5c-8.1,5.4-15.4,7.1-19.9-4.3 c-51.9-16.6-97.3-51.6-154.5-53.3c-23.7-0.7-47.4-3.9-71.1-5.8c-10.1-0.8-19.7,2.2-26.2,9.5c-11.7,13.1-26.8,19.6-42.3,26 c6.8-20.6,37.1-42.7,66.4-44.8c54.3-3.8,109.3,0.2,156.5,27.7c59.4,34.7,124.2,39.7,189.2,47.1c14.4,1.6,20.2,2,14.6,18.8 c-10,29.6-17.1,60.2-34.8,86.6c-8.2,12.2-6.6,25.9-7.8,39.5C1909,1939.3,1907.6,1972.1,1875.8,1991.8z"/></g><g><path fill="#532114" d="M988.4,2218.5c-8.3-2-17.3-2.4-22.4-10.9c3.3-3.5,7.4-6.1,11.1-9c36.7-28.7,25.1-26.7,7.3-63.7 c-2.2-4.6-6.4-7.3-11.7-7.3c-6.1,0-12.9,0.1-15.4,6.8c-2.3,6.4,3.2,9.4,7.8,12.6c17.2,12.1,20.3,22.5,13.6,41.4 c-3.9,11.2-10,17.6-22.7,14.1c-26-19-58.4-18.9-87.4-29c-7.2-2.5-14.7-4.5-22-7.2c-4.6-6.4-8.8-13-12-20.2c-1.8-4-2.4-8.4,0.8-11.9 c3.7-4.1,7.8-1.3,11.6,0.1c7.6,2.9,13.2,10.9,22.9,9.2c2.8-7.5-3-11.1-6.5-15.6c-3.3-4.3-8.3-8-8.7-13.5 c-1.2-16.6-5.9-30.2-22.3-38.3c-7.2-3.5-5.3-11.3-2.6-17.8c5.9-14.1,16.3-23.7,30.1-29.8c6.1-2.7,12.6-4.3,18.1-8.2 c5.8-4.2,10.9-9.5,4.4-16.3c-5.3-5.6-12.6-8.1-19.2-1.6c-5.5,5.5-9.9,12.2-17,16.1c-8.6,4.6-18.1,3.2-18-6.5 c0.2-22.5-15.6-23.7-30.7-27.3c0.1-1.2,0.1-2.4,0.3-3.5c4.4-34.3,1.2-29.8,32.8-24.7c10.7,1.7,22.5-6.4,32.1,3.6 c4.7,19.6,14.1,4.1,21.6,2.9c7.2,0.9,14.3,1.9,21.5,2.8c6,3.8,13.5,5.7,16.6,13.1c-0.1,1.2-0.3,2.4-0.4,3.6 c4,11.4,13.8,15.4,24.1,15.3c16.6-0.2,32,4.1,47.5,8.6c3.4,1,6.7,4.7,10.2-1.9c8.9-16.8,10.7-16.8,29.8-7.8 c7.7,1.7,17.2-0.4,20.6,10c9.5,8.6,16.7,5.6,22.5-4.3c13.2,1.7,26.3,3.4,39.5,5.1c2.1,2.9,4.8,5.3,6.7,8.4 c3.8,6.4,0.5,17.9,9.7,19.7c7.6,1.5,5.8-12.9,14.7-13.2c12.5,4.9,16.1,13.8,15.2,27.1c-1,14.8,0.5,29.8,0.9,44.7 c-7.1,1.3-11-4-15.5-7.7c-11.6-9.5-24.3-4.6-36.4-2.4c-6.2,1.1-4.5,6.1,0.1,9c8,5,20.2,8.1,17.8,19.8 c-2.5,12.1-15.9,11.1-25.4,13.9c-7.6,2.2-15.1,4.1-21.8,8.6c-8.6-0.3-9.6-8.3-12.8-13.5c-8.4-13.9-21.9-18.2-36.3-21 c-9-1.8-12,2.7-9.9,11.5c3.3,13.6,15.3,22.1,30,21.9c17.9-0.2,25,15.3,33.8,26.5c12.3,15.5,16,17.8,32.9,7.2 c10.7-6.7,21.8-12.9,31.7-20.7c7.2-5.6,10.7-2.8,11.7,5.4c-2.2,7.4,0.5,14.7,0.8,22.1c2.8,9.1,6.9,18,4.4,27.8 c-2.8,10.8-8.1,17.6-20.3,10.5c-29.9-12.2-59.3-25.8-91.6-31c-21.5-3.5-40.3-0.3-55.6,16.5c-3.9,4.3-7.8,8-2.4,13.6 C996.2,2215.7,992.6,2217.7,988.4,2218.5z"/></g><g><path fill="#532114" d="M1451.6,1959.6c15.3,52,9.1,103.1-6.5,153.8c-0.7,2.3-4.4,3.7-6.7,5.5c-12,4.8-24.4,5.2-37.1,3.5 c-10.5-1.4-21.1-3-25-14.4c-4.4-12.8-2-25,7.5-35.2c5.7-6.1,13.3-10.7,16.1-19.1c1.6-4.7,2.8-10.1-1.6-13.4 c-5.4-4-8.7,1.3-11.8,4.7c-12.5,13.3-23.3,27.6-27.2,46c-3.6,17.3-13.7,25.6-30.8,33c-22.3,9.7-46.2,23.4-47.9,53.8 c-0.2,4.4-1.9,8.1-4.9,11.3c-18.8,12.9-41.2,18.4-60.9,29.5c-1.9,1.1-5.5-1-8.3-1.7c-1.2-14.1,11.4-21.8,15.7-33.4 c3.2-8.6,7.6-16.4,0.5-27.7c-15.5,16.1-30.2,32-45.8,46.9c-13.2-9.9-3-22.9-4.5-34.3c0.4-3.6,0.8-7.1,1.3-10.7 c22.9-11.8,26.4-21.8,15.4-45.6c-5.3-11.4,0.7-19.3,7-27.6c5.9-7.8,19.1-17.9,11-25c-8.3-7.2-18.3,5.4-25.2,13.6 c-1.6,1.8-2.9,3.8-5.2,4.8c-5.6-13.8-3.5-27.8-1.7-41.9c0.9-6.7,4.8-9.9,10.4-13.1c9.2-5.1,19.1-9.5,26.5-17.5 c21-16.4,46.3-24.5,70.3-34.7c9.2-4.9,18.3-9.9,27.5-14.8c7,17.5,0.5,34.1-3.8,50.8c-1.1,4.2-7.1,9.2-1.2,12.6 c5.9,3.5,9.9-2.6,12.8-7c23.6-35,47-70.1,62.9-109.5c5.8-14.5,11.9-29,18-43.4c2.6-6.3,7.8-13.3,14.8-10.3 c7.8,3.3,4.1,11.5,1.8,17.5c-3,7.9-6.2,15.7-8.9,23.7c-8.4,25.4-15.2,50.7-1.6,76.8c3.2,6.2,2.1,13.9,3.2,22.1 C1430.3,1948.9,1432.8,1947.3,1451.6,1959.6z"/></g><g><path fill="#44190f" d="M1451.6,1959.6c-22.4-5.2-25.6-3.3-31.8,18.2c-2.3,7.9-5.4,12.8-17.9,24.8c5.1-29.9-16.4-51.3-11.1-76.7 c5.2-24.9,11.8-49.8,24.9-74c-11.2-0.2-12.4,6.1-14.5,12.2c-18.8,54.9-47.8,104.4-80,152.3c-3.8,5.6-7.7,11.6-15.1,11.5 c-8.5-0.1-15.7-7-10.9-13.3c13.7-18.1,9.2-39.4,14.1-58.9c4.4-12.3,16.1-18.8,23-29.5c18-28.1,24.5-59.9,32.3-91.2 c3.2-12.8,8.7-22.3,19.4-28.9c16.4-10.1,34.8-16.3,50.2-28.5c7.6-6,15.3,0,21.5,4.4c6.3,4.5,3,11,0.5,16.4 c-13.7,29.4-14.6,60.6-12.6,92c0.7,11.7-1.6,22.8-2.1,34.1c-0.5,9.9-17,25.6,9.2,26.7C1451.2,1951.2,1451.3,1956.6,1451.6,1959.6z"/></g><g><path fill="#703324" d="M797.6,1984.8c25.7-5.2,30.8-1.7,33.5,23.3c0.9,8.7,4.3,12.9,12.7,7c4.9-3.4,10.1-6.6,13.1-12.2 c3.1-6,4.2-14.5,15.2-9.6c8.1,3.6,18.6,3.3,20.2,14.9c1.4,10.6-6.8,15.5-14.5,18.4c-17.1,6.6-33.9,12.2-42.7,30.7 c-4.4,9.3-5.5,15.3,5.8,19.3c4.4,1.5,10.9,4.4,11.6,7.7c4.5,21,13.3,39.3,25.4,57.2c5.6,8.3-5.9,11.6-13.2,8.3 c-9.1-4-17.4-10.1-27.5-16.1c-2.8,13.9,14.7,20.1,9.5,32.5c-45.3-13.8-39.4-14.6-41.4-71.5c-0.7-21.1-1.2-42-6.8-62.5 C798.2,2016.5,797.9,2000.7,797.6,1984.8z"/></g><g><path fill="#723525" d="M1275.6,2189.1c-0.2-6.6-0.7-13.1-0.7-19.7c0-8.7,1-16.6,11.2-20.3c7.4-2.7,12.9-8.6,17.1-15.5 c5.7-9.1,13.5-15.8,24.7-16c17.7-0.3,23.9-12,26-26.4c3.4-23.7,20.1-38.9,33.8-56.1c3-3.8,7.9-6.3,12.8-3.7c4.4,2.3,6.9,6.7,7,11.9 c0.3,11.8-4.6,21.1-14.3,27.5c-8.7,5.7-13,12.9-14.1,23.5c-1.5,14.6,4.1,21.8,18.4,22.6c13.6,0.8,27.3,1.2,41,1.8 c-16.8,20.4-42.1,24.8-64.7,34C1341.4,2166,1308.4,2177.1,1275.6,2189.1z"/></g><g><path fill="#bf8673" d="M822.3,1933.3c16.9-0.1,31.4-8.2,45.9-15.2c49-23.5,97.9-47.1,146.1-72.2c44-22.9,90.2-37.2,139.5-41.9 c26.4-2.5,51.2-9.8,71-28.4c43.2-40.4,92.6-44.8,146.4-26.4c18.8,6.4,38,11.7,57,17.5c-8.6,7.8-19.5,11.1-30.2,14.5 c-0.9-1.4-1.5-2.9-1.5-4.6c-21.9-21.8-83.9-31.9-109.6-18.3c-8.1,4.3-8.4,8.8-3.8,15.8c3.1,4.6,5.4,10.1,0.2,14.7 c-5.3,4.6-11.9,4.3-16.7,0c-12.5-11.4-24-7.6-35.9,0.6c-30.1,20.8-64.7,29-100.2,33.5c-37,4.7-71.5,16.9-104.3,34.1 c-19.2,10.2-38.9,19.2-58.9,27.7c-14.5,6.3-27.8,15.1-42.1,21.7c-1.4,0.8-2.9,1.5-4.4,2.1c-6.8,2.1-13.3,5-19.5,8.3 c-8.9,3.3-17.9,6.5-26.3,11c-1.6,0.8-3.3,1.3-4.9,2.1c2.9,2.5,6.6,1,9.8,1.8c5.5,0.6,10.9,1.1,16.2,2.7c11.5,5.9,15.7,13,3.4,22.5 c-5-4.1-11.2-4.8-17.3-5.3c-15.6-5.3-31.8-6.5-48.1-6.7c-8.2-1.1-16.4-2.1-25-3.2C810,1933.1,819,1937.5,822.3,1933.3z"/></g><g><path fill="#44190f" d="M1163.3,2152.7c-3.1-4.5-4.8-4.8-10.4-1c-14.1,9.8-27.4,21.7-44.4,26.7c-10.7,3.1-19.2,5.8-23.3-11.6 c-2.6-11-16.7-19.3-25.7-28.7c-0.8-0.8-2.1-1.6-3.1-1.6c-25.2,1.3-35.1-5-39.7-26.5c-2.1-9.7-0.5-16.6,12.5-15.1 c25.4,3.1,43.7,14.7,51.9,39.9c10.2,5.5,17.1,17.1,31.5,14.6c12.9-2.3,23.3-6.4,26-20.8c2.4-12.7,9.3-17.6,21.9-13 C1160.6,2128.1,1167.4,2140,1163.3,2152.7z"/></g><g><path fill="#b87f6a" d="M1398.4,1777.3c-0.1,1.3-0.3,2.6-0.4,3.9c-15.8,12.9-37.5,20.2-42.2,43.7c-4.9,24.8-14,48.2-24.1,71.2 c-12,27.5-30.7,48.9-60,58.6c-38.6,12.8-74.9,28.9-105,57.5c-7,6.6-14.2-4.2-20.9-7.9c0.2-9,8.9-6.1,13.2-9.5 c27.7-16.2,54.6-33.7,83.8-47.1c6.2-2.9,12.8-4.1,19.4-5.7c21.3-9.8,39.4-23.2,51.2-44.1c8.3-16.1,13.8-33.4,19.7-50.4 c4.6-11.7,8.1-23.7,12.2-35.6c6.4-18.8,21.1-30,37.9-38.4C1387.9,1771.3,1395.5,1767.4,1398.4,1777.3z"/></g><g><path fill="#6f3222" d="M1160.7,2115.7c-10.3,1.8-16.5,4.5-18.1,18.2c-2,16.7-18.2,19.8-33.4,20.8c-15,0.9-23-7-27.9-19.8 c1-4.7,1.5-9.3,8.1-10.1c6.5-0.7,12.8-2.7,19.2-4.2c6.7-1.6,17.2-0.6,17.5-8.9c0.2-7.6-8.3-12.1-16.6-13.5 c-5.9-0.9-11.1-3.7-10.1-10.3c1-7.5,7.2-10,14.3-11.1c19.9-3.2,37.2,0.1,49.8,17.5C1162.4,2101.4,1161.6,2108.6,1160.7,2115.7z"/></g><g><path fill="#a86a55" d="M1161.4,1999.1c-4.2,4.9-11.7-0.2-15.7,5.3c-40.2-13.9-82.9-13-124.2-20.3c-35.8-6.3-71.1-14.2-106-24.2 c-5.2-1.5-10.6-1.9-16-2.8c3.2-7.4,8.4-15.3-4.8-18.5c9.9-14.5,17.7-15.8,26.5-3c4.5,6.6,10.1,9.9,17.1,11.8 c18.5,5,37.1,9.8,55.9,13.6c41.5,6.7,84.1,6,125,17.5C1133.6,1984.7,1151.5,1983.7,1161.4,1999.1z"/></g><g><path fill="#6f3324" d="M1176.4,2077.8c0.4-18.8,17.2-22,29.1-27.8c7.7-3.8,10.7,5.3,9.5,12.7c-1.6,10-7.9,17.5-14.8,24.3 c-9.2,8.9-13.4,17-2.9,28.7c10.5,11.8,2.9,24.1-4.1,34.5c-4.1,6.1-8.8,16.4-19.7,7.6c-3.8-4.2-2.6-9.1-1.7-13.7 C1176.5,2122.2,1174.9,2099.9,1176.4,2077.8z"/></g><g><path fill="#753727" d="M1178.7,2202.2c0.4-9.5,2.9-17.2,12.8-21.5c12-5.3,15.3-19.5,25.5-27c2.8-2,4.3-6.6,8.3-5.8 c5.6,1,3.7,6.8,5,10.4c6.7,18.7-7.8,31.1-14.5,45.7c-2.2,4.8-6.3,8.7-9.5,13c-7.9,6.4-14.1,18.8-26.9,7.4 C1173.9,2217.2,1170.8,2209.9,1178.7,2202.2z"/></g><g><path fill="#44190f" d="M1033.5,1996.9c-1.2-0.1-2.4-0.3-3.6-0.4c-24.4-3-24.4-3-19.3,21.7c-11.4,0.6-18.9-9.1-29.7-10.4 c-11.5-1.4-22.6-4.6-34.7-4.4c-12.5,0.2-26.2-2.4-24.2-20.9c2.7,1,7.1,3.4,7.8,2.6c5.2-6,10.8-12.7,19.3-9.5 c11,4.1,23.7,4.7,32.1,14.5c4,4.7,5.6,10.8,12.7,0.2C1000,1981.4,1024.4,1987.2,1033.5,1996.9z"/></g><g><path fill="#44190f" d="M1178.7,2202.2c0.2,7.4,0.5,14.7,0.7,22.1c-16.9,14.1-21.8-4.9-31.3-11.4c18.6,1.9,17.2-10.8,15.6-22.5 c-0.8-5.4-7.3-10.5,0.4-15.7c4.6,0.4,7.3-1.7,8.1-6.3C1177.9,2179.1,1170.6,2192.1,1178.7,2202.2z"/></g><g><path fill="#44190f" d="M1147.2,2022.6c-1.7,3.8-3.5,7.5-5,11.3c-1.6,4,0.6,11.8-6,10.9c-6.6-1-15.4-4.9-14.9-13 c0.6-9-5.2-15.8-5.1-24.1C1128.7,2008.1,1139.2,2012.7,1147.2,2022.6z"/></g><g><path fill="#44190f" d="M1282,1970.6c-4.1,6.6-11.6,9.2-17.8,10.7c-19.2,4.7-34.3,17.7-52.5,24 C1230.8,1985.2,1255.3,1975.7,1282,1970.6z"/></g><g><path fill="#44190f" d="M884.3,1963.1c-5.4,6.9-14.5,11-14.8,25.7c-7.1-11.7-7.4-20-6.8-28.5C869.2,1966.9,877.3,1960.9,884.3,1963.1z"/></g><g><path fill="#44190f" d="M1076.7,2002.6c-1.4,4.8,0.6,11.8-6.8,13c-7,1.1-13.2-0.8-15.7-8.6C1062.5,2009.6,1069.7,2006.4,1076.7,2002.6 z"/></g><g><path fill="#44190f" d="M834.1,1945c16.7-2.5,32.8-0.8,48.1,6.7C866.2,1949.5,850.2,1947.3,834.1,1945z"/></g><g><path fill="#44190f" d="M922.5,1978.9c-7.5-1.8-11.8-7.8-16.6-13.1C913.4,1967.7,925,1964.3,922.5,1978.9z"/></g><g><path fill="#9b5b4a" d="M2118.5,1559.9c62.8-28.5,120.5-54,177.5-81c16.1-7.6,30.5-8.9,46.2-0.8c32.5,16.8,65.2,33.2,95.8,59.2 c-22.8,0.4-45.6,0.8-68.4,1.3c0,3.9-0.1,7.8-0.1,11.7c28.9-0.5,57.9-1.3,86.9-1.5c13.2-0.1,29.8,1.9,34,13.7 c5.7,16.1-13.5,18.5-23.3,25.5c-1.3,0.9-3.1,1.2-4.3,2.2c-83,62.8-166.8,76.7-256.1,10.1 C2182.6,1582.6,2151.3,1574.6,2118.5,1559.9z"/></g><g><path fill="#6a3124" d="M2109.2,1594.6c69.2,23,130.5,50.9,189.9,84.3c23.9,13.4,35.9,28.1,19.8,52.8c-16.9,26-49.1,8.2-54.9-0.1 c-32.5-46.6-86-61.2-127.9-92.7C2123,1628.9,2109.2,1620.6,2109.2,1594.6z"/></g><g><path fill="#7d3e2b" d="M956.1,2202.5c15.8-2.7,19.7-14.7,21.2-28.1c1.4-12.5-4-20.1-16.5-23.7c-7-2-12.3-7.2-11.1-16.3 c0.9-6.6,4.8-9.7,10.5-10.5c9-1.2,19.5-7.6,26.2,3.5c7.1,11.7,13.3,24,19,36.4c3.4,7.5,3.2,16.4-4.5,21 c-11.9,7.2-18.6,22.4-35,22.6C962.7,2205.9,959.4,2204.2,956.1,2202.5z"/></g><g><path fill="#3b1810" d="M1655.1,1252.3c-22.8,30.3-60.3,28.5-91.2,39.4c-189.4,66.8-379.7,131.2-569.8,196.3 c-13.8,4.7-28.1,7.6-41.9,12.3c-21.4,7.2-31,0.6-26.9-22.1c5.2-28.5,11.1-56.9,16.6-85.4c215.3-69.9,430.6-140,646.1-209.7 C1634.5,1168.1,1640.2,1174.4,1655.1,1252.3z"/></g><g><path fill="#39170f" d="M911.1,1374.9c3.2,81.7-49.9,7.7-71.1,26.9c17.8,31.5,78.4,47.8,39.1,102.2c-72-53.9-147.4-103.7-226.1-148.8 c-74.7-42.8-78.3-76.9-16.8-143.4C727.9,1266.2,819.5,1320.5,911.1,1374.9z"/></g><g><path fill="#4c2114" d="M704.3,1172.9c6.2-0.4,12.4-0.9,18.6-1.3c59.1,37.1,123.6,65.1,178.9,108.5c27.4,21.5,55.3,27.7,88.6,5.6 c43.2-28.7,89.6-52.5,135.2-77.3c14.6-8,29.3-20,52.6-11c-69.5,37.7-135.6,73.5-201.7,109.4c127.7-23.6,246.3-77.8,375.6-92.4 c-64.4,37-136.6,52.8-205.7,77c-38.2,13.4-80.9,18.3-115.1,38.1c-54.4,31.5-94.9,14.1-139.5-17.7c-50.2-35.7-103.8-66.7-155.9-99.8 C721,1202.5,703.2,1195.4,704.3,1172.9z"/></g><g><path fill="#b4735b" d="M962,1182.1c73.5-9.2,134.7-60.1,208.8-67.5c2,6.6,3.9,13.2,5.9,19.9c-70,21.2-139.9,42.4-209.9,63.6 C965.1,1192.8,963.6,1187.4,962,1182.1z"/></g><g><path fill="#3c170e" d="M2312.7,918.8c32.1,27.8,29.8,72.4,51.5,105.4c-72.9,40.4-154.3,57.1-232.6,82.2 c-121.7,38.9-244.2,75-365.9,112.2c4.2-27.7,9.2-59.3,13.6-90.9c4.4-31.9,28.4-39.3,54.2-47.7c151.2-49.1,302.2-99.2,453.1-149.2 C2295.6,927.7,2304,922.8,2312.7,918.8z"/></g><g><path fill="#4f2012" d="M1514.8,904.1c55.5-0.2,90.6,22.4,123.1,43.7c68.8,45.2,135.3,62.6,213.4,20.6 c63.5-34.1,136.7-34.4,207.5-41.4c-98.2,34-200.6,55.3-303.5,99.5c49.2,19.4,87.7-6.9,127.6-7.7c-49.2,42.4-102.2,46.6-155.3,13.9 C1660.4,991.5,1592.7,951.1,1514.8,904.1z"/></g><g><path fill="#4c2114" d="M2222.7,851.3c22.9,9.4,45.8,18.8,68.6,28.2c-47.4,37.2-93.1,24.2-142-4.4 C2172.4,855.2,2197.4,852.8,2222.7,851.3z"/></g><g><path fill="#3c170e" d="M240.8,975.4c-11.7-14-35.3-15.6-39.5-37.6c38.8-9.6,67.2,17.7,100.6,27.2c66.4,19,113.2,67.9,167.8,104.4 c26.2,17.5,48.3,23.3,76.5,13.4c160.4-56.8,324.5-103.1,482.2-167.7c16.5-6.8,33.8-11.3,50.8-17c15.6-5.3,34.8-13.2,40.8,8.8 c5.6,20.6-16.4,19.1-29,23.5C961,975.2,831,1019.9,701,1064.7c-58.1,8-110.3,34.5-164.9,53.2c-23.8,8.2-40,7.6-62.5-4.7 C394.4,1069.9,325.6,1009.2,240.8,975.4z"/></g><g><path fill="#58281a" d="M493,961.5c-17.3-5.6-46.3,15.1-56.9-21.6c-4.2-14.5-24.2-25.7-14.9-42.9c10.3-19.1,32-14.5,48.6-12.5 c22.2,2.8,44.1,9.8,65.3,17.1c17.1,5.9,45.6,6.6,41.5,31.3c-3.8,22.5-30,26.1-51.4,27.8C515.5,961.6,505.7,961.3,493,961.5z"/></g><g><path fill="#622a1a" d="M1644.8,610.3c-133.4,40.6-266.8,81.3-400.2,121.9c122.4-72.6,258.5-103.1,394.2-134.6 C1640.9,601.9,1642.8,606.1,1644.8,610.3z"/></g><g><path fill="#622b1c" d="M2722.6,157c35.4,7.4,67.9,21.4,95.5,45c7.5,6.4,22.5,14.7,11.1,27c-10.2,10.9-20.4-1.1-29.7-6.9 c-37.1-22.9-76.5-37.4-119.7-22.2c-14.5,5.1-36.9,5.9-39,27.5c-1.8,18.6-13.8,9.4-19.3,7.9c-13.8-3.6-29.4-7.2-35.1-22.9 c-3.2-8.7,2.6-16.9,10.6-19.3C2638.3,180.7,2680.2,169.1,2722.6,157z"/></g><g><path fill="#4b1e11" d="M2893.7,652.4c12.9,1.7,24.7,5.7,34.8,17.8c-23.8,20.6-54.9,23-81.8,34.6c-109,31-216.4,67.1-322.4,107.3 c-51.1,19.4-95.3,27.9-148.1-10c-66.6-47.7-144.4-79.6-223.7-121.6c14-2.6,21.3-4,28.7-5.4c2.9,0.5,5.8,0.9,8.8,1.1 c67,0.8,120.5,37.4,171.4,72.8c53.3,37.2,101.8,42.4,162.3,19.9C2644.8,723.8,2765.9,677.2,2893.7,652.4z"/></g><g><path fill="#864634" d="M2893.7,652.4c-0.8,14-9.2,18.1-22.1,20.5c-142.3,26.2-273.2,88.9-411.1,129.2c-9.9,2.9-16.5,15.3-29.7,5.7 c-74.7-54-156.1-95.9-240.9-131.6c7.3-6.3,13.5-15.8,22-18.4c143.6-45.4,287-91.1,431.4-133.7c35-10.3,64.4,14.1,91.9,34.4 c41,51.5,102,69.5,158.8,94.5L2893.7,652.4z"/></g><g><path fill="#4b1e11" d="M2894,653c-71.6,2.1-118.4-46.1-169.4-84.9c-6.8-5.2,5.3-7.8,10.6-9.6C2786.3,593.1,2848.5,608.9,2894,653z"/></g><g><path fill="#693122" d="M1821.8,1756.2c5.7,5.9,13.1,3.7,19.9,4.3c2.9,6,16.1,5.6,11.7,15.1c-3.2,6.9-11.1,2.1-17.2,1.3 c-25.1-3.3-49.6-9.7-75.3-11.1c-19.9-1.1-37.7-11.4-50.5-29.7C1746.1,1752,1784.1,1752.8,1821.8,1756.2z"/></g><g><path fill="#7d3d2b" d="M1395.1,1978.6c-0.3,39.7-27.9,60.4-55.2,81.1c-7.1,5.3-15,4.9-20.9-2.3c-5.9-7.1-2.7-13.2,2.9-19 c22.6-23.7,40.1-51.1,55.9-79.6c1.4-2.5,1.6-6.3,5.5-6.2c4.2,0.1,6.5,3.6,7.5,6.9C1392.7,1965.6,1393.7,1972.2,1395.1,1978.6z"/></g><g><path fill="#975845" d="M1161.4,1999.1c-14-5.5-28-11-42-16.6c3.8-14.1-2.3-22.8-14.7-28.9c-20-9.8-41.9-9.3-63.1-12.4 c-5.6-0.8-8.1,4-11.7,7c-12.1,9.7-25,7.9-37.9-5.4c3.9,8.2,9.4,15.4,2,23.1c-23-5.4-46.1-10.7-69.1-16.4c-2.6-0.6-6.4-3.2-6.6-5.2 c-2.7-23.8-14.1-10.7-23.5-5.8c-5.9-0.8-11.9-1.6-17.8-2.5c-4.8-2.8-12.2-5.1-2.5-11.2c7.4-7.8,17.1-9.6,27.1-11 c2.1-1.3,4.6-2,6.6-0.8c9.7,6.2,12.3,1.2,12.7-7.7l0.1,0c13.1-0.8,23.5-11.3,37-10.9c11.1,0.6,22.4,0.1,30.1,3.3 c5.5,0.4,3.4-3.9,3.6-1.5c0.1,0.8-0.3,1-1,1.1c-7.4,0.8-13.6-3.1-20.5-4.6c-3.7-2.8-8.1-5.2-6.1-11.1 c51.4-22.9,99.4-54.6,156.8-62.6c29.2-4.1,58.6-7.4,85.3-21.5c5.8-3.1,11.3-6.8,17.1-9.9c15.3-8.2,30.3-22.9,46.8-1.5 c2.9,3.8,8.2,3.1,11.3-0.3c4.1-4.6-0.5-8.3-3.3-10.6c-15.5-12.6-4.1-16.5,6.2-21.6c31.2-15.5,61.3-6.1,90.8,4.7 c7.8,2.9,15.4,6.1,23.6,8.3c11.5,3.1,5.9,7.2-0.3,10.6c-17.5-1.3-43.1,17.9-48.6,35.9c-3.8,12.5-8.3,24.7-12.5,37.1 c-3.2,3.6-5.8,7.7-8.5,11.6c-12.3,17.9-34.6,19.1-49.2,2.8c-6.9-7.6-4.5-15.9-1-23.7c4.7-10.8,0.6-14-9.9-14 c-17.5,0.1-33.6,0.9-40.9,21.5c-2.9,8.1-10.5,14.4-13.6,22.6c1.4,1.5,2.6,1.6,3.3,0.4c13.7-24,25.8-25.3,42.5-3 c10.5,14,24.9,20.4,40.3,25.9c5.6,2,12.1,1.7,16,7.3c-12.1,21.6-30.2,35.8-53.1,44.5c-8.4-15-14.1-16.3-39.8-8.5 c3.9,9.8,17,5.2,21.1,13.7C1216.8,1967.3,1189.1,1983.2,1161.4,1999.1z"/></g><g><path fill="#a86a55" d="M958.8,1899.1c-13.3-2-23.7,13.7-37.9,6.3c13.3-9.9,28.2-16.8,43.1-23.6c2.2,2.7,4.5,5.3,6.7,8 C968,1894.4,962.4,1895.5,958.8,1899.1z"/></g><g><path fill="#a86a55" d="M920.8,1905.4c0,6.1,12.3,10.6,4.5,16.5c-9.7,7.3-15.2-6.7-23.7-8C906.4,1907.6,913.3,1905.9,920.8,1905.4z"/></g><g><path fill="#a86a55" d="M874.4,1924.9c-4,4.8,0,7.8,2.5,11.2c-6.2-0.8-12.3-1.6-20.5-2.7C862.1,1926.3,868.3,1925.6,874.4,1924.9z"/></g><g><path fill="#6b3224" d="M1316.3,1901.7c-25.5-2.4-48.2-10-62.1-33.8c-4.2-7.2-12.5-11.5-19.6-10.9c-7,0.6-10.9,7.9-10,16.5 c0.5,4.8-3.6,7.3-8.3,7.8c-3.7,0.3-7.4-0.1-9.7-3.5c-3.3-4.7,0.9-7.7,3-11.1c6-9.7,11.7-19.2,16.1-30c4.3-10.6,20.2-13.3,32.8-15.2 c0.6-0.1,1.2,0,1.8,0.2c9.1,3.6,21.7-4.7,27,2.8c4.7,6.6-4.3,16.2-7.1,24.5c-2.3,7-1.8,13.6,6.6,16c11.1,3.2,22.3,15.8,33.7,1 c4.8-6.3,9.9-11.8,16.8-15.6C1330.7,1867.6,1326.8,1886,1316.3,1901.7z"/></g><g><path fill="#6f3322" d="M1244.4,1951.4c-7.1-1.1-14.4-1.7-21.3-3.6c-4.8-1.3-8.5-5.5-8.5-10.6c0.1-6.3,5.5-6.8,10.5-7.1 c8.9-0.6,17.9-2,26.8-2c12.7,0,18.1,5.4,11.2,18C1256.9,1947.9,1250.7,1949.6,1244.4,1951.4z"/></g><g><path fill="#7a3e2e" d="M993.9,1966c-1.4-9.3-2.8-18.7-4.2-28c5.5,7.4,12.1,12.5,21.2,11.9c8.3-0.6,19.1,1.3,19.1-12.8 c0-2.7,3.8-2.2,6-1.8c26.5,4.5,54.4,2.3,78.6,17.5c14,8.8,16.2,21.4,4.9,29.9C1077.6,1977,1035.7,1971.5,993.9,1966z"/></g><g><path fill="#6d3423" d="M1130.7,1943c14-12.5,27.4-15.5,40.9-18c9.9-1.9,18.6,4.1,19.7,11.8c1.6,10.6-10.6,7.7-16.1,8.1 C1161.8,1945.7,1148.1,1943.9,1130.7,1943z"/></g><g><path fill="#642a1b" d="M1063.6,1902.1c-6.8-1.8-17.1-0.2-15.3-12.1c1-6.8,6.5-13.3,14-9.1c8.9,4.9,26.1,1.9,25.8,14 C1087.8,1905.1,1073.3,1902.9,1063.6,1902.1z"/></g><g><path fill="#bf8673" d="M958.8,1899.1c-0.3-8.6,4.6-10.4,11.9-9.3c7.8,2.8,15.6,5.5,23.4,8.3C982.3,1896.7,970.6,1901.8,958.8,1899.1 z"/></g></g></svg>